G04 #@! TF.GenerationSoftware,KiCad,Pcbnew,(5.1.5-0-10_14)*
G04 #@! TF.CreationDate,2021-04-03T11:55:28+11:00*
G04 #@! TF.ProjectId,Pi_Zero_RS232_DB25_Hat,50695f5a-6572-46f5-9f52-533233325f44,rev?*
G04 #@! TF.SameCoordinates,Original*
G04 #@! TF.FileFunction,Soldermask,Top*
G04 #@! TF.FilePolarity,Negative*
%FSLAX46Y46*%
G04 Gerber Fmt 4.6, Leading zero omitted, Abs format (unit mm)*
G04 Created by KiCad (PCBNEW (5.1.5-0-10_14)) date 2021-04-03 11:55:28*
%MOMM*%
%LPD*%
G04 APERTURE LIST*
%ADD10C,0.100000*%
G04 APERTURE END LIST*
D10*
G36*
X88955021Y-91743840D02*
G01*
X89464769Y-91954985D01*
X89464771Y-91954986D01*
X89923534Y-92261521D01*
X90313679Y-92651666D01*
X90620214Y-93110429D01*
X90620215Y-93110431D01*
X90831360Y-93620179D01*
X90939000Y-94161324D01*
X90939000Y-94713076D01*
X90831360Y-95254221D01*
X90620215Y-95763969D01*
X90620214Y-95763971D01*
X90313679Y-96222734D01*
X89923534Y-96612879D01*
X89464771Y-96919414D01*
X89464770Y-96919415D01*
X89464769Y-96919415D01*
X88955021Y-97130560D01*
X88413876Y-97238200D01*
X87862124Y-97238200D01*
X87320979Y-97130560D01*
X86811231Y-96919415D01*
X86811230Y-96919415D01*
X86811229Y-96919414D01*
X86352466Y-96612879D01*
X85962321Y-96222734D01*
X85655786Y-95763971D01*
X85655785Y-95763969D01*
X85444640Y-95254221D01*
X85337000Y-94713076D01*
X85337000Y-94161324D01*
X85444640Y-93620179D01*
X85655785Y-93110431D01*
X85655786Y-93110429D01*
X85962321Y-92651666D01*
X86352466Y-92261521D01*
X86811229Y-91954986D01*
X86811231Y-91954985D01*
X87320979Y-91743840D01*
X87862124Y-91636200D01*
X88413876Y-91636200D01*
X88955021Y-91743840D01*
G37*
G36*
X30916021Y-91743840D02*
G01*
X31425769Y-91954985D01*
X31425771Y-91954986D01*
X31884534Y-92261521D01*
X32274679Y-92651666D01*
X32581214Y-93110429D01*
X32581215Y-93110431D01*
X32792360Y-93620179D01*
X32900000Y-94161324D01*
X32900000Y-94713076D01*
X32792360Y-95254221D01*
X32581215Y-95763969D01*
X32581214Y-95763971D01*
X32274679Y-96222734D01*
X31884534Y-96612879D01*
X31425771Y-96919414D01*
X31425770Y-96919415D01*
X31425769Y-96919415D01*
X30916021Y-97130560D01*
X30374876Y-97238200D01*
X29823124Y-97238200D01*
X29281979Y-97130560D01*
X28772231Y-96919415D01*
X28772230Y-96919415D01*
X28772229Y-96919414D01*
X28313466Y-96612879D01*
X27923321Y-96222734D01*
X27616786Y-95763971D01*
X27616785Y-95763969D01*
X27405640Y-95254221D01*
X27298000Y-94713076D01*
X27298000Y-94161324D01*
X27405640Y-93620179D01*
X27616785Y-93110431D01*
X27616786Y-93110429D01*
X27923321Y-92651666D01*
X28313466Y-92261521D01*
X28772229Y-91954986D01*
X28772231Y-91954985D01*
X29281979Y-91743840D01*
X29823124Y-91636200D01*
X30374876Y-91636200D01*
X30916021Y-91743840D01*
G37*
G36*
X69884728Y-90609164D02*
G01*
X69905809Y-90615560D01*
X69925245Y-90625948D01*
X69942276Y-90639924D01*
X69956252Y-90656955D01*
X69966640Y-90676391D01*
X69973036Y-90697472D01*
X69975800Y-90725540D01*
X69975800Y-91189260D01*
X69973036Y-91217328D01*
X69966640Y-91238409D01*
X69956252Y-91257845D01*
X69942276Y-91274876D01*
X69925245Y-91288852D01*
X69905809Y-91299240D01*
X69884728Y-91305636D01*
X69856660Y-91308400D01*
X68042940Y-91308400D01*
X68014872Y-91305636D01*
X67993791Y-91299240D01*
X67974355Y-91288852D01*
X67957324Y-91274876D01*
X67943348Y-91257845D01*
X67932960Y-91238409D01*
X67926564Y-91217328D01*
X67923800Y-91189260D01*
X67923800Y-90725540D01*
X67926564Y-90697472D01*
X67932960Y-90676391D01*
X67943348Y-90656955D01*
X67957324Y-90639924D01*
X67974355Y-90625948D01*
X67993791Y-90615560D01*
X68014872Y-90609164D01*
X68042940Y-90606400D01*
X69856660Y-90606400D01*
X69884728Y-90609164D01*
G37*
G36*
X74834728Y-90609164D02*
G01*
X74855809Y-90615560D01*
X74875245Y-90625948D01*
X74892276Y-90639924D01*
X74906252Y-90656955D01*
X74916640Y-90676391D01*
X74923036Y-90697472D01*
X74925800Y-90725540D01*
X74925800Y-91189260D01*
X74923036Y-91217328D01*
X74916640Y-91238409D01*
X74906252Y-91257845D01*
X74892276Y-91274876D01*
X74875245Y-91288852D01*
X74855809Y-91299240D01*
X74834728Y-91305636D01*
X74806660Y-91308400D01*
X72992940Y-91308400D01*
X72964872Y-91305636D01*
X72943791Y-91299240D01*
X72924355Y-91288852D01*
X72907324Y-91274876D01*
X72893348Y-91257845D01*
X72882960Y-91238409D01*
X72876564Y-91217328D01*
X72873800Y-91189260D01*
X72873800Y-90725540D01*
X72876564Y-90697472D01*
X72882960Y-90676391D01*
X72893348Y-90656955D01*
X72907324Y-90639924D01*
X72924355Y-90625948D01*
X72943791Y-90615560D01*
X72964872Y-90609164D01*
X72992940Y-90606400D01*
X74806660Y-90606400D01*
X74834728Y-90609164D01*
G37*
G36*
X74834728Y-89339164D02*
G01*
X74855809Y-89345560D01*
X74875245Y-89355948D01*
X74892276Y-89369924D01*
X74906252Y-89386955D01*
X74916640Y-89406391D01*
X74923036Y-89427472D01*
X74925800Y-89455540D01*
X74925800Y-89919260D01*
X74923036Y-89947328D01*
X74916640Y-89968409D01*
X74906252Y-89987845D01*
X74892276Y-90004876D01*
X74875245Y-90018852D01*
X74855809Y-90029240D01*
X74834728Y-90035636D01*
X74806660Y-90038400D01*
X72992940Y-90038400D01*
X72964872Y-90035636D01*
X72943791Y-90029240D01*
X72924355Y-90018852D01*
X72907324Y-90004876D01*
X72893348Y-89987845D01*
X72882960Y-89968409D01*
X72876564Y-89947328D01*
X72873800Y-89919260D01*
X72873800Y-89455540D01*
X72876564Y-89427472D01*
X72882960Y-89406391D01*
X72893348Y-89386955D01*
X72907324Y-89369924D01*
X72924355Y-89355948D01*
X72943791Y-89345560D01*
X72964872Y-89339164D01*
X72992940Y-89336400D01*
X74806660Y-89336400D01*
X74834728Y-89339164D01*
G37*
G36*
X69884728Y-89339164D02*
G01*
X69905809Y-89345560D01*
X69925245Y-89355948D01*
X69942276Y-89369924D01*
X69956252Y-89386955D01*
X69966640Y-89406391D01*
X69973036Y-89427472D01*
X69975800Y-89455540D01*
X69975800Y-89919260D01*
X69973036Y-89947328D01*
X69966640Y-89968409D01*
X69956252Y-89987845D01*
X69942276Y-90004876D01*
X69925245Y-90018852D01*
X69905809Y-90029240D01*
X69884728Y-90035636D01*
X69856660Y-90038400D01*
X68042940Y-90038400D01*
X68014872Y-90035636D01*
X67993791Y-90029240D01*
X67974355Y-90018852D01*
X67957324Y-90004876D01*
X67943348Y-89987845D01*
X67932960Y-89968409D01*
X67926564Y-89947328D01*
X67923800Y-89919260D01*
X67923800Y-89455540D01*
X67926564Y-89427472D01*
X67932960Y-89406391D01*
X67943348Y-89386955D01*
X67957324Y-89369924D01*
X67974355Y-89355948D01*
X67993791Y-89345560D01*
X68014872Y-89339164D01*
X68042940Y-89336400D01*
X69856660Y-89336400D01*
X69884728Y-89339164D01*
G37*
G36*
X69884728Y-88069164D02*
G01*
X69905809Y-88075560D01*
X69925245Y-88085948D01*
X69942276Y-88099924D01*
X69956252Y-88116955D01*
X69966640Y-88136391D01*
X69973036Y-88157472D01*
X69975800Y-88185540D01*
X69975800Y-88649260D01*
X69973036Y-88677328D01*
X69966640Y-88698409D01*
X69956252Y-88717845D01*
X69942276Y-88734876D01*
X69925245Y-88748852D01*
X69905809Y-88759240D01*
X69884728Y-88765636D01*
X69856660Y-88768400D01*
X68042940Y-88768400D01*
X68014872Y-88765636D01*
X67993791Y-88759240D01*
X67974355Y-88748852D01*
X67957324Y-88734876D01*
X67943348Y-88717845D01*
X67932960Y-88698409D01*
X67926564Y-88677328D01*
X67923800Y-88649260D01*
X67923800Y-88185540D01*
X67926564Y-88157472D01*
X67932960Y-88136391D01*
X67943348Y-88116955D01*
X67957324Y-88099924D01*
X67974355Y-88085948D01*
X67993791Y-88075560D01*
X68014872Y-88069164D01*
X68042940Y-88066400D01*
X69856660Y-88066400D01*
X69884728Y-88069164D01*
G37*
G36*
X74834728Y-88069164D02*
G01*
X74855809Y-88075560D01*
X74875245Y-88085948D01*
X74892276Y-88099924D01*
X74906252Y-88116955D01*
X74916640Y-88136391D01*
X74923036Y-88157472D01*
X74925800Y-88185540D01*
X74925800Y-88649260D01*
X74923036Y-88677328D01*
X74916640Y-88698409D01*
X74906252Y-88717845D01*
X74892276Y-88734876D01*
X74875245Y-88748852D01*
X74855809Y-88759240D01*
X74834728Y-88765636D01*
X74806660Y-88768400D01*
X72992940Y-88768400D01*
X72964872Y-88765636D01*
X72943791Y-88759240D01*
X72924355Y-88748852D01*
X72907324Y-88734876D01*
X72893348Y-88717845D01*
X72882960Y-88698409D01*
X72876564Y-88677328D01*
X72873800Y-88649260D01*
X72873800Y-88185540D01*
X72876564Y-88157472D01*
X72882960Y-88136391D01*
X72893348Y-88116955D01*
X72907324Y-88099924D01*
X72924355Y-88085948D01*
X72943791Y-88075560D01*
X72964872Y-88069164D01*
X72992940Y-88066400D01*
X74806660Y-88066400D01*
X74834728Y-88069164D01*
G37*
G36*
X69884728Y-86799164D02*
G01*
X69905809Y-86805560D01*
X69925245Y-86815948D01*
X69942276Y-86829924D01*
X69956252Y-86846955D01*
X69966640Y-86866391D01*
X69973036Y-86887472D01*
X69975800Y-86915540D01*
X69975800Y-87379260D01*
X69973036Y-87407328D01*
X69966640Y-87428409D01*
X69956252Y-87447845D01*
X69942276Y-87464876D01*
X69925245Y-87478852D01*
X69905809Y-87489240D01*
X69884728Y-87495636D01*
X69856660Y-87498400D01*
X68042940Y-87498400D01*
X68014872Y-87495636D01*
X67993791Y-87489240D01*
X67974355Y-87478852D01*
X67957324Y-87464876D01*
X67943348Y-87447845D01*
X67932960Y-87428409D01*
X67926564Y-87407328D01*
X67923800Y-87379260D01*
X67923800Y-86915540D01*
X67926564Y-86887472D01*
X67932960Y-86866391D01*
X67943348Y-86846955D01*
X67957324Y-86829924D01*
X67974355Y-86815948D01*
X67993791Y-86805560D01*
X68014872Y-86799164D01*
X68042940Y-86796400D01*
X69856660Y-86796400D01*
X69884728Y-86799164D01*
G37*
G36*
X74834728Y-86799164D02*
G01*
X74855809Y-86805560D01*
X74875245Y-86815948D01*
X74892276Y-86829924D01*
X74906252Y-86846955D01*
X74916640Y-86866391D01*
X74923036Y-86887472D01*
X74925800Y-86915540D01*
X74925800Y-87379260D01*
X74923036Y-87407328D01*
X74916640Y-87428409D01*
X74906252Y-87447845D01*
X74892276Y-87464876D01*
X74875245Y-87478852D01*
X74855809Y-87489240D01*
X74834728Y-87495636D01*
X74806660Y-87498400D01*
X72992940Y-87498400D01*
X72964872Y-87495636D01*
X72943791Y-87489240D01*
X72924355Y-87478852D01*
X72907324Y-87464876D01*
X72893348Y-87447845D01*
X72882960Y-87428409D01*
X72876564Y-87407328D01*
X72873800Y-87379260D01*
X72873800Y-86915540D01*
X72876564Y-86887472D01*
X72882960Y-86866391D01*
X72893348Y-86846955D01*
X72907324Y-86829924D01*
X72924355Y-86815948D01*
X72943791Y-86805560D01*
X72964872Y-86799164D01*
X72992940Y-86796400D01*
X74806660Y-86796400D01*
X74834728Y-86799164D01*
G37*
G36*
X80685874Y-85892865D02*
G01*
X80723567Y-85904299D01*
X80758303Y-85922866D01*
X80788748Y-85947852D01*
X80813734Y-85978297D01*
X80832301Y-86013033D01*
X80843735Y-86050726D01*
X80848200Y-86096061D01*
X80848200Y-87182739D01*
X80843735Y-87228074D01*
X80832301Y-87265767D01*
X80813734Y-87300503D01*
X80788748Y-87330948D01*
X80758303Y-87355934D01*
X80723567Y-87374501D01*
X80685874Y-87385935D01*
X80640539Y-87390400D01*
X79803861Y-87390400D01*
X79758526Y-87385935D01*
X79720833Y-87374501D01*
X79686097Y-87355934D01*
X79655652Y-87330948D01*
X79630666Y-87300503D01*
X79612099Y-87265767D01*
X79600665Y-87228074D01*
X79596200Y-87182739D01*
X79596200Y-86096061D01*
X79600665Y-86050726D01*
X79612099Y-86013033D01*
X79630666Y-85978297D01*
X79655652Y-85947852D01*
X79686097Y-85922866D01*
X79720833Y-85904299D01*
X79758526Y-85892865D01*
X79803861Y-85888400D01*
X80640539Y-85888400D01*
X80685874Y-85892865D01*
G37*
G36*
X78635874Y-85892865D02*
G01*
X78673567Y-85904299D01*
X78708303Y-85922866D01*
X78738748Y-85947852D01*
X78763734Y-85978297D01*
X78782301Y-86013033D01*
X78793735Y-86050726D01*
X78798200Y-86096061D01*
X78798200Y-87182739D01*
X78793735Y-87228074D01*
X78782301Y-87265767D01*
X78763734Y-87300503D01*
X78738748Y-87330948D01*
X78708303Y-87355934D01*
X78673567Y-87374501D01*
X78635874Y-87385935D01*
X78590539Y-87390400D01*
X77753861Y-87390400D01*
X77708526Y-87385935D01*
X77670833Y-87374501D01*
X77636097Y-87355934D01*
X77605652Y-87330948D01*
X77580666Y-87300503D01*
X77562099Y-87265767D01*
X77550665Y-87228074D01*
X77546200Y-87182739D01*
X77546200Y-86096061D01*
X77550665Y-86050726D01*
X77562099Y-86013033D01*
X77580666Y-85978297D01*
X77605652Y-85947852D01*
X77636097Y-85922866D01*
X77670833Y-85904299D01*
X77708526Y-85892865D01*
X77753861Y-85888400D01*
X78590539Y-85888400D01*
X78635874Y-85892865D01*
G37*
G36*
X74834728Y-85529164D02*
G01*
X74855809Y-85535560D01*
X74875245Y-85545948D01*
X74892276Y-85559924D01*
X74906252Y-85576955D01*
X74916640Y-85596391D01*
X74923036Y-85617472D01*
X74925800Y-85645540D01*
X74925800Y-86109260D01*
X74923036Y-86137328D01*
X74916640Y-86158409D01*
X74906252Y-86177845D01*
X74892276Y-86194876D01*
X74875245Y-86208852D01*
X74855809Y-86219240D01*
X74834728Y-86225636D01*
X74806660Y-86228400D01*
X72992940Y-86228400D01*
X72964872Y-86225636D01*
X72943791Y-86219240D01*
X72924355Y-86208852D01*
X72907324Y-86194876D01*
X72893348Y-86177845D01*
X72882960Y-86158409D01*
X72876564Y-86137328D01*
X72873800Y-86109260D01*
X72873800Y-85645540D01*
X72876564Y-85617472D01*
X72882960Y-85596391D01*
X72893348Y-85576955D01*
X72907324Y-85559924D01*
X72924355Y-85545948D01*
X72943791Y-85535560D01*
X72964872Y-85529164D01*
X72992940Y-85526400D01*
X74806660Y-85526400D01*
X74834728Y-85529164D01*
G37*
G36*
X69884728Y-85529164D02*
G01*
X69905809Y-85535560D01*
X69925245Y-85545948D01*
X69942276Y-85559924D01*
X69956252Y-85576955D01*
X69966640Y-85596391D01*
X69973036Y-85617472D01*
X69975800Y-85645540D01*
X69975800Y-86109260D01*
X69973036Y-86137328D01*
X69966640Y-86158409D01*
X69956252Y-86177845D01*
X69942276Y-86194876D01*
X69925245Y-86208852D01*
X69905809Y-86219240D01*
X69884728Y-86225636D01*
X69856660Y-86228400D01*
X68042940Y-86228400D01*
X68014872Y-86225636D01*
X67993791Y-86219240D01*
X67974355Y-86208852D01*
X67957324Y-86194876D01*
X67943348Y-86177845D01*
X67932960Y-86158409D01*
X67926564Y-86137328D01*
X67923800Y-86109260D01*
X67923800Y-85645540D01*
X67926564Y-85617472D01*
X67932960Y-85596391D01*
X67943348Y-85576955D01*
X67957324Y-85559924D01*
X67974355Y-85545948D01*
X67993791Y-85535560D01*
X68014872Y-85529164D01*
X68042940Y-85526400D01*
X69856660Y-85526400D01*
X69884728Y-85529164D01*
G37*
G36*
X69884728Y-84259164D02*
G01*
X69905809Y-84265560D01*
X69925245Y-84275948D01*
X69942276Y-84289924D01*
X69956252Y-84306955D01*
X69966640Y-84326391D01*
X69973036Y-84347472D01*
X69975800Y-84375540D01*
X69975800Y-84839260D01*
X69973036Y-84867328D01*
X69966640Y-84888409D01*
X69956252Y-84907845D01*
X69942276Y-84924876D01*
X69925245Y-84938852D01*
X69905809Y-84949240D01*
X69884728Y-84955636D01*
X69856660Y-84958400D01*
X68042940Y-84958400D01*
X68014872Y-84955636D01*
X67993791Y-84949240D01*
X67974355Y-84938852D01*
X67957324Y-84924876D01*
X67943348Y-84907845D01*
X67932960Y-84888409D01*
X67926564Y-84867328D01*
X67923800Y-84839260D01*
X67923800Y-84375540D01*
X67926564Y-84347472D01*
X67932960Y-84326391D01*
X67943348Y-84306955D01*
X67957324Y-84289924D01*
X67974355Y-84275948D01*
X67993791Y-84265560D01*
X68014872Y-84259164D01*
X68042940Y-84256400D01*
X69856660Y-84256400D01*
X69884728Y-84259164D01*
G37*
G36*
X74834728Y-84259164D02*
G01*
X74855809Y-84265560D01*
X74875245Y-84275948D01*
X74892276Y-84289924D01*
X74906252Y-84306955D01*
X74916640Y-84326391D01*
X74923036Y-84347472D01*
X74925800Y-84375540D01*
X74925800Y-84839260D01*
X74923036Y-84867328D01*
X74916640Y-84888409D01*
X74906252Y-84907845D01*
X74892276Y-84924876D01*
X74875245Y-84938852D01*
X74855809Y-84949240D01*
X74834728Y-84955636D01*
X74806660Y-84958400D01*
X72992940Y-84958400D01*
X72964872Y-84955636D01*
X72943791Y-84949240D01*
X72924355Y-84938852D01*
X72907324Y-84924876D01*
X72893348Y-84907845D01*
X72882960Y-84888409D01*
X72876564Y-84867328D01*
X72873800Y-84839260D01*
X72873800Y-84375540D01*
X72876564Y-84347472D01*
X72882960Y-84326391D01*
X72893348Y-84306955D01*
X72907324Y-84289924D01*
X72924355Y-84275948D01*
X72943791Y-84265560D01*
X72964872Y-84259164D01*
X72992940Y-84256400D01*
X74806660Y-84256400D01*
X74834728Y-84259164D01*
G37*
G36*
X69884728Y-82989164D02*
G01*
X69905809Y-82995560D01*
X69925245Y-83005948D01*
X69942276Y-83019924D01*
X69956252Y-83036955D01*
X69966640Y-83056391D01*
X69973036Y-83077472D01*
X69975800Y-83105540D01*
X69975800Y-83569260D01*
X69973036Y-83597328D01*
X69966640Y-83618409D01*
X69956252Y-83637845D01*
X69942276Y-83654876D01*
X69925245Y-83668852D01*
X69905809Y-83679240D01*
X69884728Y-83685636D01*
X69856660Y-83688400D01*
X68042940Y-83688400D01*
X68014872Y-83685636D01*
X67993791Y-83679240D01*
X67974355Y-83668852D01*
X67957324Y-83654876D01*
X67943348Y-83637845D01*
X67932960Y-83618409D01*
X67926564Y-83597328D01*
X67923800Y-83569260D01*
X67923800Y-83105540D01*
X67926564Y-83077472D01*
X67932960Y-83056391D01*
X67943348Y-83036955D01*
X67957324Y-83019924D01*
X67974355Y-83005948D01*
X67993791Y-82995560D01*
X68014872Y-82989164D01*
X68042940Y-82986400D01*
X69856660Y-82986400D01*
X69884728Y-82989164D01*
G37*
G36*
X74834728Y-82989164D02*
G01*
X74855809Y-82995560D01*
X74875245Y-83005948D01*
X74892276Y-83019924D01*
X74906252Y-83036955D01*
X74916640Y-83056391D01*
X74923036Y-83077472D01*
X74925800Y-83105540D01*
X74925800Y-83569260D01*
X74923036Y-83597328D01*
X74916640Y-83618409D01*
X74906252Y-83637845D01*
X74892276Y-83654876D01*
X74875245Y-83668852D01*
X74855809Y-83679240D01*
X74834728Y-83685636D01*
X74806660Y-83688400D01*
X72992940Y-83688400D01*
X72964872Y-83685636D01*
X72943791Y-83679240D01*
X72924355Y-83668852D01*
X72907324Y-83654876D01*
X72893348Y-83637845D01*
X72882960Y-83618409D01*
X72876564Y-83597328D01*
X72873800Y-83569260D01*
X72873800Y-83105540D01*
X72876564Y-83077472D01*
X72882960Y-83056391D01*
X72893348Y-83036955D01*
X72907324Y-83019924D01*
X72924355Y-83005948D01*
X72943791Y-82995560D01*
X72964872Y-82989164D01*
X72992940Y-82986400D01*
X74806660Y-82986400D01*
X74834728Y-82989164D01*
G37*
G36*
X78635874Y-81168465D02*
G01*
X78673567Y-81179899D01*
X78708303Y-81198466D01*
X78738748Y-81223452D01*
X78763734Y-81253897D01*
X78782301Y-81288633D01*
X78793735Y-81326326D01*
X78798200Y-81371661D01*
X78798200Y-82458339D01*
X78793735Y-82503674D01*
X78782301Y-82541367D01*
X78763734Y-82576103D01*
X78738748Y-82606548D01*
X78708303Y-82631534D01*
X78673567Y-82650101D01*
X78635874Y-82661535D01*
X78590539Y-82666000D01*
X77753861Y-82666000D01*
X77708526Y-82661535D01*
X77670833Y-82650101D01*
X77636097Y-82631534D01*
X77605652Y-82606548D01*
X77580666Y-82576103D01*
X77562099Y-82541367D01*
X77550665Y-82503674D01*
X77546200Y-82458339D01*
X77546200Y-81371661D01*
X77550665Y-81326326D01*
X77562099Y-81288633D01*
X77580666Y-81253897D01*
X77605652Y-81223452D01*
X77636097Y-81198466D01*
X77670833Y-81179899D01*
X77708526Y-81168465D01*
X77753861Y-81164000D01*
X78590539Y-81164000D01*
X78635874Y-81168465D01*
G37*
G36*
X80685874Y-81168465D02*
G01*
X80723567Y-81179899D01*
X80758303Y-81198466D01*
X80788748Y-81223452D01*
X80813734Y-81253897D01*
X80832301Y-81288633D01*
X80843735Y-81326326D01*
X80848200Y-81371661D01*
X80848200Y-82458339D01*
X80843735Y-82503674D01*
X80832301Y-82541367D01*
X80813734Y-82576103D01*
X80788748Y-82606548D01*
X80758303Y-82631534D01*
X80723567Y-82650101D01*
X80685874Y-82661535D01*
X80640539Y-82666000D01*
X79803861Y-82666000D01*
X79758526Y-82661535D01*
X79720833Y-82650101D01*
X79686097Y-82631534D01*
X79655652Y-82606548D01*
X79630666Y-82576103D01*
X79612099Y-82541367D01*
X79600665Y-82503674D01*
X79596200Y-82458339D01*
X79596200Y-81371661D01*
X79600665Y-81326326D01*
X79612099Y-81288633D01*
X79630666Y-81253897D01*
X79655652Y-81223452D01*
X79686097Y-81198466D01*
X79720833Y-81179899D01*
X79758526Y-81168465D01*
X79803861Y-81164000D01*
X80640539Y-81164000D01*
X80685874Y-81168465D01*
G37*
G36*
X74834728Y-81719164D02*
G01*
X74855809Y-81725560D01*
X74875245Y-81735948D01*
X74892276Y-81749924D01*
X74906252Y-81766955D01*
X74916640Y-81786391D01*
X74923036Y-81807472D01*
X74925800Y-81835540D01*
X74925800Y-82299260D01*
X74923036Y-82327328D01*
X74916640Y-82348409D01*
X74906252Y-82367845D01*
X74892276Y-82384876D01*
X74875245Y-82398852D01*
X74855809Y-82409240D01*
X74834728Y-82415636D01*
X74806660Y-82418400D01*
X72992940Y-82418400D01*
X72964872Y-82415636D01*
X72943791Y-82409240D01*
X72924355Y-82398852D01*
X72907324Y-82384876D01*
X72893348Y-82367845D01*
X72882960Y-82348409D01*
X72876564Y-82327328D01*
X72873800Y-82299260D01*
X72873800Y-81835540D01*
X72876564Y-81807472D01*
X72882960Y-81786391D01*
X72893348Y-81766955D01*
X72907324Y-81749924D01*
X72924355Y-81735948D01*
X72943791Y-81725560D01*
X72964872Y-81719164D01*
X72992940Y-81716400D01*
X74806660Y-81716400D01*
X74834728Y-81719164D01*
G37*
G36*
X69884728Y-81719164D02*
G01*
X69905809Y-81725560D01*
X69925245Y-81735948D01*
X69942276Y-81749924D01*
X69956252Y-81766955D01*
X69966640Y-81786391D01*
X69973036Y-81807472D01*
X69975800Y-81835540D01*
X69975800Y-82299260D01*
X69973036Y-82327328D01*
X69966640Y-82348409D01*
X69956252Y-82367845D01*
X69942276Y-82384876D01*
X69925245Y-82398852D01*
X69905809Y-82409240D01*
X69884728Y-82415636D01*
X69856660Y-82418400D01*
X68042940Y-82418400D01*
X68014872Y-82415636D01*
X67993791Y-82409240D01*
X67974355Y-82398852D01*
X67957324Y-82384876D01*
X67943348Y-82367845D01*
X67932960Y-82348409D01*
X67926564Y-82327328D01*
X67923800Y-82299260D01*
X67923800Y-81835540D01*
X67926564Y-81807472D01*
X67932960Y-81786391D01*
X67943348Y-81766955D01*
X67957324Y-81749924D01*
X67974355Y-81735948D01*
X67993791Y-81725560D01*
X68014872Y-81719164D01*
X68042940Y-81716400D01*
X69856660Y-81716400D01*
X69884728Y-81719164D01*
G37*
G36*
X70634874Y-76520265D02*
G01*
X70672567Y-76531699D01*
X70707303Y-76550266D01*
X70737748Y-76575252D01*
X70762734Y-76605697D01*
X70781301Y-76640433D01*
X70792735Y-76678126D01*
X70797200Y-76723461D01*
X70797200Y-77810139D01*
X70792735Y-77855474D01*
X70781301Y-77893167D01*
X70762734Y-77927903D01*
X70737748Y-77958348D01*
X70707303Y-77983334D01*
X70672567Y-78001901D01*
X70634874Y-78013335D01*
X70589539Y-78017800D01*
X69752861Y-78017800D01*
X69707526Y-78013335D01*
X69669833Y-78001901D01*
X69635097Y-77983334D01*
X69604652Y-77958348D01*
X69579666Y-77927903D01*
X69561099Y-77893167D01*
X69549665Y-77855474D01*
X69545200Y-77810139D01*
X69545200Y-76723461D01*
X69549665Y-76678126D01*
X69561099Y-76640433D01*
X69579666Y-76605697D01*
X69604652Y-76575252D01*
X69635097Y-76550266D01*
X69669833Y-76531699D01*
X69707526Y-76520265D01*
X69752861Y-76515800D01*
X70589539Y-76515800D01*
X70634874Y-76520265D01*
G37*
G36*
X72684874Y-76520265D02*
G01*
X72722567Y-76531699D01*
X72757303Y-76550266D01*
X72787748Y-76575252D01*
X72812734Y-76605697D01*
X72831301Y-76640433D01*
X72842735Y-76678126D01*
X72847200Y-76723461D01*
X72847200Y-77810139D01*
X72842735Y-77855474D01*
X72831301Y-77893167D01*
X72812734Y-77927903D01*
X72787748Y-77958348D01*
X72757303Y-77983334D01*
X72722567Y-78001901D01*
X72684874Y-78013335D01*
X72639539Y-78017800D01*
X71802861Y-78017800D01*
X71757526Y-78013335D01*
X71719833Y-78001901D01*
X71685097Y-77983334D01*
X71654652Y-77958348D01*
X71629666Y-77927903D01*
X71611099Y-77893167D01*
X71599665Y-77855474D01*
X71595200Y-77810139D01*
X71595200Y-76723461D01*
X71599665Y-76678126D01*
X71611099Y-76640433D01*
X71629666Y-76605697D01*
X71654652Y-76575252D01*
X71685097Y-76550266D01*
X71719833Y-76531699D01*
X71757526Y-76520265D01*
X71802861Y-76515800D01*
X72639539Y-76515800D01*
X72684874Y-76520265D01*
G37*
G36*
X63624474Y-76469465D02*
G01*
X63662167Y-76480899D01*
X63696903Y-76499466D01*
X63727348Y-76524452D01*
X63752334Y-76554897D01*
X63770901Y-76589633D01*
X63782335Y-76627326D01*
X63786800Y-76672661D01*
X63786800Y-77759339D01*
X63782335Y-77804674D01*
X63770901Y-77842367D01*
X63752334Y-77877103D01*
X63727348Y-77907548D01*
X63696903Y-77932534D01*
X63662167Y-77951101D01*
X63624474Y-77962535D01*
X63579139Y-77967000D01*
X62742461Y-77967000D01*
X62697126Y-77962535D01*
X62659433Y-77951101D01*
X62624697Y-77932534D01*
X62594252Y-77907548D01*
X62569266Y-77877103D01*
X62550699Y-77842367D01*
X62539265Y-77804674D01*
X62534800Y-77759339D01*
X62534800Y-76672661D01*
X62539265Y-76627326D01*
X62550699Y-76589633D01*
X62569266Y-76554897D01*
X62594252Y-76524452D01*
X62624697Y-76499466D01*
X62659433Y-76480899D01*
X62697126Y-76469465D01*
X62742461Y-76465000D01*
X63579139Y-76465000D01*
X63624474Y-76469465D01*
G37*
G36*
X65674474Y-76469465D02*
G01*
X65712167Y-76480899D01*
X65746903Y-76499466D01*
X65777348Y-76524452D01*
X65802334Y-76554897D01*
X65820901Y-76589633D01*
X65832335Y-76627326D01*
X65836800Y-76672661D01*
X65836800Y-77759339D01*
X65832335Y-77804674D01*
X65820901Y-77842367D01*
X65802334Y-77877103D01*
X65777348Y-77907548D01*
X65746903Y-77932534D01*
X65712167Y-77951101D01*
X65674474Y-77962535D01*
X65629139Y-77967000D01*
X64792461Y-77967000D01*
X64747126Y-77962535D01*
X64709433Y-77951101D01*
X64674697Y-77932534D01*
X64644252Y-77907548D01*
X64619266Y-77877103D01*
X64600699Y-77842367D01*
X64589265Y-77804674D01*
X64584800Y-77759339D01*
X64584800Y-76672661D01*
X64589265Y-76627326D01*
X64600699Y-76589633D01*
X64619266Y-76554897D01*
X64644252Y-76524452D01*
X64674697Y-76499466D01*
X64709433Y-76480899D01*
X64747126Y-76469465D01*
X64792461Y-76465000D01*
X65629139Y-76465000D01*
X65674474Y-76469465D01*
G37*
G36*
X80685874Y-76393265D02*
G01*
X80723567Y-76404699D01*
X80758303Y-76423266D01*
X80788748Y-76448252D01*
X80813734Y-76478697D01*
X80832301Y-76513433D01*
X80843735Y-76551126D01*
X80848200Y-76596461D01*
X80848200Y-77683139D01*
X80843735Y-77728474D01*
X80832301Y-77766167D01*
X80813734Y-77800903D01*
X80788748Y-77831348D01*
X80758303Y-77856334D01*
X80723567Y-77874901D01*
X80685874Y-77886335D01*
X80640539Y-77890800D01*
X79803861Y-77890800D01*
X79758526Y-77886335D01*
X79720833Y-77874901D01*
X79686097Y-77856334D01*
X79655652Y-77831348D01*
X79630666Y-77800903D01*
X79612099Y-77766167D01*
X79600665Y-77728474D01*
X79596200Y-77683139D01*
X79596200Y-76596461D01*
X79600665Y-76551126D01*
X79612099Y-76513433D01*
X79630666Y-76478697D01*
X79655652Y-76448252D01*
X79686097Y-76423266D01*
X79720833Y-76404699D01*
X79758526Y-76393265D01*
X79803861Y-76388800D01*
X80640539Y-76388800D01*
X80685874Y-76393265D01*
G37*
G36*
X78635874Y-76393265D02*
G01*
X78673567Y-76404699D01*
X78708303Y-76423266D01*
X78738748Y-76448252D01*
X78763734Y-76478697D01*
X78782301Y-76513433D01*
X78793735Y-76551126D01*
X78798200Y-76596461D01*
X78798200Y-77683139D01*
X78793735Y-77728474D01*
X78782301Y-77766167D01*
X78763734Y-77800903D01*
X78738748Y-77831348D01*
X78708303Y-77856334D01*
X78673567Y-77874901D01*
X78635874Y-77886335D01*
X78590539Y-77890800D01*
X77753861Y-77890800D01*
X77708526Y-77886335D01*
X77670833Y-77874901D01*
X77636097Y-77856334D01*
X77605652Y-77831348D01*
X77580666Y-77800903D01*
X77562099Y-77766167D01*
X77550665Y-77728474D01*
X77546200Y-77683139D01*
X77546200Y-76596461D01*
X77550665Y-76551126D01*
X77562099Y-76513433D01*
X77580666Y-76478697D01*
X77605652Y-76448252D01*
X77636097Y-76423266D01*
X77670833Y-76404699D01*
X77708526Y-76393265D01*
X77753861Y-76388800D01*
X78590539Y-76388800D01*
X78635874Y-76393265D01*
G37*
G36*
X88955021Y-68756840D02*
G01*
X89464769Y-68967985D01*
X89464771Y-68967986D01*
X89923534Y-69274521D01*
X90313679Y-69664666D01*
X90620214Y-70123429D01*
X90620215Y-70123431D01*
X90831360Y-70633179D01*
X90939000Y-71174324D01*
X90939000Y-71726076D01*
X90831360Y-72267221D01*
X90757850Y-72444689D01*
X90620214Y-72776971D01*
X90313679Y-73235734D01*
X89923534Y-73625879D01*
X89464771Y-73932414D01*
X89464770Y-73932415D01*
X89464769Y-73932415D01*
X88955021Y-74143560D01*
X88413876Y-74251200D01*
X87862124Y-74251200D01*
X87320979Y-74143560D01*
X86811231Y-73932415D01*
X86811230Y-73932415D01*
X86811229Y-73932414D01*
X86352466Y-73625879D01*
X85962321Y-73235734D01*
X85655786Y-72776971D01*
X85518150Y-72444689D01*
X85444640Y-72267221D01*
X85337000Y-71726076D01*
X85337000Y-71174324D01*
X85444640Y-70633179D01*
X85655785Y-70123431D01*
X85655786Y-70123429D01*
X85962321Y-69664666D01*
X86352466Y-69274521D01*
X86811229Y-68967986D01*
X86811231Y-68967985D01*
X87320979Y-68756840D01*
X87862124Y-68649200D01*
X88413876Y-68649200D01*
X88955021Y-68756840D01*
G37*
G36*
X30916021Y-68731440D02*
G01*
X31425769Y-68942585D01*
X31425771Y-68942586D01*
X31884534Y-69249121D01*
X32274679Y-69639266D01*
X32568338Y-70078759D01*
X32581215Y-70098031D01*
X32792360Y-70607779D01*
X32900000Y-71148924D01*
X32900000Y-71700676D01*
X32792360Y-72241821D01*
X32708329Y-72444689D01*
X32581214Y-72751571D01*
X32274679Y-73210334D01*
X31884534Y-73600479D01*
X31425771Y-73907014D01*
X31425770Y-73907015D01*
X31425769Y-73907015D01*
X30916021Y-74118160D01*
X30374876Y-74225800D01*
X29823124Y-74225800D01*
X29281979Y-74118160D01*
X28772231Y-73907015D01*
X28772230Y-73907015D01*
X28772229Y-73907014D01*
X28313466Y-73600479D01*
X27923321Y-73210334D01*
X27616786Y-72751571D01*
X27489671Y-72444689D01*
X27405640Y-72241821D01*
X27298000Y-71700676D01*
X27298000Y-71148924D01*
X27405640Y-70607779D01*
X27616785Y-70098031D01*
X27629662Y-70078759D01*
X27923321Y-69639266D01*
X28313466Y-69249121D01*
X28772229Y-68942586D01*
X28772231Y-68942585D01*
X29281979Y-68731440D01*
X29823124Y-68623800D01*
X30374876Y-68623800D01*
X30916021Y-68731440D01*
G37*
G36*
X35102012Y-71811427D02*
G01*
X35251312Y-71841124D01*
X35415284Y-71909044D01*
X35562854Y-72007647D01*
X35688353Y-72133146D01*
X35786956Y-72280716D01*
X35854876Y-72444688D01*
X35889500Y-72618759D01*
X35889500Y-72796241D01*
X35854876Y-72970312D01*
X35786956Y-73134284D01*
X35688353Y-73281854D01*
X35562854Y-73407353D01*
X35415284Y-73505956D01*
X35251312Y-73573876D01*
X35117566Y-73600479D01*
X35077242Y-73608500D01*
X34899758Y-73608500D01*
X34859434Y-73600479D01*
X34725688Y-73573876D01*
X34561716Y-73505956D01*
X34414146Y-73407353D01*
X34288647Y-73281854D01*
X34190044Y-73134284D01*
X34122124Y-72970312D01*
X34087500Y-72796241D01*
X34087500Y-72618759D01*
X34122124Y-72444688D01*
X34190044Y-72280716D01*
X34288647Y-72133146D01*
X34414146Y-72007647D01*
X34561716Y-71909044D01*
X34725688Y-71841124D01*
X34874988Y-71811427D01*
X34899758Y-71806500D01*
X35077242Y-71806500D01*
X35102012Y-71811427D01*
G37*
G36*
X83362012Y-71811427D02*
G01*
X83511312Y-71841124D01*
X83675284Y-71909044D01*
X83822854Y-72007647D01*
X83948353Y-72133146D01*
X84046956Y-72280716D01*
X84114876Y-72444688D01*
X84149500Y-72618759D01*
X84149500Y-72796241D01*
X84114876Y-72970312D01*
X84046956Y-73134284D01*
X83948353Y-73281854D01*
X83822854Y-73407353D01*
X83675284Y-73505956D01*
X83511312Y-73573876D01*
X83377566Y-73600479D01*
X83337242Y-73608500D01*
X83159758Y-73608500D01*
X83119434Y-73600479D01*
X82985688Y-73573876D01*
X82821716Y-73505956D01*
X82674146Y-73407353D01*
X82548647Y-73281854D01*
X82450044Y-73134284D01*
X82382124Y-72970312D01*
X82347500Y-72796241D01*
X82347500Y-72618759D01*
X82382124Y-72444688D01*
X82450044Y-72280716D01*
X82548647Y-72133146D01*
X82674146Y-72007647D01*
X82821716Y-71909044D01*
X82985688Y-71841124D01*
X83134988Y-71811427D01*
X83159758Y-71806500D01*
X83337242Y-71806500D01*
X83362012Y-71811427D01*
G37*
G36*
X80822012Y-71811427D02*
G01*
X80971312Y-71841124D01*
X81135284Y-71909044D01*
X81282854Y-72007647D01*
X81408353Y-72133146D01*
X81506956Y-72280716D01*
X81574876Y-72444688D01*
X81609500Y-72618759D01*
X81609500Y-72796241D01*
X81574876Y-72970312D01*
X81506956Y-73134284D01*
X81408353Y-73281854D01*
X81282854Y-73407353D01*
X81135284Y-73505956D01*
X80971312Y-73573876D01*
X80837566Y-73600479D01*
X80797242Y-73608500D01*
X80619758Y-73608500D01*
X80579434Y-73600479D01*
X80445688Y-73573876D01*
X80281716Y-73505956D01*
X80134146Y-73407353D01*
X80008647Y-73281854D01*
X79910044Y-73134284D01*
X79842124Y-72970312D01*
X79807500Y-72796241D01*
X79807500Y-72618759D01*
X79842124Y-72444688D01*
X79910044Y-72280716D01*
X80008647Y-72133146D01*
X80134146Y-72007647D01*
X80281716Y-71909044D01*
X80445688Y-71841124D01*
X80594988Y-71811427D01*
X80619758Y-71806500D01*
X80797242Y-71806500D01*
X80822012Y-71811427D01*
G37*
G36*
X78282012Y-71811427D02*
G01*
X78431312Y-71841124D01*
X78595284Y-71909044D01*
X78742854Y-72007647D01*
X78868353Y-72133146D01*
X78966956Y-72280716D01*
X79034876Y-72444688D01*
X79069500Y-72618759D01*
X79069500Y-72796241D01*
X79034876Y-72970312D01*
X78966956Y-73134284D01*
X78868353Y-73281854D01*
X78742854Y-73407353D01*
X78595284Y-73505956D01*
X78431312Y-73573876D01*
X78297566Y-73600479D01*
X78257242Y-73608500D01*
X78079758Y-73608500D01*
X78039434Y-73600479D01*
X77905688Y-73573876D01*
X77741716Y-73505956D01*
X77594146Y-73407353D01*
X77468647Y-73281854D01*
X77370044Y-73134284D01*
X77302124Y-72970312D01*
X77267500Y-72796241D01*
X77267500Y-72618759D01*
X77302124Y-72444688D01*
X77370044Y-72280716D01*
X77468647Y-72133146D01*
X77594146Y-72007647D01*
X77741716Y-71909044D01*
X77905688Y-71841124D01*
X78054988Y-71811427D01*
X78079758Y-71806500D01*
X78257242Y-71806500D01*
X78282012Y-71811427D01*
G37*
G36*
X75742012Y-71811427D02*
G01*
X75891312Y-71841124D01*
X76055284Y-71909044D01*
X76202854Y-72007647D01*
X76328353Y-72133146D01*
X76426956Y-72280716D01*
X76494876Y-72444688D01*
X76529500Y-72618759D01*
X76529500Y-72796241D01*
X76494876Y-72970312D01*
X76426956Y-73134284D01*
X76328353Y-73281854D01*
X76202854Y-73407353D01*
X76055284Y-73505956D01*
X75891312Y-73573876D01*
X75757566Y-73600479D01*
X75717242Y-73608500D01*
X75539758Y-73608500D01*
X75499434Y-73600479D01*
X75365688Y-73573876D01*
X75201716Y-73505956D01*
X75054146Y-73407353D01*
X74928647Y-73281854D01*
X74830044Y-73134284D01*
X74762124Y-72970312D01*
X74727500Y-72796241D01*
X74727500Y-72618759D01*
X74762124Y-72444688D01*
X74830044Y-72280716D01*
X74928647Y-72133146D01*
X75054146Y-72007647D01*
X75201716Y-71909044D01*
X75365688Y-71841124D01*
X75514988Y-71811427D01*
X75539758Y-71806500D01*
X75717242Y-71806500D01*
X75742012Y-71811427D01*
G37*
G36*
X73202012Y-71811427D02*
G01*
X73351312Y-71841124D01*
X73515284Y-71909044D01*
X73662854Y-72007647D01*
X73788353Y-72133146D01*
X73886956Y-72280716D01*
X73954876Y-72444688D01*
X73989500Y-72618759D01*
X73989500Y-72796241D01*
X73954876Y-72970312D01*
X73886956Y-73134284D01*
X73788353Y-73281854D01*
X73662854Y-73407353D01*
X73515284Y-73505956D01*
X73351312Y-73573876D01*
X73217566Y-73600479D01*
X73177242Y-73608500D01*
X72999758Y-73608500D01*
X72959434Y-73600479D01*
X72825688Y-73573876D01*
X72661716Y-73505956D01*
X72514146Y-73407353D01*
X72388647Y-73281854D01*
X72290044Y-73134284D01*
X72222124Y-72970312D01*
X72187500Y-72796241D01*
X72187500Y-72618759D01*
X72222124Y-72444688D01*
X72290044Y-72280716D01*
X72388647Y-72133146D01*
X72514146Y-72007647D01*
X72661716Y-71909044D01*
X72825688Y-71841124D01*
X72974988Y-71811427D01*
X72999758Y-71806500D01*
X73177242Y-71806500D01*
X73202012Y-71811427D01*
G37*
G36*
X70662012Y-71811427D02*
G01*
X70811312Y-71841124D01*
X70975284Y-71909044D01*
X71122854Y-72007647D01*
X71248353Y-72133146D01*
X71346956Y-72280716D01*
X71414876Y-72444688D01*
X71449500Y-72618759D01*
X71449500Y-72796241D01*
X71414876Y-72970312D01*
X71346956Y-73134284D01*
X71248353Y-73281854D01*
X71122854Y-73407353D01*
X70975284Y-73505956D01*
X70811312Y-73573876D01*
X70677566Y-73600479D01*
X70637242Y-73608500D01*
X70459758Y-73608500D01*
X70419434Y-73600479D01*
X70285688Y-73573876D01*
X70121716Y-73505956D01*
X69974146Y-73407353D01*
X69848647Y-73281854D01*
X69750044Y-73134284D01*
X69682124Y-72970312D01*
X69647500Y-72796241D01*
X69647500Y-72618759D01*
X69682124Y-72444688D01*
X69750044Y-72280716D01*
X69848647Y-72133146D01*
X69974146Y-72007647D01*
X70121716Y-71909044D01*
X70285688Y-71841124D01*
X70434988Y-71811427D01*
X70459758Y-71806500D01*
X70637242Y-71806500D01*
X70662012Y-71811427D01*
G37*
G36*
X68122012Y-71811427D02*
G01*
X68271312Y-71841124D01*
X68435284Y-71909044D01*
X68582854Y-72007647D01*
X68708353Y-72133146D01*
X68806956Y-72280716D01*
X68874876Y-72444688D01*
X68909500Y-72618759D01*
X68909500Y-72796241D01*
X68874876Y-72970312D01*
X68806956Y-73134284D01*
X68708353Y-73281854D01*
X68582854Y-73407353D01*
X68435284Y-73505956D01*
X68271312Y-73573876D01*
X68137566Y-73600479D01*
X68097242Y-73608500D01*
X67919758Y-73608500D01*
X67879434Y-73600479D01*
X67745688Y-73573876D01*
X67581716Y-73505956D01*
X67434146Y-73407353D01*
X67308647Y-73281854D01*
X67210044Y-73134284D01*
X67142124Y-72970312D01*
X67107500Y-72796241D01*
X67107500Y-72618759D01*
X67142124Y-72444688D01*
X67210044Y-72280716D01*
X67308647Y-72133146D01*
X67434146Y-72007647D01*
X67581716Y-71909044D01*
X67745688Y-71841124D01*
X67894988Y-71811427D01*
X67919758Y-71806500D01*
X68097242Y-71806500D01*
X68122012Y-71811427D01*
G37*
G36*
X65582012Y-71811427D02*
G01*
X65731312Y-71841124D01*
X65895284Y-71909044D01*
X66042854Y-72007647D01*
X66168353Y-72133146D01*
X66266956Y-72280716D01*
X66334876Y-72444688D01*
X66369500Y-72618759D01*
X66369500Y-72796241D01*
X66334876Y-72970312D01*
X66266956Y-73134284D01*
X66168353Y-73281854D01*
X66042854Y-73407353D01*
X65895284Y-73505956D01*
X65731312Y-73573876D01*
X65597566Y-73600479D01*
X65557242Y-73608500D01*
X65379758Y-73608500D01*
X65339434Y-73600479D01*
X65205688Y-73573876D01*
X65041716Y-73505956D01*
X64894146Y-73407353D01*
X64768647Y-73281854D01*
X64670044Y-73134284D01*
X64602124Y-72970312D01*
X64567500Y-72796241D01*
X64567500Y-72618759D01*
X64602124Y-72444688D01*
X64670044Y-72280716D01*
X64768647Y-72133146D01*
X64894146Y-72007647D01*
X65041716Y-71909044D01*
X65205688Y-71841124D01*
X65354988Y-71811427D01*
X65379758Y-71806500D01*
X65557242Y-71806500D01*
X65582012Y-71811427D01*
G37*
G36*
X63042012Y-71811427D02*
G01*
X63191312Y-71841124D01*
X63355284Y-71909044D01*
X63502854Y-72007647D01*
X63628353Y-72133146D01*
X63726956Y-72280716D01*
X63794876Y-72444688D01*
X63829500Y-72618759D01*
X63829500Y-72796241D01*
X63794876Y-72970312D01*
X63726956Y-73134284D01*
X63628353Y-73281854D01*
X63502854Y-73407353D01*
X63355284Y-73505956D01*
X63191312Y-73573876D01*
X63057566Y-73600479D01*
X63017242Y-73608500D01*
X62839758Y-73608500D01*
X62799434Y-73600479D01*
X62665688Y-73573876D01*
X62501716Y-73505956D01*
X62354146Y-73407353D01*
X62228647Y-73281854D01*
X62130044Y-73134284D01*
X62062124Y-72970312D01*
X62027500Y-72796241D01*
X62027500Y-72618759D01*
X62062124Y-72444688D01*
X62130044Y-72280716D01*
X62228647Y-72133146D01*
X62354146Y-72007647D01*
X62501716Y-71909044D01*
X62665688Y-71841124D01*
X62814988Y-71811427D01*
X62839758Y-71806500D01*
X63017242Y-71806500D01*
X63042012Y-71811427D01*
G37*
G36*
X60502012Y-71811427D02*
G01*
X60651312Y-71841124D01*
X60815284Y-71909044D01*
X60962854Y-72007647D01*
X61088353Y-72133146D01*
X61186956Y-72280716D01*
X61254876Y-72444688D01*
X61289500Y-72618759D01*
X61289500Y-72796241D01*
X61254876Y-72970312D01*
X61186956Y-73134284D01*
X61088353Y-73281854D01*
X60962854Y-73407353D01*
X60815284Y-73505956D01*
X60651312Y-73573876D01*
X60517566Y-73600479D01*
X60477242Y-73608500D01*
X60299758Y-73608500D01*
X60259434Y-73600479D01*
X60125688Y-73573876D01*
X59961716Y-73505956D01*
X59814146Y-73407353D01*
X59688647Y-73281854D01*
X59590044Y-73134284D01*
X59522124Y-72970312D01*
X59487500Y-72796241D01*
X59487500Y-72618759D01*
X59522124Y-72444688D01*
X59590044Y-72280716D01*
X59688647Y-72133146D01*
X59814146Y-72007647D01*
X59961716Y-71909044D01*
X60125688Y-71841124D01*
X60274988Y-71811427D01*
X60299758Y-71806500D01*
X60477242Y-71806500D01*
X60502012Y-71811427D01*
G37*
G36*
X57962012Y-71811427D02*
G01*
X58111312Y-71841124D01*
X58275284Y-71909044D01*
X58422854Y-72007647D01*
X58548353Y-72133146D01*
X58646956Y-72280716D01*
X58714876Y-72444688D01*
X58749500Y-72618759D01*
X58749500Y-72796241D01*
X58714876Y-72970312D01*
X58646956Y-73134284D01*
X58548353Y-73281854D01*
X58422854Y-73407353D01*
X58275284Y-73505956D01*
X58111312Y-73573876D01*
X57977566Y-73600479D01*
X57937242Y-73608500D01*
X57759758Y-73608500D01*
X57719434Y-73600479D01*
X57585688Y-73573876D01*
X57421716Y-73505956D01*
X57274146Y-73407353D01*
X57148647Y-73281854D01*
X57050044Y-73134284D01*
X56982124Y-72970312D01*
X56947500Y-72796241D01*
X56947500Y-72618759D01*
X56982124Y-72444688D01*
X57050044Y-72280716D01*
X57148647Y-72133146D01*
X57274146Y-72007647D01*
X57421716Y-71909044D01*
X57585688Y-71841124D01*
X57734988Y-71811427D01*
X57759758Y-71806500D01*
X57937242Y-71806500D01*
X57962012Y-71811427D01*
G37*
G36*
X55422012Y-71811427D02*
G01*
X55571312Y-71841124D01*
X55735284Y-71909044D01*
X55882854Y-72007647D01*
X56008353Y-72133146D01*
X56106956Y-72280716D01*
X56174876Y-72444688D01*
X56209500Y-72618759D01*
X56209500Y-72796241D01*
X56174876Y-72970312D01*
X56106956Y-73134284D01*
X56008353Y-73281854D01*
X55882854Y-73407353D01*
X55735284Y-73505956D01*
X55571312Y-73573876D01*
X55437566Y-73600479D01*
X55397242Y-73608500D01*
X55219758Y-73608500D01*
X55179434Y-73600479D01*
X55045688Y-73573876D01*
X54881716Y-73505956D01*
X54734146Y-73407353D01*
X54608647Y-73281854D01*
X54510044Y-73134284D01*
X54442124Y-72970312D01*
X54407500Y-72796241D01*
X54407500Y-72618759D01*
X54442124Y-72444688D01*
X54510044Y-72280716D01*
X54608647Y-72133146D01*
X54734146Y-72007647D01*
X54881716Y-71909044D01*
X55045688Y-71841124D01*
X55194988Y-71811427D01*
X55219758Y-71806500D01*
X55397242Y-71806500D01*
X55422012Y-71811427D01*
G37*
G36*
X52882012Y-71811427D02*
G01*
X53031312Y-71841124D01*
X53195284Y-71909044D01*
X53342854Y-72007647D01*
X53468353Y-72133146D01*
X53566956Y-72280716D01*
X53634876Y-72444688D01*
X53669500Y-72618759D01*
X53669500Y-72796241D01*
X53634876Y-72970312D01*
X53566956Y-73134284D01*
X53468353Y-73281854D01*
X53342854Y-73407353D01*
X53195284Y-73505956D01*
X53031312Y-73573876D01*
X52897566Y-73600479D01*
X52857242Y-73608500D01*
X52679758Y-73608500D01*
X52639434Y-73600479D01*
X52505688Y-73573876D01*
X52341716Y-73505956D01*
X52194146Y-73407353D01*
X52068647Y-73281854D01*
X51970044Y-73134284D01*
X51902124Y-72970312D01*
X51867500Y-72796241D01*
X51867500Y-72618759D01*
X51902124Y-72444688D01*
X51970044Y-72280716D01*
X52068647Y-72133146D01*
X52194146Y-72007647D01*
X52341716Y-71909044D01*
X52505688Y-71841124D01*
X52654988Y-71811427D01*
X52679758Y-71806500D01*
X52857242Y-71806500D01*
X52882012Y-71811427D01*
G37*
G36*
X50342012Y-71811427D02*
G01*
X50491312Y-71841124D01*
X50655284Y-71909044D01*
X50802854Y-72007647D01*
X50928353Y-72133146D01*
X51026956Y-72280716D01*
X51094876Y-72444688D01*
X51129500Y-72618759D01*
X51129500Y-72796241D01*
X51094876Y-72970312D01*
X51026956Y-73134284D01*
X50928353Y-73281854D01*
X50802854Y-73407353D01*
X50655284Y-73505956D01*
X50491312Y-73573876D01*
X50357566Y-73600479D01*
X50317242Y-73608500D01*
X50139758Y-73608500D01*
X50099434Y-73600479D01*
X49965688Y-73573876D01*
X49801716Y-73505956D01*
X49654146Y-73407353D01*
X49528647Y-73281854D01*
X49430044Y-73134284D01*
X49362124Y-72970312D01*
X49327500Y-72796241D01*
X49327500Y-72618759D01*
X49362124Y-72444688D01*
X49430044Y-72280716D01*
X49528647Y-72133146D01*
X49654146Y-72007647D01*
X49801716Y-71909044D01*
X49965688Y-71841124D01*
X50114988Y-71811427D01*
X50139758Y-71806500D01*
X50317242Y-71806500D01*
X50342012Y-71811427D01*
G37*
G36*
X47802012Y-71811427D02*
G01*
X47951312Y-71841124D01*
X48115284Y-71909044D01*
X48262854Y-72007647D01*
X48388353Y-72133146D01*
X48486956Y-72280716D01*
X48554876Y-72444688D01*
X48589500Y-72618759D01*
X48589500Y-72796241D01*
X48554876Y-72970312D01*
X48486956Y-73134284D01*
X48388353Y-73281854D01*
X48262854Y-73407353D01*
X48115284Y-73505956D01*
X47951312Y-73573876D01*
X47817566Y-73600479D01*
X47777242Y-73608500D01*
X47599758Y-73608500D01*
X47559434Y-73600479D01*
X47425688Y-73573876D01*
X47261716Y-73505956D01*
X47114146Y-73407353D01*
X46988647Y-73281854D01*
X46890044Y-73134284D01*
X46822124Y-72970312D01*
X46787500Y-72796241D01*
X46787500Y-72618759D01*
X46822124Y-72444688D01*
X46890044Y-72280716D01*
X46988647Y-72133146D01*
X47114146Y-72007647D01*
X47261716Y-71909044D01*
X47425688Y-71841124D01*
X47574988Y-71811427D01*
X47599758Y-71806500D01*
X47777242Y-71806500D01*
X47802012Y-71811427D01*
G37*
G36*
X45262012Y-71811427D02*
G01*
X45411312Y-71841124D01*
X45575284Y-71909044D01*
X45722854Y-72007647D01*
X45848353Y-72133146D01*
X45946956Y-72280716D01*
X46014876Y-72444688D01*
X46049500Y-72618759D01*
X46049500Y-72796241D01*
X46014876Y-72970312D01*
X45946956Y-73134284D01*
X45848353Y-73281854D01*
X45722854Y-73407353D01*
X45575284Y-73505956D01*
X45411312Y-73573876D01*
X45277566Y-73600479D01*
X45237242Y-73608500D01*
X45059758Y-73608500D01*
X45019434Y-73600479D01*
X44885688Y-73573876D01*
X44721716Y-73505956D01*
X44574146Y-73407353D01*
X44448647Y-73281854D01*
X44350044Y-73134284D01*
X44282124Y-72970312D01*
X44247500Y-72796241D01*
X44247500Y-72618759D01*
X44282124Y-72444688D01*
X44350044Y-72280716D01*
X44448647Y-72133146D01*
X44574146Y-72007647D01*
X44721716Y-71909044D01*
X44885688Y-71841124D01*
X45034988Y-71811427D01*
X45059758Y-71806500D01*
X45237242Y-71806500D01*
X45262012Y-71811427D01*
G37*
G36*
X42722012Y-71811427D02*
G01*
X42871312Y-71841124D01*
X43035284Y-71909044D01*
X43182854Y-72007647D01*
X43308353Y-72133146D01*
X43406956Y-72280716D01*
X43474876Y-72444688D01*
X43509500Y-72618759D01*
X43509500Y-72796241D01*
X43474876Y-72970312D01*
X43406956Y-73134284D01*
X43308353Y-73281854D01*
X43182854Y-73407353D01*
X43035284Y-73505956D01*
X42871312Y-73573876D01*
X42737566Y-73600479D01*
X42697242Y-73608500D01*
X42519758Y-73608500D01*
X42479434Y-73600479D01*
X42345688Y-73573876D01*
X42181716Y-73505956D01*
X42034146Y-73407353D01*
X41908647Y-73281854D01*
X41810044Y-73134284D01*
X41742124Y-72970312D01*
X41707500Y-72796241D01*
X41707500Y-72618759D01*
X41742124Y-72444688D01*
X41810044Y-72280716D01*
X41908647Y-72133146D01*
X42034146Y-72007647D01*
X42181716Y-71909044D01*
X42345688Y-71841124D01*
X42494988Y-71811427D01*
X42519758Y-71806500D01*
X42697242Y-71806500D01*
X42722012Y-71811427D01*
G37*
G36*
X40182012Y-71811427D02*
G01*
X40331312Y-71841124D01*
X40495284Y-71909044D01*
X40642854Y-72007647D01*
X40768353Y-72133146D01*
X40866956Y-72280716D01*
X40934876Y-72444688D01*
X40969500Y-72618759D01*
X40969500Y-72796241D01*
X40934876Y-72970312D01*
X40866956Y-73134284D01*
X40768353Y-73281854D01*
X40642854Y-73407353D01*
X40495284Y-73505956D01*
X40331312Y-73573876D01*
X40197566Y-73600479D01*
X40157242Y-73608500D01*
X39979758Y-73608500D01*
X39939434Y-73600479D01*
X39805688Y-73573876D01*
X39641716Y-73505956D01*
X39494146Y-73407353D01*
X39368647Y-73281854D01*
X39270044Y-73134284D01*
X39202124Y-72970312D01*
X39167500Y-72796241D01*
X39167500Y-72618759D01*
X39202124Y-72444688D01*
X39270044Y-72280716D01*
X39368647Y-72133146D01*
X39494146Y-72007647D01*
X39641716Y-71909044D01*
X39805688Y-71841124D01*
X39954988Y-71811427D01*
X39979758Y-71806500D01*
X40157242Y-71806500D01*
X40182012Y-71811427D01*
G37*
G36*
X37642012Y-71811427D02*
G01*
X37791312Y-71841124D01*
X37955284Y-71909044D01*
X38102854Y-72007647D01*
X38228353Y-72133146D01*
X38326956Y-72280716D01*
X38394876Y-72444688D01*
X38429500Y-72618759D01*
X38429500Y-72796241D01*
X38394876Y-72970312D01*
X38326956Y-73134284D01*
X38228353Y-73281854D01*
X38102854Y-73407353D01*
X37955284Y-73505956D01*
X37791312Y-73573876D01*
X37657566Y-73600479D01*
X37617242Y-73608500D01*
X37439758Y-73608500D01*
X37399434Y-73600479D01*
X37265688Y-73573876D01*
X37101716Y-73505956D01*
X36954146Y-73407353D01*
X36828647Y-73281854D01*
X36730044Y-73134284D01*
X36662124Y-72970312D01*
X36627500Y-72796241D01*
X36627500Y-72618759D01*
X36662124Y-72444688D01*
X36730044Y-72280716D01*
X36828647Y-72133146D01*
X36954146Y-72007647D01*
X37101716Y-71909044D01*
X37265688Y-71841124D01*
X37414988Y-71811427D01*
X37439758Y-71806500D01*
X37617242Y-71806500D01*
X37642012Y-71811427D01*
G37*
G36*
X60502012Y-69271427D02*
G01*
X60651312Y-69301124D01*
X60815284Y-69369044D01*
X60962854Y-69467647D01*
X61088353Y-69593146D01*
X61186956Y-69740716D01*
X61254876Y-69904688D01*
X61289500Y-70078759D01*
X61289500Y-70256241D01*
X61254876Y-70430312D01*
X61186956Y-70594284D01*
X61088353Y-70741854D01*
X60962854Y-70867353D01*
X60815284Y-70965956D01*
X60651312Y-71033876D01*
X60502012Y-71063573D01*
X60477242Y-71068500D01*
X60299758Y-71068500D01*
X60274988Y-71063573D01*
X60125688Y-71033876D01*
X59961716Y-70965956D01*
X59814146Y-70867353D01*
X59688647Y-70741854D01*
X59590044Y-70594284D01*
X59522124Y-70430312D01*
X59487500Y-70256241D01*
X59487500Y-70078759D01*
X59522124Y-69904688D01*
X59590044Y-69740716D01*
X59688647Y-69593146D01*
X59814146Y-69467647D01*
X59961716Y-69369044D01*
X60125688Y-69301124D01*
X60274988Y-69271427D01*
X60299758Y-69266500D01*
X60477242Y-69266500D01*
X60502012Y-69271427D01*
G37*
G36*
X80822012Y-69271427D02*
G01*
X80971312Y-69301124D01*
X81135284Y-69369044D01*
X81282854Y-69467647D01*
X81408353Y-69593146D01*
X81506956Y-69740716D01*
X81574876Y-69904688D01*
X81609500Y-70078759D01*
X81609500Y-70256241D01*
X81574876Y-70430312D01*
X81506956Y-70594284D01*
X81408353Y-70741854D01*
X81282854Y-70867353D01*
X81135284Y-70965956D01*
X80971312Y-71033876D01*
X80822012Y-71063573D01*
X80797242Y-71068500D01*
X80619758Y-71068500D01*
X80594988Y-71063573D01*
X80445688Y-71033876D01*
X80281716Y-70965956D01*
X80134146Y-70867353D01*
X80008647Y-70741854D01*
X79910044Y-70594284D01*
X79842124Y-70430312D01*
X79807500Y-70256241D01*
X79807500Y-70078759D01*
X79842124Y-69904688D01*
X79910044Y-69740716D01*
X80008647Y-69593146D01*
X80134146Y-69467647D01*
X80281716Y-69369044D01*
X80445688Y-69301124D01*
X80594988Y-69271427D01*
X80619758Y-69266500D01*
X80797242Y-69266500D01*
X80822012Y-69271427D01*
G37*
G36*
X63042012Y-69271427D02*
G01*
X63191312Y-69301124D01*
X63355284Y-69369044D01*
X63502854Y-69467647D01*
X63628353Y-69593146D01*
X63726956Y-69740716D01*
X63794876Y-69904688D01*
X63829500Y-70078759D01*
X63829500Y-70256241D01*
X63794876Y-70430312D01*
X63726956Y-70594284D01*
X63628353Y-70741854D01*
X63502854Y-70867353D01*
X63355284Y-70965956D01*
X63191312Y-71033876D01*
X63042012Y-71063573D01*
X63017242Y-71068500D01*
X62839758Y-71068500D01*
X62814988Y-71063573D01*
X62665688Y-71033876D01*
X62501716Y-70965956D01*
X62354146Y-70867353D01*
X62228647Y-70741854D01*
X62130044Y-70594284D01*
X62062124Y-70430312D01*
X62027500Y-70256241D01*
X62027500Y-70078759D01*
X62062124Y-69904688D01*
X62130044Y-69740716D01*
X62228647Y-69593146D01*
X62354146Y-69467647D01*
X62501716Y-69369044D01*
X62665688Y-69301124D01*
X62814988Y-69271427D01*
X62839758Y-69266500D01*
X63017242Y-69266500D01*
X63042012Y-69271427D01*
G37*
G36*
X83362012Y-69271427D02*
G01*
X83511312Y-69301124D01*
X83675284Y-69369044D01*
X83822854Y-69467647D01*
X83948353Y-69593146D01*
X84046956Y-69740716D01*
X84114876Y-69904688D01*
X84149500Y-70078759D01*
X84149500Y-70256241D01*
X84114876Y-70430312D01*
X84046956Y-70594284D01*
X83948353Y-70741854D01*
X83822854Y-70867353D01*
X83675284Y-70965956D01*
X83511312Y-71033876D01*
X83362012Y-71063573D01*
X83337242Y-71068500D01*
X83159758Y-71068500D01*
X83134988Y-71063573D01*
X82985688Y-71033876D01*
X82821716Y-70965956D01*
X82674146Y-70867353D01*
X82548647Y-70741854D01*
X82450044Y-70594284D01*
X82382124Y-70430312D01*
X82347500Y-70256241D01*
X82347500Y-70078759D01*
X82382124Y-69904688D01*
X82450044Y-69740716D01*
X82548647Y-69593146D01*
X82674146Y-69467647D01*
X82821716Y-69369044D01*
X82985688Y-69301124D01*
X83134988Y-69271427D01*
X83159758Y-69266500D01*
X83337242Y-69266500D01*
X83362012Y-69271427D01*
G37*
G36*
X65582012Y-69271427D02*
G01*
X65731312Y-69301124D01*
X65895284Y-69369044D01*
X66042854Y-69467647D01*
X66168353Y-69593146D01*
X66266956Y-69740716D01*
X66334876Y-69904688D01*
X66369500Y-70078759D01*
X66369500Y-70256241D01*
X66334876Y-70430312D01*
X66266956Y-70594284D01*
X66168353Y-70741854D01*
X66042854Y-70867353D01*
X65895284Y-70965956D01*
X65731312Y-71033876D01*
X65582012Y-71063573D01*
X65557242Y-71068500D01*
X65379758Y-71068500D01*
X65354988Y-71063573D01*
X65205688Y-71033876D01*
X65041716Y-70965956D01*
X64894146Y-70867353D01*
X64768647Y-70741854D01*
X64670044Y-70594284D01*
X64602124Y-70430312D01*
X64567500Y-70256241D01*
X64567500Y-70078759D01*
X64602124Y-69904688D01*
X64670044Y-69740716D01*
X64768647Y-69593146D01*
X64894146Y-69467647D01*
X65041716Y-69369044D01*
X65205688Y-69301124D01*
X65354988Y-69271427D01*
X65379758Y-69266500D01*
X65557242Y-69266500D01*
X65582012Y-69271427D01*
G37*
G36*
X68122012Y-69271427D02*
G01*
X68271312Y-69301124D01*
X68435284Y-69369044D01*
X68582854Y-69467647D01*
X68708353Y-69593146D01*
X68806956Y-69740716D01*
X68874876Y-69904688D01*
X68909500Y-70078759D01*
X68909500Y-70256241D01*
X68874876Y-70430312D01*
X68806956Y-70594284D01*
X68708353Y-70741854D01*
X68582854Y-70867353D01*
X68435284Y-70965956D01*
X68271312Y-71033876D01*
X68122012Y-71063573D01*
X68097242Y-71068500D01*
X67919758Y-71068500D01*
X67894988Y-71063573D01*
X67745688Y-71033876D01*
X67581716Y-70965956D01*
X67434146Y-70867353D01*
X67308647Y-70741854D01*
X67210044Y-70594284D01*
X67142124Y-70430312D01*
X67107500Y-70256241D01*
X67107500Y-70078759D01*
X67142124Y-69904688D01*
X67210044Y-69740716D01*
X67308647Y-69593146D01*
X67434146Y-69467647D01*
X67581716Y-69369044D01*
X67745688Y-69301124D01*
X67894988Y-69271427D01*
X67919758Y-69266500D01*
X68097242Y-69266500D01*
X68122012Y-69271427D01*
G37*
G36*
X78282012Y-69271427D02*
G01*
X78431312Y-69301124D01*
X78595284Y-69369044D01*
X78742854Y-69467647D01*
X78868353Y-69593146D01*
X78966956Y-69740716D01*
X79034876Y-69904688D01*
X79069500Y-70078759D01*
X79069500Y-70256241D01*
X79034876Y-70430312D01*
X78966956Y-70594284D01*
X78868353Y-70741854D01*
X78742854Y-70867353D01*
X78595284Y-70965956D01*
X78431312Y-71033876D01*
X78282012Y-71063573D01*
X78257242Y-71068500D01*
X78079758Y-71068500D01*
X78054988Y-71063573D01*
X77905688Y-71033876D01*
X77741716Y-70965956D01*
X77594146Y-70867353D01*
X77468647Y-70741854D01*
X77370044Y-70594284D01*
X77302124Y-70430312D01*
X77267500Y-70256241D01*
X77267500Y-70078759D01*
X77302124Y-69904688D01*
X77370044Y-69740716D01*
X77468647Y-69593146D01*
X77594146Y-69467647D01*
X77741716Y-69369044D01*
X77905688Y-69301124D01*
X78054988Y-69271427D01*
X78079758Y-69266500D01*
X78257242Y-69266500D01*
X78282012Y-69271427D01*
G37*
G36*
X75742012Y-69271427D02*
G01*
X75891312Y-69301124D01*
X76055284Y-69369044D01*
X76202854Y-69467647D01*
X76328353Y-69593146D01*
X76426956Y-69740716D01*
X76494876Y-69904688D01*
X76529500Y-70078759D01*
X76529500Y-70256241D01*
X76494876Y-70430312D01*
X76426956Y-70594284D01*
X76328353Y-70741854D01*
X76202854Y-70867353D01*
X76055284Y-70965956D01*
X75891312Y-71033876D01*
X75742012Y-71063573D01*
X75717242Y-71068500D01*
X75539758Y-71068500D01*
X75514988Y-71063573D01*
X75365688Y-71033876D01*
X75201716Y-70965956D01*
X75054146Y-70867353D01*
X74928647Y-70741854D01*
X74830044Y-70594284D01*
X74762124Y-70430312D01*
X74727500Y-70256241D01*
X74727500Y-70078759D01*
X74762124Y-69904688D01*
X74830044Y-69740716D01*
X74928647Y-69593146D01*
X75054146Y-69467647D01*
X75201716Y-69369044D01*
X75365688Y-69301124D01*
X75514988Y-69271427D01*
X75539758Y-69266500D01*
X75717242Y-69266500D01*
X75742012Y-69271427D01*
G37*
G36*
X73202012Y-69271427D02*
G01*
X73351312Y-69301124D01*
X73515284Y-69369044D01*
X73662854Y-69467647D01*
X73788353Y-69593146D01*
X73886956Y-69740716D01*
X73954876Y-69904688D01*
X73989500Y-70078759D01*
X73989500Y-70256241D01*
X73954876Y-70430312D01*
X73886956Y-70594284D01*
X73788353Y-70741854D01*
X73662854Y-70867353D01*
X73515284Y-70965956D01*
X73351312Y-71033876D01*
X73202012Y-71063573D01*
X73177242Y-71068500D01*
X72999758Y-71068500D01*
X72974988Y-71063573D01*
X72825688Y-71033876D01*
X72661716Y-70965956D01*
X72514146Y-70867353D01*
X72388647Y-70741854D01*
X72290044Y-70594284D01*
X72222124Y-70430312D01*
X72187500Y-70256241D01*
X72187500Y-70078759D01*
X72222124Y-69904688D01*
X72290044Y-69740716D01*
X72388647Y-69593146D01*
X72514146Y-69467647D01*
X72661716Y-69369044D01*
X72825688Y-69301124D01*
X72974988Y-69271427D01*
X72999758Y-69266500D01*
X73177242Y-69266500D01*
X73202012Y-69271427D01*
G37*
G36*
X70662012Y-69271427D02*
G01*
X70811312Y-69301124D01*
X70975284Y-69369044D01*
X71122854Y-69467647D01*
X71248353Y-69593146D01*
X71346956Y-69740716D01*
X71414876Y-69904688D01*
X71449500Y-70078759D01*
X71449500Y-70256241D01*
X71414876Y-70430312D01*
X71346956Y-70594284D01*
X71248353Y-70741854D01*
X71122854Y-70867353D01*
X70975284Y-70965956D01*
X70811312Y-71033876D01*
X70662012Y-71063573D01*
X70637242Y-71068500D01*
X70459758Y-71068500D01*
X70434988Y-71063573D01*
X70285688Y-71033876D01*
X70121716Y-70965956D01*
X69974146Y-70867353D01*
X69848647Y-70741854D01*
X69750044Y-70594284D01*
X69682124Y-70430312D01*
X69647500Y-70256241D01*
X69647500Y-70078759D01*
X69682124Y-69904688D01*
X69750044Y-69740716D01*
X69848647Y-69593146D01*
X69974146Y-69467647D01*
X70121716Y-69369044D01*
X70285688Y-69301124D01*
X70434988Y-69271427D01*
X70459758Y-69266500D01*
X70637242Y-69266500D01*
X70662012Y-69271427D01*
G37*
G36*
X35889500Y-71068500D02*
G01*
X34087500Y-71068500D01*
X34087500Y-69266500D01*
X35889500Y-69266500D01*
X35889500Y-71068500D01*
G37*
G36*
X55422012Y-69271427D02*
G01*
X55571312Y-69301124D01*
X55735284Y-69369044D01*
X55882854Y-69467647D01*
X56008353Y-69593146D01*
X56106956Y-69740716D01*
X56174876Y-69904688D01*
X56209500Y-70078759D01*
X56209500Y-70256241D01*
X56174876Y-70430312D01*
X56106956Y-70594284D01*
X56008353Y-70741854D01*
X55882854Y-70867353D01*
X55735284Y-70965956D01*
X55571312Y-71033876D01*
X55422012Y-71063573D01*
X55397242Y-71068500D01*
X55219758Y-71068500D01*
X55194988Y-71063573D01*
X55045688Y-71033876D01*
X54881716Y-70965956D01*
X54734146Y-70867353D01*
X54608647Y-70741854D01*
X54510044Y-70594284D01*
X54442124Y-70430312D01*
X54407500Y-70256241D01*
X54407500Y-70078759D01*
X54442124Y-69904688D01*
X54510044Y-69740716D01*
X54608647Y-69593146D01*
X54734146Y-69467647D01*
X54881716Y-69369044D01*
X55045688Y-69301124D01*
X55194988Y-69271427D01*
X55219758Y-69266500D01*
X55397242Y-69266500D01*
X55422012Y-69271427D01*
G37*
G36*
X37642012Y-69271427D02*
G01*
X37791312Y-69301124D01*
X37955284Y-69369044D01*
X38102854Y-69467647D01*
X38228353Y-69593146D01*
X38326956Y-69740716D01*
X38394876Y-69904688D01*
X38429500Y-70078759D01*
X38429500Y-70256241D01*
X38394876Y-70430312D01*
X38326956Y-70594284D01*
X38228353Y-70741854D01*
X38102854Y-70867353D01*
X37955284Y-70965956D01*
X37791312Y-71033876D01*
X37642012Y-71063573D01*
X37617242Y-71068500D01*
X37439758Y-71068500D01*
X37414988Y-71063573D01*
X37265688Y-71033876D01*
X37101716Y-70965956D01*
X36954146Y-70867353D01*
X36828647Y-70741854D01*
X36730044Y-70594284D01*
X36662124Y-70430312D01*
X36627500Y-70256241D01*
X36627500Y-70078759D01*
X36662124Y-69904688D01*
X36730044Y-69740716D01*
X36828647Y-69593146D01*
X36954146Y-69467647D01*
X37101716Y-69369044D01*
X37265688Y-69301124D01*
X37414988Y-69271427D01*
X37439758Y-69266500D01*
X37617242Y-69266500D01*
X37642012Y-69271427D01*
G37*
G36*
X52882012Y-69271427D02*
G01*
X53031312Y-69301124D01*
X53195284Y-69369044D01*
X53342854Y-69467647D01*
X53468353Y-69593146D01*
X53566956Y-69740716D01*
X53634876Y-69904688D01*
X53669500Y-70078759D01*
X53669500Y-70256241D01*
X53634876Y-70430312D01*
X53566956Y-70594284D01*
X53468353Y-70741854D01*
X53342854Y-70867353D01*
X53195284Y-70965956D01*
X53031312Y-71033876D01*
X52882012Y-71063573D01*
X52857242Y-71068500D01*
X52679758Y-71068500D01*
X52654988Y-71063573D01*
X52505688Y-71033876D01*
X52341716Y-70965956D01*
X52194146Y-70867353D01*
X52068647Y-70741854D01*
X51970044Y-70594284D01*
X51902124Y-70430312D01*
X51867500Y-70256241D01*
X51867500Y-70078759D01*
X51902124Y-69904688D01*
X51970044Y-69740716D01*
X52068647Y-69593146D01*
X52194146Y-69467647D01*
X52341716Y-69369044D01*
X52505688Y-69301124D01*
X52654988Y-69271427D01*
X52679758Y-69266500D01*
X52857242Y-69266500D01*
X52882012Y-69271427D01*
G37*
G36*
X40182012Y-69271427D02*
G01*
X40331312Y-69301124D01*
X40495284Y-69369044D01*
X40642854Y-69467647D01*
X40768353Y-69593146D01*
X40866956Y-69740716D01*
X40934876Y-69904688D01*
X40969500Y-70078759D01*
X40969500Y-70256241D01*
X40934876Y-70430312D01*
X40866956Y-70594284D01*
X40768353Y-70741854D01*
X40642854Y-70867353D01*
X40495284Y-70965956D01*
X40331312Y-71033876D01*
X40182012Y-71063573D01*
X40157242Y-71068500D01*
X39979758Y-71068500D01*
X39954988Y-71063573D01*
X39805688Y-71033876D01*
X39641716Y-70965956D01*
X39494146Y-70867353D01*
X39368647Y-70741854D01*
X39270044Y-70594284D01*
X39202124Y-70430312D01*
X39167500Y-70256241D01*
X39167500Y-70078759D01*
X39202124Y-69904688D01*
X39270044Y-69740716D01*
X39368647Y-69593146D01*
X39494146Y-69467647D01*
X39641716Y-69369044D01*
X39805688Y-69301124D01*
X39954988Y-69271427D01*
X39979758Y-69266500D01*
X40157242Y-69266500D01*
X40182012Y-69271427D01*
G37*
G36*
X50342012Y-69271427D02*
G01*
X50491312Y-69301124D01*
X50655284Y-69369044D01*
X50802854Y-69467647D01*
X50928353Y-69593146D01*
X51026956Y-69740716D01*
X51094876Y-69904688D01*
X51129500Y-70078759D01*
X51129500Y-70256241D01*
X51094876Y-70430312D01*
X51026956Y-70594284D01*
X50928353Y-70741854D01*
X50802854Y-70867353D01*
X50655284Y-70965956D01*
X50491312Y-71033876D01*
X50342012Y-71063573D01*
X50317242Y-71068500D01*
X50139758Y-71068500D01*
X50114988Y-71063573D01*
X49965688Y-71033876D01*
X49801716Y-70965956D01*
X49654146Y-70867353D01*
X49528647Y-70741854D01*
X49430044Y-70594284D01*
X49362124Y-70430312D01*
X49327500Y-70256241D01*
X49327500Y-70078759D01*
X49362124Y-69904688D01*
X49430044Y-69740716D01*
X49528647Y-69593146D01*
X49654146Y-69467647D01*
X49801716Y-69369044D01*
X49965688Y-69301124D01*
X50114988Y-69271427D01*
X50139758Y-69266500D01*
X50317242Y-69266500D01*
X50342012Y-69271427D01*
G37*
G36*
X42722012Y-69271427D02*
G01*
X42871312Y-69301124D01*
X43035284Y-69369044D01*
X43182854Y-69467647D01*
X43308353Y-69593146D01*
X43406956Y-69740716D01*
X43474876Y-69904688D01*
X43509500Y-70078759D01*
X43509500Y-70256241D01*
X43474876Y-70430312D01*
X43406956Y-70594284D01*
X43308353Y-70741854D01*
X43182854Y-70867353D01*
X43035284Y-70965956D01*
X42871312Y-71033876D01*
X42722012Y-71063573D01*
X42697242Y-71068500D01*
X42519758Y-71068500D01*
X42494988Y-71063573D01*
X42345688Y-71033876D01*
X42181716Y-70965956D01*
X42034146Y-70867353D01*
X41908647Y-70741854D01*
X41810044Y-70594284D01*
X41742124Y-70430312D01*
X41707500Y-70256241D01*
X41707500Y-70078759D01*
X41742124Y-69904688D01*
X41810044Y-69740716D01*
X41908647Y-69593146D01*
X42034146Y-69467647D01*
X42181716Y-69369044D01*
X42345688Y-69301124D01*
X42494988Y-69271427D01*
X42519758Y-69266500D01*
X42697242Y-69266500D01*
X42722012Y-69271427D01*
G37*
G36*
X47802012Y-69271427D02*
G01*
X47951312Y-69301124D01*
X48115284Y-69369044D01*
X48262854Y-69467647D01*
X48388353Y-69593146D01*
X48486956Y-69740716D01*
X48554876Y-69904688D01*
X48589500Y-70078759D01*
X48589500Y-70256241D01*
X48554876Y-70430312D01*
X48486956Y-70594284D01*
X48388353Y-70741854D01*
X48262854Y-70867353D01*
X48115284Y-70965956D01*
X47951312Y-71033876D01*
X47802012Y-71063573D01*
X47777242Y-71068500D01*
X47599758Y-71068500D01*
X47574988Y-71063573D01*
X47425688Y-71033876D01*
X47261716Y-70965956D01*
X47114146Y-70867353D01*
X46988647Y-70741854D01*
X46890044Y-70594284D01*
X46822124Y-70430312D01*
X46787500Y-70256241D01*
X46787500Y-70078759D01*
X46822124Y-69904688D01*
X46890044Y-69740716D01*
X46988647Y-69593146D01*
X47114146Y-69467647D01*
X47261716Y-69369044D01*
X47425688Y-69301124D01*
X47574988Y-69271427D01*
X47599758Y-69266500D01*
X47777242Y-69266500D01*
X47802012Y-69271427D01*
G37*
G36*
X45262012Y-69271427D02*
G01*
X45411312Y-69301124D01*
X45575284Y-69369044D01*
X45722854Y-69467647D01*
X45848353Y-69593146D01*
X45946956Y-69740716D01*
X46014876Y-69904688D01*
X46049500Y-70078759D01*
X46049500Y-70256241D01*
X46014876Y-70430312D01*
X45946956Y-70594284D01*
X45848353Y-70741854D01*
X45722854Y-70867353D01*
X45575284Y-70965956D01*
X45411312Y-71033876D01*
X45262012Y-71063573D01*
X45237242Y-71068500D01*
X45059758Y-71068500D01*
X45034988Y-71063573D01*
X44885688Y-71033876D01*
X44721716Y-70965956D01*
X44574146Y-70867353D01*
X44448647Y-70741854D01*
X44350044Y-70594284D01*
X44282124Y-70430312D01*
X44247500Y-70256241D01*
X44247500Y-70078759D01*
X44282124Y-69904688D01*
X44350044Y-69740716D01*
X44448647Y-69593146D01*
X44574146Y-69467647D01*
X44721716Y-69369044D01*
X44885688Y-69301124D01*
X45034988Y-69271427D01*
X45059758Y-69266500D01*
X45237242Y-69266500D01*
X45262012Y-69271427D01*
G37*
G36*
X57962012Y-69271427D02*
G01*
X58111312Y-69301124D01*
X58275284Y-69369044D01*
X58422854Y-69467647D01*
X58548353Y-69593146D01*
X58646956Y-69740716D01*
X58714876Y-69904688D01*
X58749500Y-70078759D01*
X58749500Y-70256241D01*
X58714876Y-70430312D01*
X58646956Y-70594284D01*
X58548353Y-70741854D01*
X58422854Y-70867353D01*
X58275284Y-70965956D01*
X58111312Y-71033876D01*
X57962012Y-71063573D01*
X57937242Y-71068500D01*
X57759758Y-71068500D01*
X57734988Y-71063573D01*
X57585688Y-71033876D01*
X57421716Y-70965956D01*
X57274146Y-70867353D01*
X57148647Y-70741854D01*
X57050044Y-70594284D01*
X56982124Y-70430312D01*
X56947500Y-70256241D01*
X56947500Y-70078759D01*
X56982124Y-69904688D01*
X57050044Y-69740716D01*
X57148647Y-69593146D01*
X57274146Y-69467647D01*
X57421716Y-69369044D01*
X57585688Y-69301124D01*
X57734988Y-69271427D01*
X57759758Y-69266500D01*
X57937242Y-69266500D01*
X57962012Y-69271427D01*
G37*
G36*
X36365654Y-61913618D02*
G01*
X36738911Y-62068226D01*
X36738913Y-62068227D01*
X36882389Y-62164095D01*
X37074836Y-62292684D01*
X37360516Y-62578364D01*
X37584974Y-62914289D01*
X37739582Y-63287546D01*
X37818400Y-63683793D01*
X37818400Y-64087807D01*
X37739582Y-64484054D01*
X37584974Y-64857311D01*
X37584973Y-64857313D01*
X37360516Y-65193236D01*
X37074836Y-65478916D01*
X36738913Y-65703373D01*
X36738912Y-65703374D01*
X36738911Y-65703374D01*
X36365654Y-65857982D01*
X35969407Y-65936800D01*
X35565393Y-65936800D01*
X35169146Y-65857982D01*
X34795889Y-65703374D01*
X34795888Y-65703374D01*
X34795887Y-65703373D01*
X34459964Y-65478916D01*
X34174284Y-65193236D01*
X33949827Y-64857313D01*
X33949826Y-64857311D01*
X33795218Y-64484054D01*
X33716400Y-64087807D01*
X33716400Y-63683793D01*
X33795218Y-63287546D01*
X33949826Y-62914289D01*
X34174284Y-62578364D01*
X34459964Y-62292684D01*
X34652411Y-62164095D01*
X34795887Y-62068227D01*
X34795889Y-62068226D01*
X35169146Y-61913618D01*
X35565393Y-61834800D01*
X35969407Y-61834800D01*
X36365654Y-61913618D01*
G37*
G36*
X83465654Y-61913618D02*
G01*
X83838911Y-62068226D01*
X83838913Y-62068227D01*
X83982389Y-62164095D01*
X84174836Y-62292684D01*
X84460516Y-62578364D01*
X84684974Y-62914289D01*
X84839582Y-63287546D01*
X84918400Y-63683793D01*
X84918400Y-64087807D01*
X84839582Y-64484054D01*
X84684974Y-64857311D01*
X84684973Y-64857313D01*
X84460516Y-65193236D01*
X84174836Y-65478916D01*
X83838913Y-65703373D01*
X83838912Y-65703374D01*
X83838911Y-65703374D01*
X83465654Y-65857982D01*
X83069407Y-65936800D01*
X82665393Y-65936800D01*
X82269146Y-65857982D01*
X81895889Y-65703374D01*
X81895888Y-65703374D01*
X81895887Y-65703373D01*
X81559964Y-65478916D01*
X81274284Y-65193236D01*
X81049827Y-64857313D01*
X81049826Y-64857311D01*
X80895218Y-64484054D01*
X80816400Y-64087807D01*
X80816400Y-63683793D01*
X80895218Y-63287546D01*
X81049826Y-62914289D01*
X81274284Y-62578364D01*
X81559964Y-62292684D01*
X81752411Y-62164095D01*
X81895887Y-62068227D01*
X81895889Y-62068226D01*
X82269146Y-61913618D01*
X82665393Y-61834800D01*
X83069407Y-61834800D01*
X83465654Y-61913618D01*
G37*
G36*
X67875628Y-63367503D02*
G01*
X68030500Y-63431653D01*
X68169881Y-63524785D01*
X68288415Y-63643319D01*
X68381547Y-63782700D01*
X68445697Y-63937572D01*
X68478400Y-64101984D01*
X68478400Y-64269616D01*
X68445697Y-64434028D01*
X68381547Y-64588900D01*
X68288415Y-64728281D01*
X68169881Y-64846815D01*
X68030500Y-64939947D01*
X67875628Y-65004097D01*
X67711216Y-65036800D01*
X67543584Y-65036800D01*
X67379172Y-65004097D01*
X67224300Y-64939947D01*
X67084919Y-64846815D01*
X66966385Y-64728281D01*
X66873253Y-64588900D01*
X66809103Y-64434028D01*
X66776400Y-64269616D01*
X66776400Y-64101984D01*
X66809103Y-63937572D01*
X66873253Y-63782700D01*
X66966385Y-63643319D01*
X67084919Y-63524785D01*
X67224300Y-63431653D01*
X67379172Y-63367503D01*
X67543584Y-63334800D01*
X67711216Y-63334800D01*
X67875628Y-63367503D01*
G37*
G36*
X65105628Y-63367503D02*
G01*
X65260500Y-63431653D01*
X65399881Y-63524785D01*
X65518415Y-63643319D01*
X65611547Y-63782700D01*
X65675697Y-63937572D01*
X65708400Y-64101984D01*
X65708400Y-64269616D01*
X65675697Y-64434028D01*
X65611547Y-64588900D01*
X65518415Y-64728281D01*
X65399881Y-64846815D01*
X65260500Y-64939947D01*
X65105628Y-65004097D01*
X64941216Y-65036800D01*
X64773584Y-65036800D01*
X64609172Y-65004097D01*
X64454300Y-64939947D01*
X64314919Y-64846815D01*
X64196385Y-64728281D01*
X64103253Y-64588900D01*
X64039103Y-64434028D01*
X64006400Y-64269616D01*
X64006400Y-64101984D01*
X64039103Y-63937572D01*
X64103253Y-63782700D01*
X64196385Y-63643319D01*
X64314919Y-63524785D01*
X64454300Y-63431653D01*
X64609172Y-63367503D01*
X64773584Y-63334800D01*
X64941216Y-63334800D01*
X65105628Y-63367503D01*
G37*
G36*
X70645628Y-63367503D02*
G01*
X70800500Y-63431653D01*
X70939881Y-63524785D01*
X71058415Y-63643319D01*
X71151547Y-63782700D01*
X71215697Y-63937572D01*
X71248400Y-64101984D01*
X71248400Y-64269616D01*
X71215697Y-64434028D01*
X71151547Y-64588900D01*
X71058415Y-64728281D01*
X70939881Y-64846815D01*
X70800500Y-64939947D01*
X70645628Y-65004097D01*
X70481216Y-65036800D01*
X70313584Y-65036800D01*
X70149172Y-65004097D01*
X69994300Y-64939947D01*
X69854919Y-64846815D01*
X69736385Y-64728281D01*
X69643253Y-64588900D01*
X69579103Y-64434028D01*
X69546400Y-64269616D01*
X69546400Y-64101984D01*
X69579103Y-63937572D01*
X69643253Y-63782700D01*
X69736385Y-63643319D01*
X69854919Y-63524785D01*
X69994300Y-63431653D01*
X70149172Y-63367503D01*
X70313584Y-63334800D01*
X70481216Y-63334800D01*
X70645628Y-63367503D01*
G37*
G36*
X62335628Y-63367503D02*
G01*
X62490500Y-63431653D01*
X62629881Y-63524785D01*
X62748415Y-63643319D01*
X62841547Y-63782700D01*
X62905697Y-63937572D01*
X62938400Y-64101984D01*
X62938400Y-64269616D01*
X62905697Y-64434028D01*
X62841547Y-64588900D01*
X62748415Y-64728281D01*
X62629881Y-64846815D01*
X62490500Y-64939947D01*
X62335628Y-65004097D01*
X62171216Y-65036800D01*
X62003584Y-65036800D01*
X61839172Y-65004097D01*
X61684300Y-64939947D01*
X61544919Y-64846815D01*
X61426385Y-64728281D01*
X61333253Y-64588900D01*
X61269103Y-64434028D01*
X61236400Y-64269616D01*
X61236400Y-64101984D01*
X61269103Y-63937572D01*
X61333253Y-63782700D01*
X61426385Y-63643319D01*
X61544919Y-63524785D01*
X61684300Y-63431653D01*
X61839172Y-63367503D01*
X62003584Y-63334800D01*
X62171216Y-63334800D01*
X62335628Y-63367503D01*
G37*
G36*
X73415628Y-63367503D02*
G01*
X73570500Y-63431653D01*
X73709881Y-63524785D01*
X73828415Y-63643319D01*
X73921547Y-63782700D01*
X73985697Y-63937572D01*
X74018400Y-64101984D01*
X74018400Y-64269616D01*
X73985697Y-64434028D01*
X73921547Y-64588900D01*
X73828415Y-64728281D01*
X73709881Y-64846815D01*
X73570500Y-64939947D01*
X73415628Y-65004097D01*
X73251216Y-65036800D01*
X73083584Y-65036800D01*
X72919172Y-65004097D01*
X72764300Y-64939947D01*
X72624919Y-64846815D01*
X72506385Y-64728281D01*
X72413253Y-64588900D01*
X72349103Y-64434028D01*
X72316400Y-64269616D01*
X72316400Y-64101984D01*
X72349103Y-63937572D01*
X72413253Y-63782700D01*
X72506385Y-63643319D01*
X72624919Y-63524785D01*
X72764300Y-63431653D01*
X72919172Y-63367503D01*
X73083584Y-63334800D01*
X73251216Y-63334800D01*
X73415628Y-63367503D01*
G37*
G36*
X59565628Y-63367503D02*
G01*
X59720500Y-63431653D01*
X59859881Y-63524785D01*
X59978415Y-63643319D01*
X60071547Y-63782700D01*
X60135697Y-63937572D01*
X60168400Y-64101984D01*
X60168400Y-64269616D01*
X60135697Y-64434028D01*
X60071547Y-64588900D01*
X59978415Y-64728281D01*
X59859881Y-64846815D01*
X59720500Y-64939947D01*
X59565628Y-65004097D01*
X59401216Y-65036800D01*
X59233584Y-65036800D01*
X59069172Y-65004097D01*
X58914300Y-64939947D01*
X58774919Y-64846815D01*
X58656385Y-64728281D01*
X58563253Y-64588900D01*
X58499103Y-64434028D01*
X58466400Y-64269616D01*
X58466400Y-64101984D01*
X58499103Y-63937572D01*
X58563253Y-63782700D01*
X58656385Y-63643319D01*
X58774919Y-63524785D01*
X58914300Y-63431653D01*
X59069172Y-63367503D01*
X59233584Y-63334800D01*
X59401216Y-63334800D01*
X59565628Y-63367503D01*
G37*
G36*
X76185628Y-63367503D02*
G01*
X76340500Y-63431653D01*
X76479881Y-63524785D01*
X76598415Y-63643319D01*
X76691547Y-63782700D01*
X76755697Y-63937572D01*
X76788400Y-64101984D01*
X76788400Y-64269616D01*
X76755697Y-64434028D01*
X76691547Y-64588900D01*
X76598415Y-64728281D01*
X76479881Y-64846815D01*
X76340500Y-64939947D01*
X76185628Y-65004097D01*
X76021216Y-65036800D01*
X75853584Y-65036800D01*
X75689172Y-65004097D01*
X75534300Y-64939947D01*
X75394919Y-64846815D01*
X75276385Y-64728281D01*
X75183253Y-64588900D01*
X75119103Y-64434028D01*
X75086400Y-64269616D01*
X75086400Y-64101984D01*
X75119103Y-63937572D01*
X75183253Y-63782700D01*
X75276385Y-63643319D01*
X75394919Y-63524785D01*
X75534300Y-63431653D01*
X75689172Y-63367503D01*
X75853584Y-63334800D01*
X76021216Y-63334800D01*
X76185628Y-63367503D01*
G37*
G36*
X56795628Y-63367503D02*
G01*
X56950500Y-63431653D01*
X57089881Y-63524785D01*
X57208415Y-63643319D01*
X57301547Y-63782700D01*
X57365697Y-63937572D01*
X57398400Y-64101984D01*
X57398400Y-64269616D01*
X57365697Y-64434028D01*
X57301547Y-64588900D01*
X57208415Y-64728281D01*
X57089881Y-64846815D01*
X56950500Y-64939947D01*
X56795628Y-65004097D01*
X56631216Y-65036800D01*
X56463584Y-65036800D01*
X56299172Y-65004097D01*
X56144300Y-64939947D01*
X56004919Y-64846815D01*
X55886385Y-64728281D01*
X55793253Y-64588900D01*
X55729103Y-64434028D01*
X55696400Y-64269616D01*
X55696400Y-64101984D01*
X55729103Y-63937572D01*
X55793253Y-63782700D01*
X55886385Y-63643319D01*
X56004919Y-63524785D01*
X56144300Y-63431653D01*
X56299172Y-63367503D01*
X56463584Y-63334800D01*
X56631216Y-63334800D01*
X56795628Y-63367503D01*
G37*
G36*
X54025628Y-63367503D02*
G01*
X54180500Y-63431653D01*
X54319881Y-63524785D01*
X54438415Y-63643319D01*
X54531547Y-63782700D01*
X54595697Y-63937572D01*
X54628400Y-64101984D01*
X54628400Y-64269616D01*
X54595697Y-64434028D01*
X54531547Y-64588900D01*
X54438415Y-64728281D01*
X54319881Y-64846815D01*
X54180500Y-64939947D01*
X54025628Y-65004097D01*
X53861216Y-65036800D01*
X53693584Y-65036800D01*
X53529172Y-65004097D01*
X53374300Y-64939947D01*
X53234919Y-64846815D01*
X53116385Y-64728281D01*
X53023253Y-64588900D01*
X52959103Y-64434028D01*
X52926400Y-64269616D01*
X52926400Y-64101984D01*
X52959103Y-63937572D01*
X53023253Y-63782700D01*
X53116385Y-63643319D01*
X53234919Y-63524785D01*
X53374300Y-63431653D01*
X53529172Y-63367503D01*
X53693584Y-63334800D01*
X53861216Y-63334800D01*
X54025628Y-63367503D01*
G37*
G36*
X43548400Y-65036800D02*
G01*
X41846400Y-65036800D01*
X41846400Y-63334800D01*
X43548400Y-63334800D01*
X43548400Y-65036800D01*
G37*
G36*
X45715628Y-63367503D02*
G01*
X45870500Y-63431653D01*
X46009881Y-63524785D01*
X46128415Y-63643319D01*
X46221547Y-63782700D01*
X46285697Y-63937572D01*
X46318400Y-64101984D01*
X46318400Y-64269616D01*
X46285697Y-64434028D01*
X46221547Y-64588900D01*
X46128415Y-64728281D01*
X46009881Y-64846815D01*
X45870500Y-64939947D01*
X45715628Y-65004097D01*
X45551216Y-65036800D01*
X45383584Y-65036800D01*
X45219172Y-65004097D01*
X45064300Y-64939947D01*
X44924919Y-64846815D01*
X44806385Y-64728281D01*
X44713253Y-64588900D01*
X44649103Y-64434028D01*
X44616400Y-64269616D01*
X44616400Y-64101984D01*
X44649103Y-63937572D01*
X44713253Y-63782700D01*
X44806385Y-63643319D01*
X44924919Y-63524785D01*
X45064300Y-63431653D01*
X45219172Y-63367503D01*
X45383584Y-63334800D01*
X45551216Y-63334800D01*
X45715628Y-63367503D01*
G37*
G36*
X48485628Y-63367503D02*
G01*
X48640500Y-63431653D01*
X48779881Y-63524785D01*
X48898415Y-63643319D01*
X48991547Y-63782700D01*
X49055697Y-63937572D01*
X49088400Y-64101984D01*
X49088400Y-64269616D01*
X49055697Y-64434028D01*
X48991547Y-64588900D01*
X48898415Y-64728281D01*
X48779881Y-64846815D01*
X48640500Y-64939947D01*
X48485628Y-65004097D01*
X48321216Y-65036800D01*
X48153584Y-65036800D01*
X47989172Y-65004097D01*
X47834300Y-64939947D01*
X47694919Y-64846815D01*
X47576385Y-64728281D01*
X47483253Y-64588900D01*
X47419103Y-64434028D01*
X47386400Y-64269616D01*
X47386400Y-64101984D01*
X47419103Y-63937572D01*
X47483253Y-63782700D01*
X47576385Y-63643319D01*
X47694919Y-63524785D01*
X47834300Y-63431653D01*
X47989172Y-63367503D01*
X48153584Y-63334800D01*
X48321216Y-63334800D01*
X48485628Y-63367503D01*
G37*
G36*
X51255628Y-63367503D02*
G01*
X51410500Y-63431653D01*
X51549881Y-63524785D01*
X51668415Y-63643319D01*
X51761547Y-63782700D01*
X51825697Y-63937572D01*
X51858400Y-64101984D01*
X51858400Y-64269616D01*
X51825697Y-64434028D01*
X51761547Y-64588900D01*
X51668415Y-64728281D01*
X51549881Y-64846815D01*
X51410500Y-64939947D01*
X51255628Y-65004097D01*
X51091216Y-65036800D01*
X50923584Y-65036800D01*
X50759172Y-65004097D01*
X50604300Y-64939947D01*
X50464919Y-64846815D01*
X50346385Y-64728281D01*
X50253253Y-64588900D01*
X50189103Y-64434028D01*
X50156400Y-64269616D01*
X50156400Y-64101984D01*
X50189103Y-63937572D01*
X50253253Y-63782700D01*
X50346385Y-63643319D01*
X50464919Y-63524785D01*
X50604300Y-63431653D01*
X50759172Y-63367503D01*
X50923584Y-63334800D01*
X51091216Y-63334800D01*
X51255628Y-63367503D01*
G37*
G36*
X60950628Y-60527503D02*
G01*
X61105500Y-60591653D01*
X61244881Y-60684785D01*
X61363415Y-60803319D01*
X61456547Y-60942700D01*
X61520697Y-61097572D01*
X61553400Y-61261984D01*
X61553400Y-61429616D01*
X61520697Y-61594028D01*
X61456547Y-61748900D01*
X61363415Y-61888281D01*
X61244881Y-62006815D01*
X61105500Y-62099947D01*
X60950628Y-62164097D01*
X60786216Y-62196800D01*
X60618584Y-62196800D01*
X60454172Y-62164097D01*
X60299300Y-62099947D01*
X60159919Y-62006815D01*
X60041385Y-61888281D01*
X59948253Y-61748900D01*
X59884103Y-61594028D01*
X59851400Y-61429616D01*
X59851400Y-61261984D01*
X59884103Y-61097572D01*
X59948253Y-60942700D01*
X60041385Y-60803319D01*
X60159919Y-60684785D01*
X60299300Y-60591653D01*
X60454172Y-60527503D01*
X60618584Y-60494800D01*
X60786216Y-60494800D01*
X60950628Y-60527503D01*
G37*
G36*
X63720628Y-60527503D02*
G01*
X63875500Y-60591653D01*
X64014881Y-60684785D01*
X64133415Y-60803319D01*
X64226547Y-60942700D01*
X64290697Y-61097572D01*
X64323400Y-61261984D01*
X64323400Y-61429616D01*
X64290697Y-61594028D01*
X64226547Y-61748900D01*
X64133415Y-61888281D01*
X64014881Y-62006815D01*
X63875500Y-62099947D01*
X63720628Y-62164097D01*
X63556216Y-62196800D01*
X63388584Y-62196800D01*
X63224172Y-62164097D01*
X63069300Y-62099947D01*
X62929919Y-62006815D01*
X62811385Y-61888281D01*
X62718253Y-61748900D01*
X62654103Y-61594028D01*
X62621400Y-61429616D01*
X62621400Y-61261984D01*
X62654103Y-61097572D01*
X62718253Y-60942700D01*
X62811385Y-60803319D01*
X62929919Y-60684785D01*
X63069300Y-60591653D01*
X63224172Y-60527503D01*
X63388584Y-60494800D01*
X63556216Y-60494800D01*
X63720628Y-60527503D01*
G37*
G36*
X66490628Y-60527503D02*
G01*
X66645500Y-60591653D01*
X66784881Y-60684785D01*
X66903415Y-60803319D01*
X66996547Y-60942700D01*
X67060697Y-61097572D01*
X67093400Y-61261984D01*
X67093400Y-61429616D01*
X67060697Y-61594028D01*
X66996547Y-61748900D01*
X66903415Y-61888281D01*
X66784881Y-62006815D01*
X66645500Y-62099947D01*
X66490628Y-62164097D01*
X66326216Y-62196800D01*
X66158584Y-62196800D01*
X65994172Y-62164097D01*
X65839300Y-62099947D01*
X65699919Y-62006815D01*
X65581385Y-61888281D01*
X65488253Y-61748900D01*
X65424103Y-61594028D01*
X65391400Y-61429616D01*
X65391400Y-61261984D01*
X65424103Y-61097572D01*
X65488253Y-60942700D01*
X65581385Y-60803319D01*
X65699919Y-60684785D01*
X65839300Y-60591653D01*
X65994172Y-60527503D01*
X66158584Y-60494800D01*
X66326216Y-60494800D01*
X66490628Y-60527503D01*
G37*
G36*
X69260628Y-60527503D02*
G01*
X69415500Y-60591653D01*
X69554881Y-60684785D01*
X69673415Y-60803319D01*
X69766547Y-60942700D01*
X69830697Y-61097572D01*
X69863400Y-61261984D01*
X69863400Y-61429616D01*
X69830697Y-61594028D01*
X69766547Y-61748900D01*
X69673415Y-61888281D01*
X69554881Y-62006815D01*
X69415500Y-62099947D01*
X69260628Y-62164097D01*
X69096216Y-62196800D01*
X68928584Y-62196800D01*
X68764172Y-62164097D01*
X68609300Y-62099947D01*
X68469919Y-62006815D01*
X68351385Y-61888281D01*
X68258253Y-61748900D01*
X68194103Y-61594028D01*
X68161400Y-61429616D01*
X68161400Y-61261984D01*
X68194103Y-61097572D01*
X68258253Y-60942700D01*
X68351385Y-60803319D01*
X68469919Y-60684785D01*
X68609300Y-60591653D01*
X68764172Y-60527503D01*
X68928584Y-60494800D01*
X69096216Y-60494800D01*
X69260628Y-60527503D01*
G37*
G36*
X72030628Y-60527503D02*
G01*
X72185500Y-60591653D01*
X72324881Y-60684785D01*
X72443415Y-60803319D01*
X72536547Y-60942700D01*
X72600697Y-61097572D01*
X72633400Y-61261984D01*
X72633400Y-61429616D01*
X72600697Y-61594028D01*
X72536547Y-61748900D01*
X72443415Y-61888281D01*
X72324881Y-62006815D01*
X72185500Y-62099947D01*
X72030628Y-62164097D01*
X71866216Y-62196800D01*
X71698584Y-62196800D01*
X71534172Y-62164097D01*
X71379300Y-62099947D01*
X71239919Y-62006815D01*
X71121385Y-61888281D01*
X71028253Y-61748900D01*
X70964103Y-61594028D01*
X70931400Y-61429616D01*
X70931400Y-61261984D01*
X70964103Y-61097572D01*
X71028253Y-60942700D01*
X71121385Y-60803319D01*
X71239919Y-60684785D01*
X71379300Y-60591653D01*
X71534172Y-60527503D01*
X71698584Y-60494800D01*
X71866216Y-60494800D01*
X72030628Y-60527503D01*
G37*
G36*
X74800628Y-60527503D02*
G01*
X74955500Y-60591653D01*
X75094881Y-60684785D01*
X75213415Y-60803319D01*
X75306547Y-60942700D01*
X75370697Y-61097572D01*
X75403400Y-61261984D01*
X75403400Y-61429616D01*
X75370697Y-61594028D01*
X75306547Y-61748900D01*
X75213415Y-61888281D01*
X75094881Y-62006815D01*
X74955500Y-62099947D01*
X74800628Y-62164097D01*
X74636216Y-62196800D01*
X74468584Y-62196800D01*
X74304172Y-62164097D01*
X74149300Y-62099947D01*
X74009919Y-62006815D01*
X73891385Y-61888281D01*
X73798253Y-61748900D01*
X73734103Y-61594028D01*
X73701400Y-61429616D01*
X73701400Y-61261984D01*
X73734103Y-61097572D01*
X73798253Y-60942700D01*
X73891385Y-60803319D01*
X74009919Y-60684785D01*
X74149300Y-60591653D01*
X74304172Y-60527503D01*
X74468584Y-60494800D01*
X74636216Y-60494800D01*
X74800628Y-60527503D01*
G37*
G36*
X58180628Y-60527503D02*
G01*
X58335500Y-60591653D01*
X58474881Y-60684785D01*
X58593415Y-60803319D01*
X58686547Y-60942700D01*
X58750697Y-61097572D01*
X58783400Y-61261984D01*
X58783400Y-61429616D01*
X58750697Y-61594028D01*
X58686547Y-61748900D01*
X58593415Y-61888281D01*
X58474881Y-62006815D01*
X58335500Y-62099947D01*
X58180628Y-62164097D01*
X58016216Y-62196800D01*
X57848584Y-62196800D01*
X57684172Y-62164097D01*
X57529300Y-62099947D01*
X57389919Y-62006815D01*
X57271385Y-61888281D01*
X57178253Y-61748900D01*
X57114103Y-61594028D01*
X57081400Y-61429616D01*
X57081400Y-61261984D01*
X57114103Y-61097572D01*
X57178253Y-60942700D01*
X57271385Y-60803319D01*
X57389919Y-60684785D01*
X57529300Y-60591653D01*
X57684172Y-60527503D01*
X57848584Y-60494800D01*
X58016216Y-60494800D01*
X58180628Y-60527503D01*
G37*
G36*
X55410628Y-60527503D02*
G01*
X55565500Y-60591653D01*
X55704881Y-60684785D01*
X55823415Y-60803319D01*
X55916547Y-60942700D01*
X55980697Y-61097572D01*
X56013400Y-61261984D01*
X56013400Y-61429616D01*
X55980697Y-61594028D01*
X55916547Y-61748900D01*
X55823415Y-61888281D01*
X55704881Y-62006815D01*
X55565500Y-62099947D01*
X55410628Y-62164097D01*
X55246216Y-62196800D01*
X55078584Y-62196800D01*
X54914172Y-62164097D01*
X54759300Y-62099947D01*
X54619919Y-62006815D01*
X54501385Y-61888281D01*
X54408253Y-61748900D01*
X54344103Y-61594028D01*
X54311400Y-61429616D01*
X54311400Y-61261984D01*
X54344103Y-61097572D01*
X54408253Y-60942700D01*
X54501385Y-60803319D01*
X54619919Y-60684785D01*
X54759300Y-60591653D01*
X54914172Y-60527503D01*
X55078584Y-60494800D01*
X55246216Y-60494800D01*
X55410628Y-60527503D01*
G37*
G36*
X52640628Y-60527503D02*
G01*
X52795500Y-60591653D01*
X52934881Y-60684785D01*
X53053415Y-60803319D01*
X53146547Y-60942700D01*
X53210697Y-61097572D01*
X53243400Y-61261984D01*
X53243400Y-61429616D01*
X53210697Y-61594028D01*
X53146547Y-61748900D01*
X53053415Y-61888281D01*
X52934881Y-62006815D01*
X52795500Y-62099947D01*
X52640628Y-62164097D01*
X52476216Y-62196800D01*
X52308584Y-62196800D01*
X52144172Y-62164097D01*
X51989300Y-62099947D01*
X51849919Y-62006815D01*
X51731385Y-61888281D01*
X51638253Y-61748900D01*
X51574103Y-61594028D01*
X51541400Y-61429616D01*
X51541400Y-61261984D01*
X51574103Y-61097572D01*
X51638253Y-60942700D01*
X51731385Y-60803319D01*
X51849919Y-60684785D01*
X51989300Y-60591653D01*
X52144172Y-60527503D01*
X52308584Y-60494800D01*
X52476216Y-60494800D01*
X52640628Y-60527503D01*
G37*
G36*
X49870628Y-60527503D02*
G01*
X50025500Y-60591653D01*
X50164881Y-60684785D01*
X50283415Y-60803319D01*
X50376547Y-60942700D01*
X50440697Y-61097572D01*
X50473400Y-61261984D01*
X50473400Y-61429616D01*
X50440697Y-61594028D01*
X50376547Y-61748900D01*
X50283415Y-61888281D01*
X50164881Y-62006815D01*
X50025500Y-62099947D01*
X49870628Y-62164097D01*
X49706216Y-62196800D01*
X49538584Y-62196800D01*
X49374172Y-62164097D01*
X49219300Y-62099947D01*
X49079919Y-62006815D01*
X48961385Y-61888281D01*
X48868253Y-61748900D01*
X48804103Y-61594028D01*
X48771400Y-61429616D01*
X48771400Y-61261984D01*
X48804103Y-61097572D01*
X48868253Y-60942700D01*
X48961385Y-60803319D01*
X49079919Y-60684785D01*
X49219300Y-60591653D01*
X49374172Y-60527503D01*
X49538584Y-60494800D01*
X49706216Y-60494800D01*
X49870628Y-60527503D01*
G37*
G36*
X47100628Y-60527503D02*
G01*
X47255500Y-60591653D01*
X47394881Y-60684785D01*
X47513415Y-60803319D01*
X47606547Y-60942700D01*
X47670697Y-61097572D01*
X47703400Y-61261984D01*
X47703400Y-61429616D01*
X47670697Y-61594028D01*
X47606547Y-61748900D01*
X47513415Y-61888281D01*
X47394881Y-62006815D01*
X47255500Y-62099947D01*
X47100628Y-62164097D01*
X46936216Y-62196800D01*
X46768584Y-62196800D01*
X46604172Y-62164097D01*
X46449300Y-62099947D01*
X46309919Y-62006815D01*
X46191385Y-61888281D01*
X46098253Y-61748900D01*
X46034103Y-61594028D01*
X46001400Y-61429616D01*
X46001400Y-61261984D01*
X46034103Y-61097572D01*
X46098253Y-60942700D01*
X46191385Y-60803319D01*
X46309919Y-60684785D01*
X46449300Y-60591653D01*
X46604172Y-60527503D01*
X46768584Y-60494800D01*
X46936216Y-60494800D01*
X47100628Y-60527503D01*
G37*
G36*
X44330628Y-60527503D02*
G01*
X44485500Y-60591653D01*
X44624881Y-60684785D01*
X44743415Y-60803319D01*
X44836547Y-60942700D01*
X44900697Y-61097572D01*
X44933400Y-61261984D01*
X44933400Y-61429616D01*
X44900697Y-61594028D01*
X44836547Y-61748900D01*
X44743415Y-61888281D01*
X44624881Y-62006815D01*
X44485500Y-62099947D01*
X44330628Y-62164097D01*
X44166216Y-62196800D01*
X43998584Y-62196800D01*
X43834172Y-62164097D01*
X43679300Y-62099947D01*
X43539919Y-62006815D01*
X43421385Y-61888281D01*
X43328253Y-61748900D01*
X43264103Y-61594028D01*
X43231400Y-61429616D01*
X43231400Y-61261984D01*
X43264103Y-61097572D01*
X43328253Y-60942700D01*
X43421385Y-60803319D01*
X43539919Y-60684785D01*
X43679300Y-60591653D01*
X43834172Y-60527503D01*
X43998584Y-60494800D01*
X44166216Y-60494800D01*
X44330628Y-60527503D01*
G37*
M02*
