G04 #@! TF.GenerationSoftware,KiCad,Pcbnew,(5.1.5-0-10_14)*
G04 #@! TF.CreationDate,2021-04-02T15:52:58+11:00*
G04 #@! TF.ProjectId,Pi_Zero_RS232_DB25_Hat,50695f5a-6572-46f5-9f52-533233325f44,rev?*
G04 #@! TF.SameCoordinates,Original*
G04 #@! TF.FileFunction,Legend,Top*
G04 #@! TF.FilePolarity,Positive*
%FSLAX46Y46*%
G04 Gerber Fmt 4.6, Leading zero omitted, Abs format (unit mm)*
G04 Created by KiCad (PCBNEW (5.1.5-0-10_14)) date 2021-04-02 15:52:58*
%MOMM*%
%LPD*%
G04 APERTURE LIST*
%ADD10C,0.120000*%
%ADD11C,0.150000*%
G04 APERTURE END LIST*
D10*
X63924548Y-76506000D02*
X64447052Y-76506000D01*
X63924548Y-77926000D02*
X64447052Y-77926000D01*
X70934948Y-76556800D02*
X71457452Y-76556800D01*
X70934948Y-77976800D02*
X71457452Y-77976800D01*
X78935948Y-77849800D02*
X79458452Y-77849800D01*
X78935948Y-76429800D02*
X79458452Y-76429800D01*
X78935948Y-82625000D02*
X79458452Y-82625000D01*
X78935948Y-81205000D02*
X79458452Y-81205000D01*
X78935948Y-85929400D02*
X79458452Y-85929400D01*
X78935948Y-87349400D02*
X79458452Y-87349400D01*
X33658500Y-74037500D02*
X33658500Y-71437500D01*
X33658500Y-74037500D02*
X84578500Y-74037500D01*
X84578500Y-74037500D02*
X84578500Y-68837500D01*
X36258500Y-68837500D02*
X84578500Y-68837500D01*
X36258500Y-71437500D02*
X36258500Y-68837500D01*
X33658500Y-71437500D02*
X36258500Y-71437500D01*
X33658500Y-68837500D02*
X34988500Y-68837500D01*
X33658500Y-70167500D02*
X33658500Y-68837500D01*
X85927400Y-56465800D02*
X85927400Y-66945800D01*
X85927400Y-66945800D02*
X32707400Y-66945800D01*
X32707400Y-66945800D02*
X32707400Y-56465800D01*
X42947400Y-67840138D02*
X42447400Y-67840138D01*
X42447400Y-67840138D02*
X42697400Y-67407125D01*
X42697400Y-67407125D02*
X42947400Y-67840138D01*
X71424800Y-81452400D02*
X69474800Y-81452400D01*
X71424800Y-81452400D02*
X73374800Y-81452400D01*
X71424800Y-91572400D02*
X69474800Y-91572400D01*
X71424800Y-91572400D02*
X74874800Y-91572400D01*
D11*
X64019133Y-75923142D02*
X63971514Y-75970761D01*
X63828657Y-76018380D01*
X63733419Y-76018380D01*
X63590561Y-75970761D01*
X63495323Y-75875523D01*
X63447704Y-75780285D01*
X63400085Y-75589809D01*
X63400085Y-75446952D01*
X63447704Y-75256476D01*
X63495323Y-75161238D01*
X63590561Y-75066000D01*
X63733419Y-75018380D01*
X63828657Y-75018380D01*
X63971514Y-75066000D01*
X64019133Y-75113619D01*
X64971514Y-76018380D02*
X64400085Y-76018380D01*
X64685800Y-76018380D02*
X64685800Y-75018380D01*
X64590561Y-75161238D01*
X64495323Y-75256476D01*
X64400085Y-75304095D01*
X71029533Y-75973942D02*
X70981914Y-76021561D01*
X70839057Y-76069180D01*
X70743819Y-76069180D01*
X70600961Y-76021561D01*
X70505723Y-75926323D01*
X70458104Y-75831085D01*
X70410485Y-75640609D01*
X70410485Y-75497752D01*
X70458104Y-75307276D01*
X70505723Y-75212038D01*
X70600961Y-75116800D01*
X70743819Y-75069180D01*
X70839057Y-75069180D01*
X70981914Y-75116800D01*
X71029533Y-75164419D01*
X71410485Y-75164419D02*
X71458104Y-75116800D01*
X71553342Y-75069180D01*
X71791438Y-75069180D01*
X71886676Y-75116800D01*
X71934295Y-75164419D01*
X71981914Y-75259657D01*
X71981914Y-75354895D01*
X71934295Y-75497752D01*
X71362866Y-76069180D01*
X71981914Y-76069180D01*
X79030533Y-75846942D02*
X78982914Y-75894561D01*
X78840057Y-75942180D01*
X78744819Y-75942180D01*
X78601961Y-75894561D01*
X78506723Y-75799323D01*
X78459104Y-75704085D01*
X78411485Y-75513609D01*
X78411485Y-75370752D01*
X78459104Y-75180276D01*
X78506723Y-75085038D01*
X78601961Y-74989800D01*
X78744819Y-74942180D01*
X78840057Y-74942180D01*
X78982914Y-74989800D01*
X79030533Y-75037419D01*
X79363866Y-74942180D02*
X79982914Y-74942180D01*
X79649580Y-75323133D01*
X79792438Y-75323133D01*
X79887676Y-75370752D01*
X79935295Y-75418371D01*
X79982914Y-75513609D01*
X79982914Y-75751704D01*
X79935295Y-75846942D01*
X79887676Y-75894561D01*
X79792438Y-75942180D01*
X79506723Y-75942180D01*
X79411485Y-75894561D01*
X79363866Y-75846942D01*
X79030533Y-80622142D02*
X78982914Y-80669761D01*
X78840057Y-80717380D01*
X78744819Y-80717380D01*
X78601961Y-80669761D01*
X78506723Y-80574523D01*
X78459104Y-80479285D01*
X78411485Y-80288809D01*
X78411485Y-80145952D01*
X78459104Y-79955476D01*
X78506723Y-79860238D01*
X78601961Y-79765000D01*
X78744819Y-79717380D01*
X78840057Y-79717380D01*
X78982914Y-79765000D01*
X79030533Y-79812619D01*
X79887676Y-80050714D02*
X79887676Y-80717380D01*
X79649580Y-79669761D02*
X79411485Y-80384047D01*
X80030533Y-80384047D01*
X79030533Y-85346542D02*
X78982914Y-85394161D01*
X78840057Y-85441780D01*
X78744819Y-85441780D01*
X78601961Y-85394161D01*
X78506723Y-85298923D01*
X78459104Y-85203685D01*
X78411485Y-85013209D01*
X78411485Y-84870352D01*
X78459104Y-84679876D01*
X78506723Y-84584638D01*
X78601961Y-84489400D01*
X78744819Y-84441780D01*
X78840057Y-84441780D01*
X78982914Y-84489400D01*
X79030533Y-84537019D01*
X79935295Y-84441780D02*
X79459104Y-84441780D01*
X79411485Y-84917971D01*
X79459104Y-84870352D01*
X79554342Y-84822733D01*
X79792438Y-84822733D01*
X79887676Y-84870352D01*
X79935295Y-84917971D01*
X79982914Y-85013209D01*
X79982914Y-85251304D01*
X79935295Y-85346542D01*
X79887676Y-85394161D01*
X79792438Y-85441780D01*
X79554342Y-85441780D01*
X79459104Y-85394161D01*
X79411485Y-85346542D01*
X32319980Y-71656533D02*
X33034266Y-71656533D01*
X33177123Y-71704152D01*
X33272361Y-71799390D01*
X33319980Y-71942247D01*
X33319980Y-72037485D01*
X33319980Y-70656533D02*
X33319980Y-71227961D01*
X33319980Y-70942247D02*
X32319980Y-70942247D01*
X32462838Y-71037485D01*
X32558076Y-71132723D01*
X32605695Y-71227961D01*
X58984066Y-68464180D02*
X58984066Y-69178466D01*
X58936447Y-69321323D01*
X58841209Y-69416561D01*
X58698352Y-69464180D01*
X58603114Y-69464180D01*
X59412638Y-68559419D02*
X59460257Y-68511800D01*
X59555495Y-68464180D01*
X59793590Y-68464180D01*
X59888828Y-68511800D01*
X59936447Y-68559419D01*
X59984066Y-68654657D01*
X59984066Y-68749895D01*
X59936447Y-68892752D01*
X59365019Y-69464180D01*
X59984066Y-69464180D01*
X70662895Y-91864780D02*
X70662895Y-92674304D01*
X70710514Y-92769542D01*
X70758133Y-92817161D01*
X70853371Y-92864780D01*
X71043847Y-92864780D01*
X71139085Y-92817161D01*
X71186704Y-92769542D01*
X71234323Y-92674304D01*
X71234323Y-91864780D01*
X72234323Y-92864780D02*
X71662895Y-92864780D01*
X71948609Y-92864780D02*
X71948609Y-91864780D01*
X71853371Y-92007638D01*
X71758133Y-92102876D01*
X71662895Y-92150495D01*
M02*
