G04 #@! TF.GenerationSoftware,KiCad,Pcbnew,(5.1.5-0-10_14)*
G04 #@! TF.CreationDate,2021-04-02T15:52:58+11:00*
G04 #@! TF.ProjectId,Pi_Zero_RS232_DB25_Hat,50695f5a-6572-46f5-9f52-533233325f44,rev?*
G04 #@! TF.SameCoordinates,Original*
G04 #@! TF.FileFunction,Copper,L2,Bot*
G04 #@! TF.FilePolarity,Positive*
%FSLAX46Y46*%
G04 Gerber Fmt 4.6, Leading zero omitted, Abs format (unit mm)*
G04 Created by KiCad (PCBNEW (5.1.5-0-10_14)) date 2021-04-02 15:52:58*
%MOMM*%
%LPD*%
G04 APERTURE LIST*
%ADD10R,1.700000X1.700000*%
%ADD11O,1.700000X1.700000*%
%ADD12R,1.600000X1.600000*%
%ADD13C,1.600000*%
%ADD14C,4.000000*%
%ADD15C,0.800000*%
%ADD16C,0.250000*%
%ADD17C,0.254000*%
G04 APERTURE END LIST*
D10*
X34988500Y-70167500D03*
D11*
X34988500Y-72707500D03*
X37528500Y-70167500D03*
X37528500Y-72707500D03*
X40068500Y-70167500D03*
X40068500Y-72707500D03*
X42608500Y-70167500D03*
X42608500Y-72707500D03*
X45148500Y-70167500D03*
X45148500Y-72707500D03*
X47688500Y-70167500D03*
X47688500Y-72707500D03*
X50228500Y-70167500D03*
X50228500Y-72707500D03*
X52768500Y-70167500D03*
X52768500Y-72707500D03*
X55308500Y-70167500D03*
X55308500Y-72707500D03*
X57848500Y-70167500D03*
X57848500Y-72707500D03*
X60388500Y-70167500D03*
X60388500Y-72707500D03*
X62928500Y-70167500D03*
X62928500Y-72707500D03*
X65468500Y-70167500D03*
X65468500Y-72707500D03*
X68008500Y-70167500D03*
X68008500Y-72707500D03*
X70548500Y-70167500D03*
X70548500Y-72707500D03*
X73088500Y-70167500D03*
X73088500Y-72707500D03*
X75628500Y-70167500D03*
X75628500Y-72707500D03*
X78168500Y-70167500D03*
X78168500Y-72707500D03*
X80708500Y-70167500D03*
X80708500Y-72707500D03*
X83248500Y-70167500D03*
X83248500Y-72707500D03*
D12*
X42697400Y-64185800D03*
D13*
X45467400Y-64185800D03*
X48237400Y-64185800D03*
X51007400Y-64185800D03*
X53777400Y-64185800D03*
X56547400Y-64185800D03*
X59317400Y-64185800D03*
X62087400Y-64185800D03*
X64857400Y-64185800D03*
X67627400Y-64185800D03*
X70397400Y-64185800D03*
X73167400Y-64185800D03*
X75937400Y-64185800D03*
X44082400Y-61345800D03*
X46852400Y-61345800D03*
X49622400Y-61345800D03*
X52392400Y-61345800D03*
X55162400Y-61345800D03*
X57932400Y-61345800D03*
X60702400Y-61345800D03*
X63472400Y-61345800D03*
X66242400Y-61345800D03*
X69012400Y-61345800D03*
X71782400Y-61345800D03*
X74552400Y-61345800D03*
D14*
X82867400Y-63885800D03*
X35767400Y-63885800D03*
D15*
X66548000Y-81342400D03*
X70916800Y-91037410D03*
X70688387Y-85877766D03*
X67564000Y-79095600D03*
X71653400Y-82194400D03*
X72009000Y-88239600D03*
X81610200Y-84861400D03*
X77266800Y-84937600D03*
X76174600Y-75996800D03*
X76174600Y-87122000D03*
X76936600Y-89382600D03*
X70053200Y-92227400D03*
X66116200Y-85293200D03*
X75412600Y-80695800D03*
D16*
X66947999Y-81742399D02*
X66947999Y-88525401D01*
X66548000Y-81342400D02*
X66947999Y-81742399D01*
X69460008Y-91037410D02*
X70916800Y-91037410D01*
X66947999Y-88525401D02*
X69460008Y-91037410D01*
X70688387Y-85877766D02*
X70688387Y-82245387D01*
X67564000Y-79121000D02*
X67564000Y-79095600D01*
X70688387Y-82245387D02*
X67564000Y-79121000D01*
X71653400Y-87884000D02*
X72009000Y-88239600D01*
X71653400Y-82194400D02*
X71653400Y-87884000D01*
X77343000Y-84861400D02*
X77266800Y-84937600D01*
X81610200Y-84861400D02*
X77343000Y-84861400D01*
X76174600Y-75996800D02*
X76174600Y-87122000D01*
X74091800Y-92227400D02*
X70053200Y-92227400D01*
X76936600Y-89382600D02*
X74091800Y-92227400D01*
X54133499Y-73310499D02*
X66116200Y-85293200D01*
X54133499Y-72333497D02*
X54133499Y-73310499D01*
X52394497Y-71532499D02*
X53332501Y-71532499D01*
X53332501Y-71532499D02*
X54133499Y-72333497D01*
X51593499Y-70731501D02*
X52394497Y-71532499D01*
X45467400Y-64185800D02*
X46598770Y-64185800D01*
X46598770Y-64185800D02*
X51593499Y-69180529D01*
X51593499Y-69180529D02*
X51593499Y-70731501D01*
X66833499Y-73271501D02*
X74257798Y-80695800D01*
X66833499Y-72143499D02*
X66833499Y-73271501D01*
X66032501Y-71342501D02*
X66833499Y-72143499D01*
X64293499Y-70731501D02*
X64904499Y-71342501D01*
X64904499Y-71342501D02*
X66032501Y-71342501D01*
X64293499Y-69603499D02*
X64293499Y-70731501D01*
X60000801Y-65310801D02*
X64293499Y-69603499D01*
X74257798Y-80695800D02*
X75412600Y-80695800D01*
X49362401Y-65310801D02*
X60000801Y-65310801D01*
X48237400Y-64185800D02*
X49362401Y-65310801D01*
D17*
G36*
X85192401Y-62641214D02*
G01*
X85081658Y-62434028D01*
X84714899Y-62217906D01*
X83047005Y-63885800D01*
X84714899Y-65553694D01*
X85081658Y-65337572D01*
X85192401Y-65125971D01*
X85192401Y-67953247D01*
X85202313Y-68053883D01*
X85241482Y-68183006D01*
X85305089Y-68302007D01*
X85390690Y-68406311D01*
X85494994Y-68491912D01*
X85613995Y-68555519D01*
X85743118Y-68594688D01*
X85877400Y-68607914D01*
X86011683Y-68594688D01*
X86061422Y-68579600D01*
X91085758Y-68579600D01*
X91110021Y-97257400D01*
X27278042Y-97257400D01*
X27272873Y-94199777D01*
X27688402Y-94199777D01*
X27688402Y-94674623D01*
X27781040Y-95140346D01*
X27962756Y-95579046D01*
X28226566Y-95973867D01*
X28562333Y-96309634D01*
X28957154Y-96573444D01*
X29395854Y-96755160D01*
X29861577Y-96847798D01*
X30336423Y-96847798D01*
X30802146Y-96755160D01*
X31240846Y-96573444D01*
X31635667Y-96309634D01*
X31971434Y-95973867D01*
X32235244Y-95579046D01*
X32416960Y-95140346D01*
X32509598Y-94674623D01*
X32509598Y-94225177D01*
X85727402Y-94225177D01*
X85727402Y-94700023D01*
X85820040Y-95165746D01*
X86001756Y-95604446D01*
X86265566Y-95999267D01*
X86601333Y-96335034D01*
X86996154Y-96598844D01*
X87434854Y-96780560D01*
X87900577Y-96873198D01*
X88375423Y-96873198D01*
X88841146Y-96780560D01*
X89279846Y-96598844D01*
X89674667Y-96335034D01*
X90010434Y-95999267D01*
X90274244Y-95604446D01*
X90455960Y-95165746D01*
X90548598Y-94700023D01*
X90548598Y-94225177D01*
X90455960Y-93759454D01*
X90274244Y-93320754D01*
X90010434Y-92925933D01*
X89674667Y-92590166D01*
X89279846Y-92326356D01*
X88841146Y-92144640D01*
X88375423Y-92052002D01*
X87900577Y-92052002D01*
X87434854Y-92144640D01*
X86996154Y-92326356D01*
X86601333Y-92590166D01*
X86265566Y-92925933D01*
X86001756Y-93320754D01*
X85820040Y-93759454D01*
X85727402Y-94225177D01*
X32509598Y-94225177D01*
X32509598Y-94199777D01*
X32416960Y-93734054D01*
X32235244Y-93295354D01*
X31971434Y-92900533D01*
X31635667Y-92564766D01*
X31240846Y-92300956D01*
X30802146Y-92119240D01*
X30336423Y-92026602D01*
X29861577Y-92026602D01*
X29395854Y-92119240D01*
X28957154Y-92300956D01*
X28562333Y-92564766D01*
X28226566Y-92900533D01*
X27962756Y-93295354D01*
X27781040Y-93734054D01*
X27688402Y-94199777D01*
X27272873Y-94199777D01*
X27233969Y-71187377D01*
X27688402Y-71187377D01*
X27688402Y-71662223D01*
X27781040Y-72127946D01*
X27962756Y-72566646D01*
X28226566Y-72961467D01*
X28562333Y-73297234D01*
X28957154Y-73561044D01*
X29395854Y-73742760D01*
X29861577Y-73835398D01*
X30336423Y-73835398D01*
X30802146Y-73742760D01*
X31240846Y-73561044D01*
X31635667Y-73297234D01*
X31971434Y-72961467D01*
X32235244Y-72566646D01*
X32416960Y-72127946D01*
X32509598Y-71662223D01*
X32509598Y-71187377D01*
X32416960Y-70721654D01*
X32235244Y-70282954D01*
X31971434Y-69888133D01*
X31635667Y-69552366D01*
X31284164Y-69317500D01*
X33500428Y-69317500D01*
X33500428Y-71017500D01*
X33512688Y-71141982D01*
X33548998Y-71261680D01*
X33607963Y-71371994D01*
X33687315Y-71468685D01*
X33784006Y-71548037D01*
X33894320Y-71607002D01*
X33966880Y-71629013D01*
X33835025Y-71760868D01*
X33672510Y-72004089D01*
X33560568Y-72274342D01*
X33503500Y-72561240D01*
X33503500Y-72853760D01*
X33560568Y-73140658D01*
X33672510Y-73410911D01*
X33835025Y-73654132D01*
X34041868Y-73860975D01*
X34285089Y-74023490D01*
X34555342Y-74135432D01*
X34842240Y-74192500D01*
X35134760Y-74192500D01*
X35421658Y-74135432D01*
X35691911Y-74023490D01*
X35935132Y-73860975D01*
X36141975Y-73654132D01*
X36258500Y-73479740D01*
X36375025Y-73654132D01*
X36581868Y-73860975D01*
X36825089Y-74023490D01*
X37095342Y-74135432D01*
X37382240Y-74192500D01*
X37674760Y-74192500D01*
X37961658Y-74135432D01*
X38231911Y-74023490D01*
X38475132Y-73860975D01*
X38681975Y-73654132D01*
X38803695Y-73471966D01*
X38873322Y-73588855D01*
X39068231Y-73805088D01*
X39301580Y-73979141D01*
X39564401Y-74104325D01*
X39711610Y-74148976D01*
X39941500Y-74027655D01*
X39941500Y-72834500D01*
X39921500Y-72834500D01*
X39921500Y-72580500D01*
X39941500Y-72580500D01*
X39941500Y-72560500D01*
X40195500Y-72560500D01*
X40195500Y-72580500D01*
X40215500Y-72580500D01*
X40215500Y-72834500D01*
X40195500Y-72834500D01*
X40195500Y-74027655D01*
X40425390Y-74148976D01*
X40572599Y-74104325D01*
X40835420Y-73979141D01*
X41068769Y-73805088D01*
X41263678Y-73588855D01*
X41333305Y-73471966D01*
X41455025Y-73654132D01*
X41661868Y-73860975D01*
X41905089Y-74023490D01*
X42175342Y-74135432D01*
X42462240Y-74192500D01*
X42754760Y-74192500D01*
X43041658Y-74135432D01*
X43311911Y-74023490D01*
X43555132Y-73860975D01*
X43761975Y-73654132D01*
X43878500Y-73479740D01*
X43995025Y-73654132D01*
X44201868Y-73860975D01*
X44445089Y-74023490D01*
X44715342Y-74135432D01*
X45002240Y-74192500D01*
X45294760Y-74192500D01*
X45581658Y-74135432D01*
X45851911Y-74023490D01*
X46095132Y-73860975D01*
X46301975Y-73654132D01*
X46418500Y-73479740D01*
X46535025Y-73654132D01*
X46741868Y-73860975D01*
X46985089Y-74023490D01*
X47255342Y-74135432D01*
X47542240Y-74192500D01*
X47834760Y-74192500D01*
X48121658Y-74135432D01*
X48391911Y-74023490D01*
X48635132Y-73860975D01*
X48841975Y-73654132D01*
X48963695Y-73471966D01*
X49033322Y-73588855D01*
X49228231Y-73805088D01*
X49461580Y-73979141D01*
X49724401Y-74104325D01*
X49871610Y-74148976D01*
X50101500Y-74027655D01*
X50101500Y-72834500D01*
X50081500Y-72834500D01*
X50081500Y-72580500D01*
X50101500Y-72580500D01*
X50101500Y-72560500D01*
X50355500Y-72560500D01*
X50355500Y-72580500D01*
X50375500Y-72580500D01*
X50375500Y-72834500D01*
X50355500Y-72834500D01*
X50355500Y-74027655D01*
X50585390Y-74148976D01*
X50732599Y-74104325D01*
X50995420Y-73979141D01*
X51228769Y-73805088D01*
X51423678Y-73588855D01*
X51493305Y-73471966D01*
X51615025Y-73654132D01*
X51821868Y-73860975D01*
X52065089Y-74023490D01*
X52335342Y-74135432D01*
X52622240Y-74192500D01*
X52914760Y-74192500D01*
X53201658Y-74135432D01*
X53471911Y-74023490D01*
X53651615Y-73903416D01*
X65081200Y-85333002D01*
X65081200Y-85395139D01*
X65120974Y-85595098D01*
X65198995Y-85783456D01*
X65312263Y-85952974D01*
X65456426Y-86097137D01*
X65625944Y-86210405D01*
X65814302Y-86288426D01*
X66014261Y-86328200D01*
X66188000Y-86328200D01*
X66188000Y-88488069D01*
X66184323Y-88525401D01*
X66188000Y-88562734D01*
X66194980Y-88633597D01*
X66198997Y-88674386D01*
X66242453Y-88817647D01*
X66313025Y-88949677D01*
X66384200Y-89036403D01*
X66407999Y-89065402D01*
X66436997Y-89089200D01*
X68896209Y-91548413D01*
X68920007Y-91577411D01*
X69035732Y-91672384D01*
X69141493Y-91728915D01*
X69135995Y-91737144D01*
X69057974Y-91925502D01*
X69018200Y-92125461D01*
X69018200Y-92329339D01*
X69057974Y-92529298D01*
X69135995Y-92717656D01*
X69249263Y-92887174D01*
X69393426Y-93031337D01*
X69562944Y-93144605D01*
X69751302Y-93222626D01*
X69951261Y-93262400D01*
X70155139Y-93262400D01*
X70355098Y-93222626D01*
X70543456Y-93144605D01*
X70712974Y-93031337D01*
X70756911Y-92987400D01*
X74054478Y-92987400D01*
X74091800Y-92991076D01*
X74129122Y-92987400D01*
X74129133Y-92987400D01*
X74240786Y-92976403D01*
X74384047Y-92932946D01*
X74516076Y-92862374D01*
X74631801Y-92767401D01*
X74655604Y-92738397D01*
X76976402Y-90417600D01*
X77038539Y-90417600D01*
X77238498Y-90377826D01*
X77426856Y-90299805D01*
X77596374Y-90186537D01*
X77740537Y-90042374D01*
X77853805Y-89872856D01*
X77931826Y-89684498D01*
X77971600Y-89484539D01*
X77971600Y-89280661D01*
X77931826Y-89080702D01*
X77853805Y-88892344D01*
X77740537Y-88722826D01*
X77596374Y-88578663D01*
X77426856Y-88465395D01*
X77238498Y-88387374D01*
X77038539Y-88347600D01*
X76834661Y-88347600D01*
X76634702Y-88387374D01*
X76446344Y-88465395D01*
X76276826Y-88578663D01*
X76132663Y-88722826D01*
X76019395Y-88892344D01*
X75941374Y-89080702D01*
X75901600Y-89280661D01*
X75901600Y-89342798D01*
X73776999Y-91467400D01*
X71858968Y-91467400D01*
X71912026Y-91339308D01*
X71951800Y-91139349D01*
X71951800Y-90935471D01*
X71912026Y-90735512D01*
X71834005Y-90547154D01*
X71720737Y-90377636D01*
X71576574Y-90233473D01*
X71407056Y-90120205D01*
X71218698Y-90042184D01*
X71018739Y-90002410D01*
X70814861Y-90002410D01*
X70614902Y-90042184D01*
X70426544Y-90120205D01*
X70257026Y-90233473D01*
X70213089Y-90277410D01*
X69774810Y-90277410D01*
X67707999Y-88210600D01*
X67707999Y-81779721D01*
X67711675Y-81742398D01*
X67707999Y-81705076D01*
X67707999Y-81705066D01*
X67697002Y-81593413D01*
X67653545Y-81450152D01*
X67583000Y-81318174D01*
X67583000Y-81240461D01*
X67543226Y-81040502D01*
X67465205Y-80852144D01*
X67351937Y-80682626D01*
X67207774Y-80538463D01*
X67038256Y-80425195D01*
X66849898Y-80347174D01*
X66649939Y-80307400D01*
X66446061Y-80307400D01*
X66246102Y-80347174D01*
X66057744Y-80425195D01*
X65888226Y-80538463D01*
X65744063Y-80682626D01*
X65630795Y-80852144D01*
X65552774Y-81040502D01*
X65513000Y-81240461D01*
X65513000Y-81444339D01*
X65552774Y-81644298D01*
X65630795Y-81832656D01*
X65744063Y-82002174D01*
X65888226Y-82146337D01*
X66057744Y-82259605D01*
X66187999Y-82313559D01*
X66187999Y-84258200D01*
X66156002Y-84258200D01*
X60891463Y-78993661D01*
X66529000Y-78993661D01*
X66529000Y-79197539D01*
X66568774Y-79397498D01*
X66646795Y-79585856D01*
X66760063Y-79755374D01*
X66904226Y-79899537D01*
X67073744Y-80012805D01*
X67262102Y-80090826D01*
X67462061Y-80130600D01*
X67498799Y-80130600D01*
X69928388Y-82560191D01*
X69928387Y-85174055D01*
X69884450Y-85217992D01*
X69771182Y-85387510D01*
X69693161Y-85575868D01*
X69653387Y-85775827D01*
X69653387Y-85979705D01*
X69693161Y-86179664D01*
X69771182Y-86368022D01*
X69884450Y-86537540D01*
X70028613Y-86681703D01*
X70198131Y-86794971D01*
X70386489Y-86872992D01*
X70586448Y-86912766D01*
X70790326Y-86912766D01*
X70893401Y-86892263D01*
X70893401Y-87846668D01*
X70889724Y-87884000D01*
X70893401Y-87921333D01*
X70904398Y-88032986D01*
X70917580Y-88076442D01*
X70947854Y-88176246D01*
X70974000Y-88225161D01*
X70974000Y-88341539D01*
X71013774Y-88541498D01*
X71091795Y-88729856D01*
X71205063Y-88899374D01*
X71349226Y-89043537D01*
X71518744Y-89156805D01*
X71707102Y-89234826D01*
X71907061Y-89274600D01*
X72110939Y-89274600D01*
X72310898Y-89234826D01*
X72499256Y-89156805D01*
X72668774Y-89043537D01*
X72812937Y-88899374D01*
X72926205Y-88729856D01*
X73004226Y-88541498D01*
X73044000Y-88341539D01*
X73044000Y-88137661D01*
X73004226Y-87937702D01*
X72926205Y-87749344D01*
X72812937Y-87579826D01*
X72668774Y-87435663D01*
X72499256Y-87322395D01*
X72413400Y-87286832D01*
X72413400Y-82898111D01*
X72457337Y-82854174D01*
X72570605Y-82684656D01*
X72648626Y-82496298D01*
X72688400Y-82296339D01*
X72688400Y-82092461D01*
X72648626Y-81892502D01*
X72570605Y-81704144D01*
X72457337Y-81534626D01*
X72313174Y-81390463D01*
X72143656Y-81277195D01*
X71955298Y-81199174D01*
X71755339Y-81159400D01*
X71551461Y-81159400D01*
X71351502Y-81199174D01*
X71163144Y-81277195D01*
X70993626Y-81390463D01*
X70950946Y-81433143D01*
X68599000Y-79081199D01*
X68599000Y-78993661D01*
X68559226Y-78793702D01*
X68481205Y-78605344D01*
X68367937Y-78435826D01*
X68223774Y-78291663D01*
X68054256Y-78178395D01*
X67865898Y-78100374D01*
X67665939Y-78060600D01*
X67462061Y-78060600D01*
X67262102Y-78100374D01*
X67073744Y-78178395D01*
X66904226Y-78291663D01*
X66760063Y-78435826D01*
X66646795Y-78605344D01*
X66568774Y-78793702D01*
X66529000Y-78993661D01*
X60891463Y-78993661D01*
X55947833Y-74050032D01*
X56011911Y-74023490D01*
X56255132Y-73860975D01*
X56461975Y-73654132D01*
X56583695Y-73471966D01*
X56653322Y-73588855D01*
X56848231Y-73805088D01*
X57081580Y-73979141D01*
X57344401Y-74104325D01*
X57491610Y-74148976D01*
X57721500Y-74027655D01*
X57721500Y-72834500D01*
X57701500Y-72834500D01*
X57701500Y-72580500D01*
X57721500Y-72580500D01*
X57721500Y-72560500D01*
X57975500Y-72560500D01*
X57975500Y-72580500D01*
X57995500Y-72580500D01*
X57995500Y-72834500D01*
X57975500Y-72834500D01*
X57975500Y-74027655D01*
X58205390Y-74148976D01*
X58352599Y-74104325D01*
X58615420Y-73979141D01*
X58848769Y-73805088D01*
X59043678Y-73588855D01*
X59113305Y-73471966D01*
X59235025Y-73654132D01*
X59441868Y-73860975D01*
X59685089Y-74023490D01*
X59955342Y-74135432D01*
X60242240Y-74192500D01*
X60534760Y-74192500D01*
X60821658Y-74135432D01*
X61091911Y-74023490D01*
X61335132Y-73860975D01*
X61541975Y-73654132D01*
X61658500Y-73479740D01*
X61775025Y-73654132D01*
X61981868Y-73860975D01*
X62225089Y-74023490D01*
X62495342Y-74135432D01*
X62782240Y-74192500D01*
X63074760Y-74192500D01*
X63361658Y-74135432D01*
X63631911Y-74023490D01*
X63875132Y-73860975D01*
X64081975Y-73654132D01*
X64198500Y-73479740D01*
X64315025Y-73654132D01*
X64521868Y-73860975D01*
X64765089Y-74023490D01*
X65035342Y-74135432D01*
X65322240Y-74192500D01*
X65614760Y-74192500D01*
X65901658Y-74135432D01*
X66171911Y-74023490D01*
X66374992Y-73887795D01*
X73693999Y-81206803D01*
X73717797Y-81235801D01*
X73833522Y-81330774D01*
X73965551Y-81401346D01*
X74108812Y-81444803D01*
X74220465Y-81455800D01*
X74220474Y-81455800D01*
X74257797Y-81459476D01*
X74295120Y-81455800D01*
X74708889Y-81455800D01*
X74752826Y-81499737D01*
X74922344Y-81613005D01*
X75110702Y-81691026D01*
X75310661Y-81730800D01*
X75414601Y-81730800D01*
X75414601Y-86418288D01*
X75370663Y-86462226D01*
X75257395Y-86631744D01*
X75179374Y-86820102D01*
X75139600Y-87020061D01*
X75139600Y-87223939D01*
X75179374Y-87423898D01*
X75257395Y-87612256D01*
X75370663Y-87781774D01*
X75514826Y-87925937D01*
X75684344Y-88039205D01*
X75872702Y-88117226D01*
X76072661Y-88157000D01*
X76276539Y-88157000D01*
X76476498Y-88117226D01*
X76664856Y-88039205D01*
X76834374Y-87925937D01*
X76978537Y-87781774D01*
X77091805Y-87612256D01*
X77169826Y-87423898D01*
X77209600Y-87223939D01*
X77209600Y-87020061D01*
X77169826Y-86820102D01*
X77091805Y-86631744D01*
X76978537Y-86462226D01*
X76934600Y-86418289D01*
X76934600Y-85920274D01*
X76964902Y-85932826D01*
X77164861Y-85972600D01*
X77368739Y-85972600D01*
X77568698Y-85932826D01*
X77757056Y-85854805D01*
X77926574Y-85741537D01*
X78046711Y-85621400D01*
X80906489Y-85621400D01*
X80950426Y-85665337D01*
X81119944Y-85778605D01*
X81308302Y-85856626D01*
X81508261Y-85896400D01*
X81712139Y-85896400D01*
X81912098Y-85856626D01*
X82100456Y-85778605D01*
X82269974Y-85665337D01*
X82414137Y-85521174D01*
X82527405Y-85351656D01*
X82605426Y-85163298D01*
X82645200Y-84963339D01*
X82645200Y-84759461D01*
X82605426Y-84559502D01*
X82527405Y-84371144D01*
X82414137Y-84201626D01*
X82269974Y-84057463D01*
X82100456Y-83944195D01*
X81912098Y-83866174D01*
X81712139Y-83826400D01*
X81508261Y-83826400D01*
X81308302Y-83866174D01*
X81119944Y-83944195D01*
X80950426Y-84057463D01*
X80906489Y-84101400D01*
X77878289Y-84101400D01*
X77757056Y-84020395D01*
X77568698Y-83942374D01*
X77368739Y-83902600D01*
X77164861Y-83902600D01*
X76964902Y-83942374D01*
X76934600Y-83954926D01*
X76934600Y-76700511D01*
X76978537Y-76656574D01*
X77091805Y-76487056D01*
X77169826Y-76298698D01*
X77209600Y-76098739D01*
X77209600Y-75894861D01*
X77169826Y-75694902D01*
X77091805Y-75506544D01*
X76978537Y-75337026D01*
X76834374Y-75192863D01*
X76664856Y-75079595D01*
X76476498Y-75001574D01*
X76276539Y-74961800D01*
X76072661Y-74961800D01*
X75872702Y-75001574D01*
X75684344Y-75079595D01*
X75514826Y-75192863D01*
X75370663Y-75337026D01*
X75257395Y-75506544D01*
X75179374Y-75694902D01*
X75139600Y-75894861D01*
X75139600Y-76098739D01*
X75179374Y-76298698D01*
X75257395Y-76487056D01*
X75370663Y-76656574D01*
X75414600Y-76700511D01*
X75414600Y-79660800D01*
X75310661Y-79660800D01*
X75110702Y-79700574D01*
X74922344Y-79778595D01*
X74752826Y-79891863D01*
X74708889Y-79935800D01*
X74572600Y-79935800D01*
X68675409Y-74038610D01*
X68711911Y-74023490D01*
X68955132Y-73860975D01*
X69161975Y-73654132D01*
X69283695Y-73471966D01*
X69353322Y-73588855D01*
X69548231Y-73805088D01*
X69781580Y-73979141D01*
X70044401Y-74104325D01*
X70191610Y-74148976D01*
X70421500Y-74027655D01*
X70421500Y-72834500D01*
X70401500Y-72834500D01*
X70401500Y-72580500D01*
X70421500Y-72580500D01*
X70421500Y-72560500D01*
X70675500Y-72560500D01*
X70675500Y-72580500D01*
X70695500Y-72580500D01*
X70695500Y-72834500D01*
X70675500Y-72834500D01*
X70675500Y-74027655D01*
X70905390Y-74148976D01*
X71052599Y-74104325D01*
X71315420Y-73979141D01*
X71548769Y-73805088D01*
X71743678Y-73588855D01*
X71813305Y-73471966D01*
X71935025Y-73654132D01*
X72141868Y-73860975D01*
X72385089Y-74023490D01*
X72655342Y-74135432D01*
X72942240Y-74192500D01*
X73234760Y-74192500D01*
X73521658Y-74135432D01*
X73791911Y-74023490D01*
X74035132Y-73860975D01*
X74241975Y-73654132D01*
X74363695Y-73471966D01*
X74433322Y-73588855D01*
X74628231Y-73805088D01*
X74861580Y-73979141D01*
X75124401Y-74104325D01*
X75271610Y-74148976D01*
X75501500Y-74027655D01*
X75501500Y-72834500D01*
X75481500Y-72834500D01*
X75481500Y-72580500D01*
X75501500Y-72580500D01*
X75501500Y-72560500D01*
X75755500Y-72560500D01*
X75755500Y-72580500D01*
X75775500Y-72580500D01*
X75775500Y-72834500D01*
X75755500Y-72834500D01*
X75755500Y-74027655D01*
X75985390Y-74148976D01*
X76132599Y-74104325D01*
X76395420Y-73979141D01*
X76628769Y-73805088D01*
X76823678Y-73588855D01*
X76893305Y-73471966D01*
X77015025Y-73654132D01*
X77221868Y-73860975D01*
X77465089Y-74023490D01*
X77735342Y-74135432D01*
X78022240Y-74192500D01*
X78314760Y-74192500D01*
X78601658Y-74135432D01*
X78871911Y-74023490D01*
X79115132Y-73860975D01*
X79321975Y-73654132D01*
X79438500Y-73479740D01*
X79555025Y-73654132D01*
X79761868Y-73860975D01*
X80005089Y-74023490D01*
X80275342Y-74135432D01*
X80562240Y-74192500D01*
X80854760Y-74192500D01*
X81141658Y-74135432D01*
X81411911Y-74023490D01*
X81655132Y-73860975D01*
X81861975Y-73654132D01*
X81978500Y-73479740D01*
X82095025Y-73654132D01*
X82301868Y-73860975D01*
X82545089Y-74023490D01*
X82815342Y-74135432D01*
X83102240Y-74192500D01*
X83394760Y-74192500D01*
X83681658Y-74135432D01*
X83951911Y-74023490D01*
X84195132Y-73860975D01*
X84401975Y-73654132D01*
X84564490Y-73410911D01*
X84676432Y-73140658D01*
X84733500Y-72853760D01*
X84733500Y-72561240D01*
X84676432Y-72274342D01*
X84564490Y-72004089D01*
X84401975Y-71760868D01*
X84195132Y-71554025D01*
X84019094Y-71436400D01*
X84248769Y-71265088D01*
X84273026Y-71238177D01*
X85727402Y-71238177D01*
X85727402Y-71713023D01*
X85820040Y-72178746D01*
X86001756Y-72617446D01*
X86265566Y-73012267D01*
X86601333Y-73348034D01*
X86996154Y-73611844D01*
X87434854Y-73793560D01*
X87900577Y-73886198D01*
X88375423Y-73886198D01*
X88841146Y-73793560D01*
X89279846Y-73611844D01*
X89674667Y-73348034D01*
X90010434Y-73012267D01*
X90274244Y-72617446D01*
X90455960Y-72178746D01*
X90548598Y-71713023D01*
X90548598Y-71238177D01*
X90455960Y-70772454D01*
X90274244Y-70333754D01*
X90010434Y-69938933D01*
X89674667Y-69603166D01*
X89279846Y-69339356D01*
X88841146Y-69157640D01*
X88375423Y-69065002D01*
X87900577Y-69065002D01*
X87434854Y-69157640D01*
X86996154Y-69339356D01*
X86601333Y-69603166D01*
X86265566Y-69938933D01*
X86001756Y-70333754D01*
X85820040Y-70772454D01*
X85727402Y-71238177D01*
X84273026Y-71238177D01*
X84443678Y-71048855D01*
X84592657Y-70798752D01*
X84689981Y-70524391D01*
X84569314Y-70294500D01*
X83375500Y-70294500D01*
X83375500Y-70314500D01*
X83121500Y-70314500D01*
X83121500Y-70294500D01*
X83101500Y-70294500D01*
X83101500Y-70040500D01*
X83121500Y-70040500D01*
X83121500Y-68847345D01*
X83375500Y-68847345D01*
X83375500Y-70040500D01*
X84569314Y-70040500D01*
X84689981Y-69810609D01*
X84592657Y-69536248D01*
X84443678Y-69286145D01*
X84248769Y-69069912D01*
X84015420Y-68895859D01*
X83752599Y-68770675D01*
X83605390Y-68726024D01*
X83375500Y-68847345D01*
X83121500Y-68847345D01*
X82891610Y-68726024D01*
X82744401Y-68770675D01*
X82481580Y-68895859D01*
X82248231Y-69069912D01*
X82053322Y-69286145D01*
X81983695Y-69403034D01*
X81861975Y-69220868D01*
X81655132Y-69014025D01*
X81411911Y-68851510D01*
X81141658Y-68739568D01*
X80854760Y-68682500D01*
X80562240Y-68682500D01*
X80275342Y-68739568D01*
X80005089Y-68851510D01*
X79761868Y-69014025D01*
X79555025Y-69220868D01*
X79438500Y-69395260D01*
X79321975Y-69220868D01*
X79115132Y-69014025D01*
X78871911Y-68851510D01*
X78601658Y-68739568D01*
X78314760Y-68682500D01*
X78022240Y-68682500D01*
X77735342Y-68739568D01*
X77465089Y-68851510D01*
X77221868Y-69014025D01*
X77015025Y-69220868D01*
X76898500Y-69395260D01*
X76781975Y-69220868D01*
X76575132Y-69014025D01*
X76331911Y-68851510D01*
X76061658Y-68739568D01*
X75774760Y-68682500D01*
X75482240Y-68682500D01*
X75195342Y-68739568D01*
X74925089Y-68851510D01*
X74681868Y-69014025D01*
X74475025Y-69220868D01*
X74358500Y-69395260D01*
X74241975Y-69220868D01*
X74035132Y-69014025D01*
X73791911Y-68851510D01*
X73521658Y-68739568D01*
X73234760Y-68682500D01*
X72942240Y-68682500D01*
X72655342Y-68739568D01*
X72385089Y-68851510D01*
X72141868Y-69014025D01*
X71935025Y-69220868D01*
X71818500Y-69395260D01*
X71701975Y-69220868D01*
X71495132Y-69014025D01*
X71251911Y-68851510D01*
X70981658Y-68739568D01*
X70694760Y-68682500D01*
X70402240Y-68682500D01*
X70115342Y-68739568D01*
X69845089Y-68851510D01*
X69601868Y-69014025D01*
X69395025Y-69220868D01*
X69278500Y-69395260D01*
X69161975Y-69220868D01*
X68955132Y-69014025D01*
X68711911Y-68851510D01*
X68441658Y-68739568D01*
X68154760Y-68682500D01*
X67862240Y-68682500D01*
X67575342Y-68739568D01*
X67305089Y-68851510D01*
X67061868Y-69014025D01*
X66855025Y-69220868D01*
X66733305Y-69403034D01*
X66663678Y-69286145D01*
X66468769Y-69069912D01*
X66235420Y-68895859D01*
X65972599Y-68770675D01*
X65825390Y-68726024D01*
X65595500Y-68847345D01*
X65595500Y-70040500D01*
X65615500Y-70040500D01*
X65615500Y-70294500D01*
X65595500Y-70294500D01*
X65595500Y-70314500D01*
X65341500Y-70314500D01*
X65341500Y-70294500D01*
X65321500Y-70294500D01*
X65321500Y-70040500D01*
X65341500Y-70040500D01*
X65341500Y-68847345D01*
X65111610Y-68726024D01*
X64964401Y-68770675D01*
X64701580Y-68895859D01*
X64678143Y-68913341D01*
X61498101Y-65733299D01*
X81199506Y-65733299D01*
X81415628Y-66100058D01*
X81875505Y-66340738D01*
X82373498Y-66487075D01*
X82890471Y-66533448D01*
X83406559Y-66478073D01*
X83901926Y-66323079D01*
X84319172Y-66100058D01*
X84535294Y-65733299D01*
X82867400Y-64065405D01*
X81199506Y-65733299D01*
X61498101Y-65733299D01*
X60598410Y-64833609D01*
X60674971Y-64671804D01*
X60700612Y-64569511D01*
X60707547Y-64604374D01*
X60815720Y-64865527D01*
X60972763Y-65100559D01*
X61172641Y-65300437D01*
X61407673Y-65457480D01*
X61668826Y-65565653D01*
X61946065Y-65620800D01*
X62228735Y-65620800D01*
X62505974Y-65565653D01*
X62767127Y-65457480D01*
X63002159Y-65300437D01*
X63202037Y-65100559D01*
X63359080Y-64865527D01*
X63467253Y-64604374D01*
X63472400Y-64578499D01*
X63477547Y-64604374D01*
X63585720Y-64865527D01*
X63742763Y-65100559D01*
X63942641Y-65300437D01*
X64177673Y-65457480D01*
X64438826Y-65565653D01*
X64716065Y-65620800D01*
X64998735Y-65620800D01*
X65275974Y-65565653D01*
X65537127Y-65457480D01*
X65772159Y-65300437D01*
X65972037Y-65100559D01*
X66129080Y-64865527D01*
X66237253Y-64604374D01*
X66242400Y-64578499D01*
X66247547Y-64604374D01*
X66355720Y-64865527D01*
X66512763Y-65100559D01*
X66712641Y-65300437D01*
X66947673Y-65457480D01*
X67208826Y-65565653D01*
X67486065Y-65620800D01*
X67768735Y-65620800D01*
X68045974Y-65565653D01*
X68307127Y-65457480D01*
X68542159Y-65300437D01*
X68742037Y-65100559D01*
X68899080Y-64865527D01*
X69007253Y-64604374D01*
X69012400Y-64578499D01*
X69017547Y-64604374D01*
X69125720Y-64865527D01*
X69282763Y-65100559D01*
X69482641Y-65300437D01*
X69717673Y-65457480D01*
X69978826Y-65565653D01*
X70256065Y-65620800D01*
X70538735Y-65620800D01*
X70815974Y-65565653D01*
X71077127Y-65457480D01*
X71312159Y-65300437D01*
X71512037Y-65100559D01*
X71669080Y-64865527D01*
X71777253Y-64604374D01*
X71782400Y-64578499D01*
X71787547Y-64604374D01*
X71895720Y-64865527D01*
X72052763Y-65100559D01*
X72252641Y-65300437D01*
X72487673Y-65457480D01*
X72748826Y-65565653D01*
X73026065Y-65620800D01*
X73308735Y-65620800D01*
X73585974Y-65565653D01*
X73847127Y-65457480D01*
X74082159Y-65300437D01*
X74282037Y-65100559D01*
X74439080Y-64865527D01*
X74547253Y-64604374D01*
X74552400Y-64578499D01*
X74557547Y-64604374D01*
X74665720Y-64865527D01*
X74822763Y-65100559D01*
X75022641Y-65300437D01*
X75257673Y-65457480D01*
X75518826Y-65565653D01*
X75796065Y-65620800D01*
X76078735Y-65620800D01*
X76355974Y-65565653D01*
X76617127Y-65457480D01*
X76852159Y-65300437D01*
X77052037Y-65100559D01*
X77209080Y-64865527D01*
X77317253Y-64604374D01*
X77372400Y-64327135D01*
X77372400Y-64044465D01*
X77345429Y-63908871D01*
X80219752Y-63908871D01*
X80275127Y-64424959D01*
X80430121Y-64920326D01*
X80653142Y-65337572D01*
X81019901Y-65553694D01*
X82687795Y-63885800D01*
X81019901Y-62217906D01*
X80653142Y-62434028D01*
X80412462Y-62893905D01*
X80266125Y-63391898D01*
X80219752Y-63908871D01*
X77345429Y-63908871D01*
X77317253Y-63767226D01*
X77209080Y-63506073D01*
X77052037Y-63271041D01*
X76852159Y-63071163D01*
X76617127Y-62914120D01*
X76355974Y-62805947D01*
X76078735Y-62750800D01*
X75796065Y-62750800D01*
X75518826Y-62805947D01*
X75257673Y-62914120D01*
X75022641Y-63071163D01*
X74822763Y-63271041D01*
X74665720Y-63506073D01*
X74557547Y-63767226D01*
X74552400Y-63793101D01*
X74547253Y-63767226D01*
X74439080Y-63506073D01*
X74282037Y-63271041D01*
X74082159Y-63071163D01*
X73847127Y-62914120D01*
X73585974Y-62805947D01*
X73308735Y-62750800D01*
X73026065Y-62750800D01*
X72748826Y-62805947D01*
X72487673Y-62914120D01*
X72252641Y-63071163D01*
X72052763Y-63271041D01*
X71895720Y-63506073D01*
X71787547Y-63767226D01*
X71782400Y-63793101D01*
X71777253Y-63767226D01*
X71669080Y-63506073D01*
X71512037Y-63271041D01*
X71312159Y-63071163D01*
X71077127Y-62914120D01*
X70815974Y-62805947D01*
X70538735Y-62750800D01*
X70256065Y-62750800D01*
X69978826Y-62805947D01*
X69717673Y-62914120D01*
X69482641Y-63071163D01*
X69282763Y-63271041D01*
X69125720Y-63506073D01*
X69017547Y-63767226D01*
X69012400Y-63793101D01*
X69007253Y-63767226D01*
X68899080Y-63506073D01*
X68742037Y-63271041D01*
X68542159Y-63071163D01*
X68307127Y-62914120D01*
X68045974Y-62805947D01*
X67768735Y-62750800D01*
X67486065Y-62750800D01*
X67208826Y-62805947D01*
X66947673Y-62914120D01*
X66712641Y-63071163D01*
X66512763Y-63271041D01*
X66355720Y-63506073D01*
X66247547Y-63767226D01*
X66242400Y-63793101D01*
X66237253Y-63767226D01*
X66129080Y-63506073D01*
X65972037Y-63271041D01*
X65772159Y-63071163D01*
X65537127Y-62914120D01*
X65275974Y-62805947D01*
X64998735Y-62750800D01*
X64716065Y-62750800D01*
X64438826Y-62805947D01*
X64177673Y-62914120D01*
X63942641Y-63071163D01*
X63742763Y-63271041D01*
X63585720Y-63506073D01*
X63477547Y-63767226D01*
X63472400Y-63793101D01*
X63467253Y-63767226D01*
X63359080Y-63506073D01*
X63202037Y-63271041D01*
X63002159Y-63071163D01*
X62767127Y-62914120D01*
X62505974Y-62805947D01*
X62228735Y-62750800D01*
X61946065Y-62750800D01*
X61668826Y-62805947D01*
X61407673Y-62914120D01*
X61172641Y-63071163D01*
X60972763Y-63271041D01*
X60815720Y-63506073D01*
X60707547Y-63767226D01*
X60701887Y-63795682D01*
X60621003Y-63569508D01*
X60554071Y-63444286D01*
X60310102Y-63372703D01*
X59497005Y-64185800D01*
X59511148Y-64199943D01*
X59331543Y-64379548D01*
X59317400Y-64365405D01*
X59303258Y-64379548D01*
X59123653Y-64199943D01*
X59137795Y-64185800D01*
X58324698Y-63372703D01*
X58080729Y-63444286D01*
X57959829Y-63699796D01*
X57934188Y-63802089D01*
X57927253Y-63767226D01*
X57819080Y-63506073D01*
X57662037Y-63271041D01*
X57584094Y-63193098D01*
X58504303Y-63193098D01*
X59317400Y-64006195D01*
X60130497Y-63193098D01*
X60058914Y-62949129D01*
X59803404Y-62828229D01*
X59529216Y-62759500D01*
X59246888Y-62745583D01*
X58967270Y-62787013D01*
X58701108Y-62882197D01*
X58575886Y-62949129D01*
X58504303Y-63193098D01*
X57584094Y-63193098D01*
X57462159Y-63071163D01*
X57227127Y-62914120D01*
X56965974Y-62805947D01*
X56688735Y-62750800D01*
X56406065Y-62750800D01*
X56128826Y-62805947D01*
X55867673Y-62914120D01*
X55632641Y-63071163D01*
X55432763Y-63271041D01*
X55275720Y-63506073D01*
X55167547Y-63767226D01*
X55162400Y-63793101D01*
X55157253Y-63767226D01*
X55049080Y-63506073D01*
X54892037Y-63271041D01*
X54692159Y-63071163D01*
X54457127Y-62914120D01*
X54195974Y-62805947D01*
X53918735Y-62750800D01*
X53636065Y-62750800D01*
X53358826Y-62805947D01*
X53097673Y-62914120D01*
X52862641Y-63071163D01*
X52662763Y-63271041D01*
X52505720Y-63506073D01*
X52397547Y-63767226D01*
X52392400Y-63793101D01*
X52387253Y-63767226D01*
X52279080Y-63506073D01*
X52122037Y-63271041D01*
X51922159Y-63071163D01*
X51687127Y-62914120D01*
X51425974Y-62805947D01*
X51148735Y-62750800D01*
X50866065Y-62750800D01*
X50588826Y-62805947D01*
X50327673Y-62914120D01*
X50092641Y-63071163D01*
X49892763Y-63271041D01*
X49735720Y-63506073D01*
X49627547Y-63767226D01*
X49622400Y-63793101D01*
X49617253Y-63767226D01*
X49509080Y-63506073D01*
X49352037Y-63271041D01*
X49152159Y-63071163D01*
X48917127Y-62914120D01*
X48655974Y-62805947D01*
X48378735Y-62750800D01*
X48096065Y-62750800D01*
X47818826Y-62805947D01*
X47557673Y-62914120D01*
X47322641Y-63071163D01*
X47122763Y-63271041D01*
X46965720Y-63506073D01*
X46960935Y-63517626D01*
X46891017Y-63480254D01*
X46747756Y-63436797D01*
X46688919Y-63431002D01*
X46582037Y-63271041D01*
X46382159Y-63071163D01*
X46147127Y-62914120D01*
X45885974Y-62805947D01*
X45608735Y-62750800D01*
X45326065Y-62750800D01*
X45048826Y-62805947D01*
X44787673Y-62914120D01*
X44552641Y-63071163D01*
X44352763Y-63271041D01*
X44195720Y-63506073D01*
X44133861Y-63655413D01*
X44135472Y-63385800D01*
X44123212Y-63261318D01*
X44086902Y-63141620D01*
X44027937Y-63031306D01*
X43948585Y-62934615D01*
X43851894Y-62855263D01*
X43741580Y-62796298D01*
X43621882Y-62759988D01*
X43497400Y-62747728D01*
X42983150Y-62750800D01*
X42824400Y-62909550D01*
X42824400Y-64058800D01*
X42844400Y-64058800D01*
X42844400Y-64312800D01*
X42824400Y-64312800D01*
X42824400Y-65462050D01*
X42983150Y-65620800D01*
X43497400Y-65623872D01*
X43621882Y-65611612D01*
X43741580Y-65575302D01*
X43851894Y-65516337D01*
X43948585Y-65436985D01*
X44027937Y-65340294D01*
X44086902Y-65229980D01*
X44123212Y-65110282D01*
X44135472Y-64985800D01*
X44133861Y-64716187D01*
X44195720Y-64865527D01*
X44352763Y-65100559D01*
X44552641Y-65300437D01*
X44787673Y-65457480D01*
X45048826Y-65565653D01*
X45326065Y-65620800D01*
X45608735Y-65620800D01*
X45885974Y-65565653D01*
X46147127Y-65457480D01*
X46382159Y-65300437D01*
X46510382Y-65172214D01*
X50030883Y-68692716D01*
X49795342Y-68739568D01*
X49525089Y-68851510D01*
X49281868Y-69014025D01*
X49075025Y-69220868D01*
X48958500Y-69395260D01*
X48841975Y-69220868D01*
X48635132Y-69014025D01*
X48391911Y-68851510D01*
X48121658Y-68739568D01*
X47834760Y-68682500D01*
X47542240Y-68682500D01*
X47255342Y-68739568D01*
X46985089Y-68851510D01*
X46741868Y-69014025D01*
X46535025Y-69220868D01*
X46413305Y-69403034D01*
X46343678Y-69286145D01*
X46148769Y-69069912D01*
X45915420Y-68895859D01*
X45652599Y-68770675D01*
X45505390Y-68726024D01*
X45275500Y-68847345D01*
X45275500Y-70040500D01*
X45295500Y-70040500D01*
X45295500Y-70294500D01*
X45275500Y-70294500D01*
X45275500Y-70314500D01*
X45021500Y-70314500D01*
X45021500Y-70294500D01*
X45001500Y-70294500D01*
X45001500Y-70040500D01*
X45021500Y-70040500D01*
X45021500Y-68847345D01*
X44791610Y-68726024D01*
X44644401Y-68770675D01*
X44381580Y-68895859D01*
X44148231Y-69069912D01*
X43953322Y-69286145D01*
X43883695Y-69403034D01*
X43761975Y-69220868D01*
X43555132Y-69014025D01*
X43311911Y-68851510D01*
X43041658Y-68739568D01*
X42754760Y-68682500D01*
X42462240Y-68682500D01*
X42175342Y-68739568D01*
X41905089Y-68851510D01*
X41661868Y-69014025D01*
X41455025Y-69220868D01*
X41338500Y-69395260D01*
X41221975Y-69220868D01*
X41015132Y-69014025D01*
X40771911Y-68851510D01*
X40501658Y-68739568D01*
X40214760Y-68682500D01*
X39922240Y-68682500D01*
X39635342Y-68739568D01*
X39365089Y-68851510D01*
X39121868Y-69014025D01*
X38915025Y-69220868D01*
X38798500Y-69395260D01*
X38681975Y-69220868D01*
X38475132Y-69014025D01*
X38231911Y-68851510D01*
X37961658Y-68739568D01*
X37674760Y-68682500D01*
X37382240Y-68682500D01*
X37095342Y-68739568D01*
X36825089Y-68851510D01*
X36581868Y-69014025D01*
X36450013Y-69145880D01*
X36428002Y-69073320D01*
X36369037Y-68963006D01*
X36289685Y-68866315D01*
X36192994Y-68786963D01*
X36082680Y-68727998D01*
X35962982Y-68691688D01*
X35838500Y-68679428D01*
X34138500Y-68679428D01*
X34014018Y-68691688D01*
X33894320Y-68727998D01*
X33784006Y-68786963D01*
X33687315Y-68866315D01*
X33607963Y-68963006D01*
X33548998Y-69073320D01*
X33512688Y-69193018D01*
X33500428Y-69317500D01*
X31284164Y-69317500D01*
X31240846Y-69288556D01*
X30802146Y-69106840D01*
X30336423Y-69014202D01*
X29861577Y-69014202D01*
X29395854Y-69106840D01*
X28957154Y-69288556D01*
X28562333Y-69552366D01*
X28226566Y-69888133D01*
X27962756Y-70282954D01*
X27781040Y-70721654D01*
X27688402Y-71187377D01*
X27233969Y-71187377D01*
X27229559Y-68579200D01*
X32173553Y-68579200D01*
X32207200Y-68582514D01*
X32240847Y-68579200D01*
X32341483Y-68569288D01*
X32470606Y-68530119D01*
X32589607Y-68466512D01*
X32693911Y-68380911D01*
X32779512Y-68276607D01*
X32843119Y-68157606D01*
X32882288Y-68028483D01*
X32895514Y-67894200D01*
X32892200Y-67860553D01*
X32892200Y-65733299D01*
X34099506Y-65733299D01*
X34315628Y-66100058D01*
X34775505Y-66340738D01*
X35273498Y-66487075D01*
X35790471Y-66533448D01*
X36306559Y-66478073D01*
X36801926Y-66323079D01*
X37219172Y-66100058D01*
X37435294Y-65733299D01*
X35767400Y-64065405D01*
X34099506Y-65733299D01*
X32892200Y-65733299D01*
X32892200Y-63908871D01*
X33119752Y-63908871D01*
X33175127Y-64424959D01*
X33330121Y-64920326D01*
X33553142Y-65337572D01*
X33919901Y-65553694D01*
X35587795Y-63885800D01*
X35947005Y-63885800D01*
X37614899Y-65553694D01*
X37981658Y-65337572D01*
X38165760Y-64985800D01*
X41259328Y-64985800D01*
X41271588Y-65110282D01*
X41307898Y-65229980D01*
X41366863Y-65340294D01*
X41446215Y-65436985D01*
X41542906Y-65516337D01*
X41653220Y-65575302D01*
X41772918Y-65611612D01*
X41897400Y-65623872D01*
X42411650Y-65620800D01*
X42570400Y-65462050D01*
X42570400Y-64312800D01*
X41421150Y-64312800D01*
X41262400Y-64471550D01*
X41259328Y-64985800D01*
X38165760Y-64985800D01*
X38222338Y-64877695D01*
X38368675Y-64379702D01*
X38415048Y-63862729D01*
X38363875Y-63385800D01*
X41259328Y-63385800D01*
X41262400Y-63900050D01*
X41421150Y-64058800D01*
X42570400Y-64058800D01*
X42570400Y-62909550D01*
X42411650Y-62750800D01*
X41897400Y-62747728D01*
X41772918Y-62759988D01*
X41653220Y-62796298D01*
X41542906Y-62855263D01*
X41446215Y-62934615D01*
X41366863Y-63031306D01*
X41307898Y-63141620D01*
X41271588Y-63261318D01*
X41259328Y-63385800D01*
X38363875Y-63385800D01*
X38359673Y-63346641D01*
X38204679Y-62851274D01*
X37981658Y-62434028D01*
X37614899Y-62217906D01*
X35947005Y-63885800D01*
X35587795Y-63885800D01*
X33919901Y-62217906D01*
X33553142Y-62434028D01*
X33312462Y-62893905D01*
X33166125Y-63391898D01*
X33119752Y-63908871D01*
X32892200Y-63908871D01*
X32892200Y-62038301D01*
X34099506Y-62038301D01*
X35767400Y-63706195D01*
X37435294Y-62038301D01*
X37219172Y-61671542D01*
X36759295Y-61430862D01*
X36261302Y-61284525D01*
X35744329Y-61238152D01*
X35228241Y-61293527D01*
X34732874Y-61448521D01*
X34315628Y-61671542D01*
X34099506Y-62038301D01*
X32892200Y-62038301D01*
X32892200Y-61204465D01*
X42647400Y-61204465D01*
X42647400Y-61487135D01*
X42702547Y-61764374D01*
X42810720Y-62025527D01*
X42967763Y-62260559D01*
X43167641Y-62460437D01*
X43402673Y-62617480D01*
X43663826Y-62725653D01*
X43941065Y-62780800D01*
X44223735Y-62780800D01*
X44500974Y-62725653D01*
X44762127Y-62617480D01*
X44997159Y-62460437D01*
X45197037Y-62260559D01*
X45354080Y-62025527D01*
X45462253Y-61764374D01*
X45467400Y-61738499D01*
X45472547Y-61764374D01*
X45580720Y-62025527D01*
X45737763Y-62260559D01*
X45937641Y-62460437D01*
X46172673Y-62617480D01*
X46433826Y-62725653D01*
X46711065Y-62780800D01*
X46993735Y-62780800D01*
X47270974Y-62725653D01*
X47532127Y-62617480D01*
X47767159Y-62460437D01*
X47967037Y-62260559D01*
X48124080Y-62025527D01*
X48232253Y-61764374D01*
X48237400Y-61738499D01*
X48242547Y-61764374D01*
X48350720Y-62025527D01*
X48507763Y-62260559D01*
X48707641Y-62460437D01*
X48942673Y-62617480D01*
X49203826Y-62725653D01*
X49481065Y-62780800D01*
X49763735Y-62780800D01*
X50040974Y-62725653D01*
X50302127Y-62617480D01*
X50537159Y-62460437D01*
X50737037Y-62260559D01*
X50894080Y-62025527D01*
X51002253Y-61764374D01*
X51007400Y-61738499D01*
X51012547Y-61764374D01*
X51120720Y-62025527D01*
X51277763Y-62260559D01*
X51477641Y-62460437D01*
X51712673Y-62617480D01*
X51973826Y-62725653D01*
X52251065Y-62780800D01*
X52533735Y-62780800D01*
X52810974Y-62725653D01*
X53072127Y-62617480D01*
X53307159Y-62460437D01*
X53507037Y-62260559D01*
X53664080Y-62025527D01*
X53772253Y-61764374D01*
X53777400Y-61738499D01*
X53782547Y-61764374D01*
X53890720Y-62025527D01*
X54047763Y-62260559D01*
X54247641Y-62460437D01*
X54482673Y-62617480D01*
X54743826Y-62725653D01*
X55021065Y-62780800D01*
X55303735Y-62780800D01*
X55580974Y-62725653D01*
X55842127Y-62617480D01*
X56077159Y-62460437D01*
X56277037Y-62260559D01*
X56434080Y-62025527D01*
X56542253Y-61764374D01*
X56547400Y-61738499D01*
X56552547Y-61764374D01*
X56660720Y-62025527D01*
X56817763Y-62260559D01*
X57017641Y-62460437D01*
X57252673Y-62617480D01*
X57513826Y-62725653D01*
X57791065Y-62780800D01*
X58073735Y-62780800D01*
X58350974Y-62725653D01*
X58612127Y-62617480D01*
X58847159Y-62460437D01*
X59047037Y-62260559D01*
X59204080Y-62025527D01*
X59312253Y-61764374D01*
X59317400Y-61738499D01*
X59322547Y-61764374D01*
X59430720Y-62025527D01*
X59587763Y-62260559D01*
X59787641Y-62460437D01*
X60022673Y-62617480D01*
X60283826Y-62725653D01*
X60561065Y-62780800D01*
X60843735Y-62780800D01*
X61120974Y-62725653D01*
X61382127Y-62617480D01*
X61617159Y-62460437D01*
X61817037Y-62260559D01*
X61974080Y-62025527D01*
X62082253Y-61764374D01*
X62087400Y-61738499D01*
X62092547Y-61764374D01*
X62200720Y-62025527D01*
X62357763Y-62260559D01*
X62557641Y-62460437D01*
X62792673Y-62617480D01*
X63053826Y-62725653D01*
X63331065Y-62780800D01*
X63613735Y-62780800D01*
X63890974Y-62725653D01*
X64152127Y-62617480D01*
X64387159Y-62460437D01*
X64587037Y-62260559D01*
X64744080Y-62025527D01*
X64852253Y-61764374D01*
X64857400Y-61738499D01*
X64862547Y-61764374D01*
X64970720Y-62025527D01*
X65127763Y-62260559D01*
X65327641Y-62460437D01*
X65562673Y-62617480D01*
X65823826Y-62725653D01*
X66101065Y-62780800D01*
X66383735Y-62780800D01*
X66660974Y-62725653D01*
X66922127Y-62617480D01*
X67157159Y-62460437D01*
X67357037Y-62260559D01*
X67514080Y-62025527D01*
X67622253Y-61764374D01*
X67627400Y-61738499D01*
X67632547Y-61764374D01*
X67740720Y-62025527D01*
X67897763Y-62260559D01*
X68097641Y-62460437D01*
X68332673Y-62617480D01*
X68593826Y-62725653D01*
X68871065Y-62780800D01*
X69153735Y-62780800D01*
X69430974Y-62725653D01*
X69692127Y-62617480D01*
X69927159Y-62460437D01*
X70127037Y-62260559D01*
X70284080Y-62025527D01*
X70392253Y-61764374D01*
X70397400Y-61738499D01*
X70402547Y-61764374D01*
X70510720Y-62025527D01*
X70667763Y-62260559D01*
X70867641Y-62460437D01*
X71102673Y-62617480D01*
X71363826Y-62725653D01*
X71641065Y-62780800D01*
X71923735Y-62780800D01*
X72200974Y-62725653D01*
X72462127Y-62617480D01*
X72697159Y-62460437D01*
X72897037Y-62260559D01*
X73054080Y-62025527D01*
X73162253Y-61764374D01*
X73167400Y-61738499D01*
X73172547Y-61764374D01*
X73280720Y-62025527D01*
X73437763Y-62260559D01*
X73637641Y-62460437D01*
X73872673Y-62617480D01*
X74133826Y-62725653D01*
X74411065Y-62780800D01*
X74693735Y-62780800D01*
X74970974Y-62725653D01*
X75232127Y-62617480D01*
X75467159Y-62460437D01*
X75667037Y-62260559D01*
X75815544Y-62038301D01*
X81199506Y-62038301D01*
X82867400Y-63706195D01*
X84535294Y-62038301D01*
X84319172Y-61671542D01*
X83859295Y-61430862D01*
X83361302Y-61284525D01*
X82844329Y-61238152D01*
X82328241Y-61293527D01*
X81832874Y-61448521D01*
X81415628Y-61671542D01*
X81199506Y-62038301D01*
X75815544Y-62038301D01*
X75824080Y-62025527D01*
X75932253Y-61764374D01*
X75987400Y-61487135D01*
X75987400Y-61204465D01*
X75932253Y-60927226D01*
X75824080Y-60666073D01*
X75667037Y-60431041D01*
X75467159Y-60231163D01*
X75232127Y-60074120D01*
X74970974Y-59965947D01*
X74693735Y-59910800D01*
X74411065Y-59910800D01*
X74133826Y-59965947D01*
X73872673Y-60074120D01*
X73637641Y-60231163D01*
X73437763Y-60431041D01*
X73280720Y-60666073D01*
X73172547Y-60927226D01*
X73167400Y-60953101D01*
X73162253Y-60927226D01*
X73054080Y-60666073D01*
X72897037Y-60431041D01*
X72697159Y-60231163D01*
X72462127Y-60074120D01*
X72200974Y-59965947D01*
X71923735Y-59910800D01*
X71641065Y-59910800D01*
X71363826Y-59965947D01*
X71102673Y-60074120D01*
X70867641Y-60231163D01*
X70667763Y-60431041D01*
X70510720Y-60666073D01*
X70402547Y-60927226D01*
X70397400Y-60953101D01*
X70392253Y-60927226D01*
X70284080Y-60666073D01*
X70127037Y-60431041D01*
X69927159Y-60231163D01*
X69692127Y-60074120D01*
X69430974Y-59965947D01*
X69153735Y-59910800D01*
X68871065Y-59910800D01*
X68593826Y-59965947D01*
X68332673Y-60074120D01*
X68097641Y-60231163D01*
X67897763Y-60431041D01*
X67740720Y-60666073D01*
X67632547Y-60927226D01*
X67627400Y-60953101D01*
X67622253Y-60927226D01*
X67514080Y-60666073D01*
X67357037Y-60431041D01*
X67157159Y-60231163D01*
X66922127Y-60074120D01*
X66660974Y-59965947D01*
X66383735Y-59910800D01*
X66101065Y-59910800D01*
X65823826Y-59965947D01*
X65562673Y-60074120D01*
X65327641Y-60231163D01*
X65127763Y-60431041D01*
X64970720Y-60666073D01*
X64862547Y-60927226D01*
X64857400Y-60953101D01*
X64852253Y-60927226D01*
X64744080Y-60666073D01*
X64587037Y-60431041D01*
X64387159Y-60231163D01*
X64152127Y-60074120D01*
X63890974Y-59965947D01*
X63613735Y-59910800D01*
X63331065Y-59910800D01*
X63053826Y-59965947D01*
X62792673Y-60074120D01*
X62557641Y-60231163D01*
X62357763Y-60431041D01*
X62200720Y-60666073D01*
X62092547Y-60927226D01*
X62087400Y-60953101D01*
X62082253Y-60927226D01*
X61974080Y-60666073D01*
X61817037Y-60431041D01*
X61617159Y-60231163D01*
X61382127Y-60074120D01*
X61120974Y-59965947D01*
X60843735Y-59910800D01*
X60561065Y-59910800D01*
X60283826Y-59965947D01*
X60022673Y-60074120D01*
X59787641Y-60231163D01*
X59587763Y-60431041D01*
X59430720Y-60666073D01*
X59322547Y-60927226D01*
X59317400Y-60953101D01*
X59312253Y-60927226D01*
X59204080Y-60666073D01*
X59047037Y-60431041D01*
X58847159Y-60231163D01*
X58612127Y-60074120D01*
X58350974Y-59965947D01*
X58073735Y-59910800D01*
X57791065Y-59910800D01*
X57513826Y-59965947D01*
X57252673Y-60074120D01*
X57017641Y-60231163D01*
X56817763Y-60431041D01*
X56660720Y-60666073D01*
X56552547Y-60927226D01*
X56547400Y-60953101D01*
X56542253Y-60927226D01*
X56434080Y-60666073D01*
X56277037Y-60431041D01*
X56077159Y-60231163D01*
X55842127Y-60074120D01*
X55580974Y-59965947D01*
X55303735Y-59910800D01*
X55021065Y-59910800D01*
X54743826Y-59965947D01*
X54482673Y-60074120D01*
X54247641Y-60231163D01*
X54047763Y-60431041D01*
X53890720Y-60666073D01*
X53782547Y-60927226D01*
X53777400Y-60953101D01*
X53772253Y-60927226D01*
X53664080Y-60666073D01*
X53507037Y-60431041D01*
X53307159Y-60231163D01*
X53072127Y-60074120D01*
X52810974Y-59965947D01*
X52533735Y-59910800D01*
X52251065Y-59910800D01*
X51973826Y-59965947D01*
X51712673Y-60074120D01*
X51477641Y-60231163D01*
X51277763Y-60431041D01*
X51120720Y-60666073D01*
X51012547Y-60927226D01*
X51007400Y-60953101D01*
X51002253Y-60927226D01*
X50894080Y-60666073D01*
X50737037Y-60431041D01*
X50537159Y-60231163D01*
X50302127Y-60074120D01*
X50040974Y-59965947D01*
X49763735Y-59910800D01*
X49481065Y-59910800D01*
X49203826Y-59965947D01*
X48942673Y-60074120D01*
X48707641Y-60231163D01*
X48507763Y-60431041D01*
X48350720Y-60666073D01*
X48242547Y-60927226D01*
X48237400Y-60953101D01*
X48232253Y-60927226D01*
X48124080Y-60666073D01*
X47967037Y-60431041D01*
X47767159Y-60231163D01*
X47532127Y-60074120D01*
X47270974Y-59965947D01*
X46993735Y-59910800D01*
X46711065Y-59910800D01*
X46433826Y-59965947D01*
X46172673Y-60074120D01*
X45937641Y-60231163D01*
X45737763Y-60431041D01*
X45580720Y-60666073D01*
X45472547Y-60927226D01*
X45467400Y-60953101D01*
X45462253Y-60927226D01*
X45354080Y-60666073D01*
X45197037Y-60431041D01*
X44997159Y-60231163D01*
X44762127Y-60074120D01*
X44500974Y-59965947D01*
X44223735Y-59910800D01*
X43941065Y-59910800D01*
X43663826Y-59965947D01*
X43402673Y-60074120D01*
X43167641Y-60231163D01*
X42967763Y-60431041D01*
X42810720Y-60666073D01*
X42702547Y-60927226D01*
X42647400Y-61204465D01*
X32892200Y-61204465D01*
X32892200Y-56665951D01*
X85192400Y-56616448D01*
X85192401Y-62641214D01*
G37*
X85192401Y-62641214D02*
X85081658Y-62434028D01*
X84714899Y-62217906D01*
X83047005Y-63885800D01*
X84714899Y-65553694D01*
X85081658Y-65337572D01*
X85192401Y-65125971D01*
X85192401Y-67953247D01*
X85202313Y-68053883D01*
X85241482Y-68183006D01*
X85305089Y-68302007D01*
X85390690Y-68406311D01*
X85494994Y-68491912D01*
X85613995Y-68555519D01*
X85743118Y-68594688D01*
X85877400Y-68607914D01*
X86011683Y-68594688D01*
X86061422Y-68579600D01*
X91085758Y-68579600D01*
X91110021Y-97257400D01*
X27278042Y-97257400D01*
X27272873Y-94199777D01*
X27688402Y-94199777D01*
X27688402Y-94674623D01*
X27781040Y-95140346D01*
X27962756Y-95579046D01*
X28226566Y-95973867D01*
X28562333Y-96309634D01*
X28957154Y-96573444D01*
X29395854Y-96755160D01*
X29861577Y-96847798D01*
X30336423Y-96847798D01*
X30802146Y-96755160D01*
X31240846Y-96573444D01*
X31635667Y-96309634D01*
X31971434Y-95973867D01*
X32235244Y-95579046D01*
X32416960Y-95140346D01*
X32509598Y-94674623D01*
X32509598Y-94225177D01*
X85727402Y-94225177D01*
X85727402Y-94700023D01*
X85820040Y-95165746D01*
X86001756Y-95604446D01*
X86265566Y-95999267D01*
X86601333Y-96335034D01*
X86996154Y-96598844D01*
X87434854Y-96780560D01*
X87900577Y-96873198D01*
X88375423Y-96873198D01*
X88841146Y-96780560D01*
X89279846Y-96598844D01*
X89674667Y-96335034D01*
X90010434Y-95999267D01*
X90274244Y-95604446D01*
X90455960Y-95165746D01*
X90548598Y-94700023D01*
X90548598Y-94225177D01*
X90455960Y-93759454D01*
X90274244Y-93320754D01*
X90010434Y-92925933D01*
X89674667Y-92590166D01*
X89279846Y-92326356D01*
X88841146Y-92144640D01*
X88375423Y-92052002D01*
X87900577Y-92052002D01*
X87434854Y-92144640D01*
X86996154Y-92326356D01*
X86601333Y-92590166D01*
X86265566Y-92925933D01*
X86001756Y-93320754D01*
X85820040Y-93759454D01*
X85727402Y-94225177D01*
X32509598Y-94225177D01*
X32509598Y-94199777D01*
X32416960Y-93734054D01*
X32235244Y-93295354D01*
X31971434Y-92900533D01*
X31635667Y-92564766D01*
X31240846Y-92300956D01*
X30802146Y-92119240D01*
X30336423Y-92026602D01*
X29861577Y-92026602D01*
X29395854Y-92119240D01*
X28957154Y-92300956D01*
X28562333Y-92564766D01*
X28226566Y-92900533D01*
X27962756Y-93295354D01*
X27781040Y-93734054D01*
X27688402Y-94199777D01*
X27272873Y-94199777D01*
X27233969Y-71187377D01*
X27688402Y-71187377D01*
X27688402Y-71662223D01*
X27781040Y-72127946D01*
X27962756Y-72566646D01*
X28226566Y-72961467D01*
X28562333Y-73297234D01*
X28957154Y-73561044D01*
X29395854Y-73742760D01*
X29861577Y-73835398D01*
X30336423Y-73835398D01*
X30802146Y-73742760D01*
X31240846Y-73561044D01*
X31635667Y-73297234D01*
X31971434Y-72961467D01*
X32235244Y-72566646D01*
X32416960Y-72127946D01*
X32509598Y-71662223D01*
X32509598Y-71187377D01*
X32416960Y-70721654D01*
X32235244Y-70282954D01*
X31971434Y-69888133D01*
X31635667Y-69552366D01*
X31284164Y-69317500D01*
X33500428Y-69317500D01*
X33500428Y-71017500D01*
X33512688Y-71141982D01*
X33548998Y-71261680D01*
X33607963Y-71371994D01*
X33687315Y-71468685D01*
X33784006Y-71548037D01*
X33894320Y-71607002D01*
X33966880Y-71629013D01*
X33835025Y-71760868D01*
X33672510Y-72004089D01*
X33560568Y-72274342D01*
X33503500Y-72561240D01*
X33503500Y-72853760D01*
X33560568Y-73140658D01*
X33672510Y-73410911D01*
X33835025Y-73654132D01*
X34041868Y-73860975D01*
X34285089Y-74023490D01*
X34555342Y-74135432D01*
X34842240Y-74192500D01*
X35134760Y-74192500D01*
X35421658Y-74135432D01*
X35691911Y-74023490D01*
X35935132Y-73860975D01*
X36141975Y-73654132D01*
X36258500Y-73479740D01*
X36375025Y-73654132D01*
X36581868Y-73860975D01*
X36825089Y-74023490D01*
X37095342Y-74135432D01*
X37382240Y-74192500D01*
X37674760Y-74192500D01*
X37961658Y-74135432D01*
X38231911Y-74023490D01*
X38475132Y-73860975D01*
X38681975Y-73654132D01*
X38803695Y-73471966D01*
X38873322Y-73588855D01*
X39068231Y-73805088D01*
X39301580Y-73979141D01*
X39564401Y-74104325D01*
X39711610Y-74148976D01*
X39941500Y-74027655D01*
X39941500Y-72834500D01*
X39921500Y-72834500D01*
X39921500Y-72580500D01*
X39941500Y-72580500D01*
X39941500Y-72560500D01*
X40195500Y-72560500D01*
X40195500Y-72580500D01*
X40215500Y-72580500D01*
X40215500Y-72834500D01*
X40195500Y-72834500D01*
X40195500Y-74027655D01*
X40425390Y-74148976D01*
X40572599Y-74104325D01*
X40835420Y-73979141D01*
X41068769Y-73805088D01*
X41263678Y-73588855D01*
X41333305Y-73471966D01*
X41455025Y-73654132D01*
X41661868Y-73860975D01*
X41905089Y-74023490D01*
X42175342Y-74135432D01*
X42462240Y-74192500D01*
X42754760Y-74192500D01*
X43041658Y-74135432D01*
X43311911Y-74023490D01*
X43555132Y-73860975D01*
X43761975Y-73654132D01*
X43878500Y-73479740D01*
X43995025Y-73654132D01*
X44201868Y-73860975D01*
X44445089Y-74023490D01*
X44715342Y-74135432D01*
X45002240Y-74192500D01*
X45294760Y-74192500D01*
X45581658Y-74135432D01*
X45851911Y-74023490D01*
X46095132Y-73860975D01*
X46301975Y-73654132D01*
X46418500Y-73479740D01*
X46535025Y-73654132D01*
X46741868Y-73860975D01*
X46985089Y-74023490D01*
X47255342Y-74135432D01*
X47542240Y-74192500D01*
X47834760Y-74192500D01*
X48121658Y-74135432D01*
X48391911Y-74023490D01*
X48635132Y-73860975D01*
X48841975Y-73654132D01*
X48963695Y-73471966D01*
X49033322Y-73588855D01*
X49228231Y-73805088D01*
X49461580Y-73979141D01*
X49724401Y-74104325D01*
X49871610Y-74148976D01*
X50101500Y-74027655D01*
X50101500Y-72834500D01*
X50081500Y-72834500D01*
X50081500Y-72580500D01*
X50101500Y-72580500D01*
X50101500Y-72560500D01*
X50355500Y-72560500D01*
X50355500Y-72580500D01*
X50375500Y-72580500D01*
X50375500Y-72834500D01*
X50355500Y-72834500D01*
X50355500Y-74027655D01*
X50585390Y-74148976D01*
X50732599Y-74104325D01*
X50995420Y-73979141D01*
X51228769Y-73805088D01*
X51423678Y-73588855D01*
X51493305Y-73471966D01*
X51615025Y-73654132D01*
X51821868Y-73860975D01*
X52065089Y-74023490D01*
X52335342Y-74135432D01*
X52622240Y-74192500D01*
X52914760Y-74192500D01*
X53201658Y-74135432D01*
X53471911Y-74023490D01*
X53651615Y-73903416D01*
X65081200Y-85333002D01*
X65081200Y-85395139D01*
X65120974Y-85595098D01*
X65198995Y-85783456D01*
X65312263Y-85952974D01*
X65456426Y-86097137D01*
X65625944Y-86210405D01*
X65814302Y-86288426D01*
X66014261Y-86328200D01*
X66188000Y-86328200D01*
X66188000Y-88488069D01*
X66184323Y-88525401D01*
X66188000Y-88562734D01*
X66194980Y-88633597D01*
X66198997Y-88674386D01*
X66242453Y-88817647D01*
X66313025Y-88949677D01*
X66384200Y-89036403D01*
X66407999Y-89065402D01*
X66436997Y-89089200D01*
X68896209Y-91548413D01*
X68920007Y-91577411D01*
X69035732Y-91672384D01*
X69141493Y-91728915D01*
X69135995Y-91737144D01*
X69057974Y-91925502D01*
X69018200Y-92125461D01*
X69018200Y-92329339D01*
X69057974Y-92529298D01*
X69135995Y-92717656D01*
X69249263Y-92887174D01*
X69393426Y-93031337D01*
X69562944Y-93144605D01*
X69751302Y-93222626D01*
X69951261Y-93262400D01*
X70155139Y-93262400D01*
X70355098Y-93222626D01*
X70543456Y-93144605D01*
X70712974Y-93031337D01*
X70756911Y-92987400D01*
X74054478Y-92987400D01*
X74091800Y-92991076D01*
X74129122Y-92987400D01*
X74129133Y-92987400D01*
X74240786Y-92976403D01*
X74384047Y-92932946D01*
X74516076Y-92862374D01*
X74631801Y-92767401D01*
X74655604Y-92738397D01*
X76976402Y-90417600D01*
X77038539Y-90417600D01*
X77238498Y-90377826D01*
X77426856Y-90299805D01*
X77596374Y-90186537D01*
X77740537Y-90042374D01*
X77853805Y-89872856D01*
X77931826Y-89684498D01*
X77971600Y-89484539D01*
X77971600Y-89280661D01*
X77931826Y-89080702D01*
X77853805Y-88892344D01*
X77740537Y-88722826D01*
X77596374Y-88578663D01*
X77426856Y-88465395D01*
X77238498Y-88387374D01*
X77038539Y-88347600D01*
X76834661Y-88347600D01*
X76634702Y-88387374D01*
X76446344Y-88465395D01*
X76276826Y-88578663D01*
X76132663Y-88722826D01*
X76019395Y-88892344D01*
X75941374Y-89080702D01*
X75901600Y-89280661D01*
X75901600Y-89342798D01*
X73776999Y-91467400D01*
X71858968Y-91467400D01*
X71912026Y-91339308D01*
X71951800Y-91139349D01*
X71951800Y-90935471D01*
X71912026Y-90735512D01*
X71834005Y-90547154D01*
X71720737Y-90377636D01*
X71576574Y-90233473D01*
X71407056Y-90120205D01*
X71218698Y-90042184D01*
X71018739Y-90002410D01*
X70814861Y-90002410D01*
X70614902Y-90042184D01*
X70426544Y-90120205D01*
X70257026Y-90233473D01*
X70213089Y-90277410D01*
X69774810Y-90277410D01*
X67707999Y-88210600D01*
X67707999Y-81779721D01*
X67711675Y-81742398D01*
X67707999Y-81705076D01*
X67707999Y-81705066D01*
X67697002Y-81593413D01*
X67653545Y-81450152D01*
X67583000Y-81318174D01*
X67583000Y-81240461D01*
X67543226Y-81040502D01*
X67465205Y-80852144D01*
X67351937Y-80682626D01*
X67207774Y-80538463D01*
X67038256Y-80425195D01*
X66849898Y-80347174D01*
X66649939Y-80307400D01*
X66446061Y-80307400D01*
X66246102Y-80347174D01*
X66057744Y-80425195D01*
X65888226Y-80538463D01*
X65744063Y-80682626D01*
X65630795Y-80852144D01*
X65552774Y-81040502D01*
X65513000Y-81240461D01*
X65513000Y-81444339D01*
X65552774Y-81644298D01*
X65630795Y-81832656D01*
X65744063Y-82002174D01*
X65888226Y-82146337D01*
X66057744Y-82259605D01*
X66187999Y-82313559D01*
X66187999Y-84258200D01*
X66156002Y-84258200D01*
X60891463Y-78993661D01*
X66529000Y-78993661D01*
X66529000Y-79197539D01*
X66568774Y-79397498D01*
X66646795Y-79585856D01*
X66760063Y-79755374D01*
X66904226Y-79899537D01*
X67073744Y-80012805D01*
X67262102Y-80090826D01*
X67462061Y-80130600D01*
X67498799Y-80130600D01*
X69928388Y-82560191D01*
X69928387Y-85174055D01*
X69884450Y-85217992D01*
X69771182Y-85387510D01*
X69693161Y-85575868D01*
X69653387Y-85775827D01*
X69653387Y-85979705D01*
X69693161Y-86179664D01*
X69771182Y-86368022D01*
X69884450Y-86537540D01*
X70028613Y-86681703D01*
X70198131Y-86794971D01*
X70386489Y-86872992D01*
X70586448Y-86912766D01*
X70790326Y-86912766D01*
X70893401Y-86892263D01*
X70893401Y-87846668D01*
X70889724Y-87884000D01*
X70893401Y-87921333D01*
X70904398Y-88032986D01*
X70917580Y-88076442D01*
X70947854Y-88176246D01*
X70974000Y-88225161D01*
X70974000Y-88341539D01*
X71013774Y-88541498D01*
X71091795Y-88729856D01*
X71205063Y-88899374D01*
X71349226Y-89043537D01*
X71518744Y-89156805D01*
X71707102Y-89234826D01*
X71907061Y-89274600D01*
X72110939Y-89274600D01*
X72310898Y-89234826D01*
X72499256Y-89156805D01*
X72668774Y-89043537D01*
X72812937Y-88899374D01*
X72926205Y-88729856D01*
X73004226Y-88541498D01*
X73044000Y-88341539D01*
X73044000Y-88137661D01*
X73004226Y-87937702D01*
X72926205Y-87749344D01*
X72812937Y-87579826D01*
X72668774Y-87435663D01*
X72499256Y-87322395D01*
X72413400Y-87286832D01*
X72413400Y-82898111D01*
X72457337Y-82854174D01*
X72570605Y-82684656D01*
X72648626Y-82496298D01*
X72688400Y-82296339D01*
X72688400Y-82092461D01*
X72648626Y-81892502D01*
X72570605Y-81704144D01*
X72457337Y-81534626D01*
X72313174Y-81390463D01*
X72143656Y-81277195D01*
X71955298Y-81199174D01*
X71755339Y-81159400D01*
X71551461Y-81159400D01*
X71351502Y-81199174D01*
X71163144Y-81277195D01*
X70993626Y-81390463D01*
X70950946Y-81433143D01*
X68599000Y-79081199D01*
X68599000Y-78993661D01*
X68559226Y-78793702D01*
X68481205Y-78605344D01*
X68367937Y-78435826D01*
X68223774Y-78291663D01*
X68054256Y-78178395D01*
X67865898Y-78100374D01*
X67665939Y-78060600D01*
X67462061Y-78060600D01*
X67262102Y-78100374D01*
X67073744Y-78178395D01*
X66904226Y-78291663D01*
X66760063Y-78435826D01*
X66646795Y-78605344D01*
X66568774Y-78793702D01*
X66529000Y-78993661D01*
X60891463Y-78993661D01*
X55947833Y-74050032D01*
X56011911Y-74023490D01*
X56255132Y-73860975D01*
X56461975Y-73654132D01*
X56583695Y-73471966D01*
X56653322Y-73588855D01*
X56848231Y-73805088D01*
X57081580Y-73979141D01*
X57344401Y-74104325D01*
X57491610Y-74148976D01*
X57721500Y-74027655D01*
X57721500Y-72834500D01*
X57701500Y-72834500D01*
X57701500Y-72580500D01*
X57721500Y-72580500D01*
X57721500Y-72560500D01*
X57975500Y-72560500D01*
X57975500Y-72580500D01*
X57995500Y-72580500D01*
X57995500Y-72834500D01*
X57975500Y-72834500D01*
X57975500Y-74027655D01*
X58205390Y-74148976D01*
X58352599Y-74104325D01*
X58615420Y-73979141D01*
X58848769Y-73805088D01*
X59043678Y-73588855D01*
X59113305Y-73471966D01*
X59235025Y-73654132D01*
X59441868Y-73860975D01*
X59685089Y-74023490D01*
X59955342Y-74135432D01*
X60242240Y-74192500D01*
X60534760Y-74192500D01*
X60821658Y-74135432D01*
X61091911Y-74023490D01*
X61335132Y-73860975D01*
X61541975Y-73654132D01*
X61658500Y-73479740D01*
X61775025Y-73654132D01*
X61981868Y-73860975D01*
X62225089Y-74023490D01*
X62495342Y-74135432D01*
X62782240Y-74192500D01*
X63074760Y-74192500D01*
X63361658Y-74135432D01*
X63631911Y-74023490D01*
X63875132Y-73860975D01*
X64081975Y-73654132D01*
X64198500Y-73479740D01*
X64315025Y-73654132D01*
X64521868Y-73860975D01*
X64765089Y-74023490D01*
X65035342Y-74135432D01*
X65322240Y-74192500D01*
X65614760Y-74192500D01*
X65901658Y-74135432D01*
X66171911Y-74023490D01*
X66374992Y-73887795D01*
X73693999Y-81206803D01*
X73717797Y-81235801D01*
X73833522Y-81330774D01*
X73965551Y-81401346D01*
X74108812Y-81444803D01*
X74220465Y-81455800D01*
X74220474Y-81455800D01*
X74257797Y-81459476D01*
X74295120Y-81455800D01*
X74708889Y-81455800D01*
X74752826Y-81499737D01*
X74922344Y-81613005D01*
X75110702Y-81691026D01*
X75310661Y-81730800D01*
X75414601Y-81730800D01*
X75414601Y-86418288D01*
X75370663Y-86462226D01*
X75257395Y-86631744D01*
X75179374Y-86820102D01*
X75139600Y-87020061D01*
X75139600Y-87223939D01*
X75179374Y-87423898D01*
X75257395Y-87612256D01*
X75370663Y-87781774D01*
X75514826Y-87925937D01*
X75684344Y-88039205D01*
X75872702Y-88117226D01*
X76072661Y-88157000D01*
X76276539Y-88157000D01*
X76476498Y-88117226D01*
X76664856Y-88039205D01*
X76834374Y-87925937D01*
X76978537Y-87781774D01*
X77091805Y-87612256D01*
X77169826Y-87423898D01*
X77209600Y-87223939D01*
X77209600Y-87020061D01*
X77169826Y-86820102D01*
X77091805Y-86631744D01*
X76978537Y-86462226D01*
X76934600Y-86418289D01*
X76934600Y-85920274D01*
X76964902Y-85932826D01*
X77164861Y-85972600D01*
X77368739Y-85972600D01*
X77568698Y-85932826D01*
X77757056Y-85854805D01*
X77926574Y-85741537D01*
X78046711Y-85621400D01*
X80906489Y-85621400D01*
X80950426Y-85665337D01*
X81119944Y-85778605D01*
X81308302Y-85856626D01*
X81508261Y-85896400D01*
X81712139Y-85896400D01*
X81912098Y-85856626D01*
X82100456Y-85778605D01*
X82269974Y-85665337D01*
X82414137Y-85521174D01*
X82527405Y-85351656D01*
X82605426Y-85163298D01*
X82645200Y-84963339D01*
X82645200Y-84759461D01*
X82605426Y-84559502D01*
X82527405Y-84371144D01*
X82414137Y-84201626D01*
X82269974Y-84057463D01*
X82100456Y-83944195D01*
X81912098Y-83866174D01*
X81712139Y-83826400D01*
X81508261Y-83826400D01*
X81308302Y-83866174D01*
X81119944Y-83944195D01*
X80950426Y-84057463D01*
X80906489Y-84101400D01*
X77878289Y-84101400D01*
X77757056Y-84020395D01*
X77568698Y-83942374D01*
X77368739Y-83902600D01*
X77164861Y-83902600D01*
X76964902Y-83942374D01*
X76934600Y-83954926D01*
X76934600Y-76700511D01*
X76978537Y-76656574D01*
X77091805Y-76487056D01*
X77169826Y-76298698D01*
X77209600Y-76098739D01*
X77209600Y-75894861D01*
X77169826Y-75694902D01*
X77091805Y-75506544D01*
X76978537Y-75337026D01*
X76834374Y-75192863D01*
X76664856Y-75079595D01*
X76476498Y-75001574D01*
X76276539Y-74961800D01*
X76072661Y-74961800D01*
X75872702Y-75001574D01*
X75684344Y-75079595D01*
X75514826Y-75192863D01*
X75370663Y-75337026D01*
X75257395Y-75506544D01*
X75179374Y-75694902D01*
X75139600Y-75894861D01*
X75139600Y-76098739D01*
X75179374Y-76298698D01*
X75257395Y-76487056D01*
X75370663Y-76656574D01*
X75414600Y-76700511D01*
X75414600Y-79660800D01*
X75310661Y-79660800D01*
X75110702Y-79700574D01*
X74922344Y-79778595D01*
X74752826Y-79891863D01*
X74708889Y-79935800D01*
X74572600Y-79935800D01*
X68675409Y-74038610D01*
X68711911Y-74023490D01*
X68955132Y-73860975D01*
X69161975Y-73654132D01*
X69283695Y-73471966D01*
X69353322Y-73588855D01*
X69548231Y-73805088D01*
X69781580Y-73979141D01*
X70044401Y-74104325D01*
X70191610Y-74148976D01*
X70421500Y-74027655D01*
X70421500Y-72834500D01*
X70401500Y-72834500D01*
X70401500Y-72580500D01*
X70421500Y-72580500D01*
X70421500Y-72560500D01*
X70675500Y-72560500D01*
X70675500Y-72580500D01*
X70695500Y-72580500D01*
X70695500Y-72834500D01*
X70675500Y-72834500D01*
X70675500Y-74027655D01*
X70905390Y-74148976D01*
X71052599Y-74104325D01*
X71315420Y-73979141D01*
X71548769Y-73805088D01*
X71743678Y-73588855D01*
X71813305Y-73471966D01*
X71935025Y-73654132D01*
X72141868Y-73860975D01*
X72385089Y-74023490D01*
X72655342Y-74135432D01*
X72942240Y-74192500D01*
X73234760Y-74192500D01*
X73521658Y-74135432D01*
X73791911Y-74023490D01*
X74035132Y-73860975D01*
X74241975Y-73654132D01*
X74363695Y-73471966D01*
X74433322Y-73588855D01*
X74628231Y-73805088D01*
X74861580Y-73979141D01*
X75124401Y-74104325D01*
X75271610Y-74148976D01*
X75501500Y-74027655D01*
X75501500Y-72834500D01*
X75481500Y-72834500D01*
X75481500Y-72580500D01*
X75501500Y-72580500D01*
X75501500Y-72560500D01*
X75755500Y-72560500D01*
X75755500Y-72580500D01*
X75775500Y-72580500D01*
X75775500Y-72834500D01*
X75755500Y-72834500D01*
X75755500Y-74027655D01*
X75985390Y-74148976D01*
X76132599Y-74104325D01*
X76395420Y-73979141D01*
X76628769Y-73805088D01*
X76823678Y-73588855D01*
X76893305Y-73471966D01*
X77015025Y-73654132D01*
X77221868Y-73860975D01*
X77465089Y-74023490D01*
X77735342Y-74135432D01*
X78022240Y-74192500D01*
X78314760Y-74192500D01*
X78601658Y-74135432D01*
X78871911Y-74023490D01*
X79115132Y-73860975D01*
X79321975Y-73654132D01*
X79438500Y-73479740D01*
X79555025Y-73654132D01*
X79761868Y-73860975D01*
X80005089Y-74023490D01*
X80275342Y-74135432D01*
X80562240Y-74192500D01*
X80854760Y-74192500D01*
X81141658Y-74135432D01*
X81411911Y-74023490D01*
X81655132Y-73860975D01*
X81861975Y-73654132D01*
X81978500Y-73479740D01*
X82095025Y-73654132D01*
X82301868Y-73860975D01*
X82545089Y-74023490D01*
X82815342Y-74135432D01*
X83102240Y-74192500D01*
X83394760Y-74192500D01*
X83681658Y-74135432D01*
X83951911Y-74023490D01*
X84195132Y-73860975D01*
X84401975Y-73654132D01*
X84564490Y-73410911D01*
X84676432Y-73140658D01*
X84733500Y-72853760D01*
X84733500Y-72561240D01*
X84676432Y-72274342D01*
X84564490Y-72004089D01*
X84401975Y-71760868D01*
X84195132Y-71554025D01*
X84019094Y-71436400D01*
X84248769Y-71265088D01*
X84273026Y-71238177D01*
X85727402Y-71238177D01*
X85727402Y-71713023D01*
X85820040Y-72178746D01*
X86001756Y-72617446D01*
X86265566Y-73012267D01*
X86601333Y-73348034D01*
X86996154Y-73611844D01*
X87434854Y-73793560D01*
X87900577Y-73886198D01*
X88375423Y-73886198D01*
X88841146Y-73793560D01*
X89279846Y-73611844D01*
X89674667Y-73348034D01*
X90010434Y-73012267D01*
X90274244Y-72617446D01*
X90455960Y-72178746D01*
X90548598Y-71713023D01*
X90548598Y-71238177D01*
X90455960Y-70772454D01*
X90274244Y-70333754D01*
X90010434Y-69938933D01*
X89674667Y-69603166D01*
X89279846Y-69339356D01*
X88841146Y-69157640D01*
X88375423Y-69065002D01*
X87900577Y-69065002D01*
X87434854Y-69157640D01*
X86996154Y-69339356D01*
X86601333Y-69603166D01*
X86265566Y-69938933D01*
X86001756Y-70333754D01*
X85820040Y-70772454D01*
X85727402Y-71238177D01*
X84273026Y-71238177D01*
X84443678Y-71048855D01*
X84592657Y-70798752D01*
X84689981Y-70524391D01*
X84569314Y-70294500D01*
X83375500Y-70294500D01*
X83375500Y-70314500D01*
X83121500Y-70314500D01*
X83121500Y-70294500D01*
X83101500Y-70294500D01*
X83101500Y-70040500D01*
X83121500Y-70040500D01*
X83121500Y-68847345D01*
X83375500Y-68847345D01*
X83375500Y-70040500D01*
X84569314Y-70040500D01*
X84689981Y-69810609D01*
X84592657Y-69536248D01*
X84443678Y-69286145D01*
X84248769Y-69069912D01*
X84015420Y-68895859D01*
X83752599Y-68770675D01*
X83605390Y-68726024D01*
X83375500Y-68847345D01*
X83121500Y-68847345D01*
X82891610Y-68726024D01*
X82744401Y-68770675D01*
X82481580Y-68895859D01*
X82248231Y-69069912D01*
X82053322Y-69286145D01*
X81983695Y-69403034D01*
X81861975Y-69220868D01*
X81655132Y-69014025D01*
X81411911Y-68851510D01*
X81141658Y-68739568D01*
X80854760Y-68682500D01*
X80562240Y-68682500D01*
X80275342Y-68739568D01*
X80005089Y-68851510D01*
X79761868Y-69014025D01*
X79555025Y-69220868D01*
X79438500Y-69395260D01*
X79321975Y-69220868D01*
X79115132Y-69014025D01*
X78871911Y-68851510D01*
X78601658Y-68739568D01*
X78314760Y-68682500D01*
X78022240Y-68682500D01*
X77735342Y-68739568D01*
X77465089Y-68851510D01*
X77221868Y-69014025D01*
X77015025Y-69220868D01*
X76898500Y-69395260D01*
X76781975Y-69220868D01*
X76575132Y-69014025D01*
X76331911Y-68851510D01*
X76061658Y-68739568D01*
X75774760Y-68682500D01*
X75482240Y-68682500D01*
X75195342Y-68739568D01*
X74925089Y-68851510D01*
X74681868Y-69014025D01*
X74475025Y-69220868D01*
X74358500Y-69395260D01*
X74241975Y-69220868D01*
X74035132Y-69014025D01*
X73791911Y-68851510D01*
X73521658Y-68739568D01*
X73234760Y-68682500D01*
X72942240Y-68682500D01*
X72655342Y-68739568D01*
X72385089Y-68851510D01*
X72141868Y-69014025D01*
X71935025Y-69220868D01*
X71818500Y-69395260D01*
X71701975Y-69220868D01*
X71495132Y-69014025D01*
X71251911Y-68851510D01*
X70981658Y-68739568D01*
X70694760Y-68682500D01*
X70402240Y-68682500D01*
X70115342Y-68739568D01*
X69845089Y-68851510D01*
X69601868Y-69014025D01*
X69395025Y-69220868D01*
X69278500Y-69395260D01*
X69161975Y-69220868D01*
X68955132Y-69014025D01*
X68711911Y-68851510D01*
X68441658Y-68739568D01*
X68154760Y-68682500D01*
X67862240Y-68682500D01*
X67575342Y-68739568D01*
X67305089Y-68851510D01*
X67061868Y-69014025D01*
X66855025Y-69220868D01*
X66733305Y-69403034D01*
X66663678Y-69286145D01*
X66468769Y-69069912D01*
X66235420Y-68895859D01*
X65972599Y-68770675D01*
X65825390Y-68726024D01*
X65595500Y-68847345D01*
X65595500Y-70040500D01*
X65615500Y-70040500D01*
X65615500Y-70294500D01*
X65595500Y-70294500D01*
X65595500Y-70314500D01*
X65341500Y-70314500D01*
X65341500Y-70294500D01*
X65321500Y-70294500D01*
X65321500Y-70040500D01*
X65341500Y-70040500D01*
X65341500Y-68847345D01*
X65111610Y-68726024D01*
X64964401Y-68770675D01*
X64701580Y-68895859D01*
X64678143Y-68913341D01*
X61498101Y-65733299D01*
X81199506Y-65733299D01*
X81415628Y-66100058D01*
X81875505Y-66340738D01*
X82373498Y-66487075D01*
X82890471Y-66533448D01*
X83406559Y-66478073D01*
X83901926Y-66323079D01*
X84319172Y-66100058D01*
X84535294Y-65733299D01*
X82867400Y-64065405D01*
X81199506Y-65733299D01*
X61498101Y-65733299D01*
X60598410Y-64833609D01*
X60674971Y-64671804D01*
X60700612Y-64569511D01*
X60707547Y-64604374D01*
X60815720Y-64865527D01*
X60972763Y-65100559D01*
X61172641Y-65300437D01*
X61407673Y-65457480D01*
X61668826Y-65565653D01*
X61946065Y-65620800D01*
X62228735Y-65620800D01*
X62505974Y-65565653D01*
X62767127Y-65457480D01*
X63002159Y-65300437D01*
X63202037Y-65100559D01*
X63359080Y-64865527D01*
X63467253Y-64604374D01*
X63472400Y-64578499D01*
X63477547Y-64604374D01*
X63585720Y-64865527D01*
X63742763Y-65100559D01*
X63942641Y-65300437D01*
X64177673Y-65457480D01*
X64438826Y-65565653D01*
X64716065Y-65620800D01*
X64998735Y-65620800D01*
X65275974Y-65565653D01*
X65537127Y-65457480D01*
X65772159Y-65300437D01*
X65972037Y-65100559D01*
X66129080Y-64865527D01*
X66237253Y-64604374D01*
X66242400Y-64578499D01*
X66247547Y-64604374D01*
X66355720Y-64865527D01*
X66512763Y-65100559D01*
X66712641Y-65300437D01*
X66947673Y-65457480D01*
X67208826Y-65565653D01*
X67486065Y-65620800D01*
X67768735Y-65620800D01*
X68045974Y-65565653D01*
X68307127Y-65457480D01*
X68542159Y-65300437D01*
X68742037Y-65100559D01*
X68899080Y-64865527D01*
X69007253Y-64604374D01*
X69012400Y-64578499D01*
X69017547Y-64604374D01*
X69125720Y-64865527D01*
X69282763Y-65100559D01*
X69482641Y-65300437D01*
X69717673Y-65457480D01*
X69978826Y-65565653D01*
X70256065Y-65620800D01*
X70538735Y-65620800D01*
X70815974Y-65565653D01*
X71077127Y-65457480D01*
X71312159Y-65300437D01*
X71512037Y-65100559D01*
X71669080Y-64865527D01*
X71777253Y-64604374D01*
X71782400Y-64578499D01*
X71787547Y-64604374D01*
X71895720Y-64865527D01*
X72052763Y-65100559D01*
X72252641Y-65300437D01*
X72487673Y-65457480D01*
X72748826Y-65565653D01*
X73026065Y-65620800D01*
X73308735Y-65620800D01*
X73585974Y-65565653D01*
X73847127Y-65457480D01*
X74082159Y-65300437D01*
X74282037Y-65100559D01*
X74439080Y-64865527D01*
X74547253Y-64604374D01*
X74552400Y-64578499D01*
X74557547Y-64604374D01*
X74665720Y-64865527D01*
X74822763Y-65100559D01*
X75022641Y-65300437D01*
X75257673Y-65457480D01*
X75518826Y-65565653D01*
X75796065Y-65620800D01*
X76078735Y-65620800D01*
X76355974Y-65565653D01*
X76617127Y-65457480D01*
X76852159Y-65300437D01*
X77052037Y-65100559D01*
X77209080Y-64865527D01*
X77317253Y-64604374D01*
X77372400Y-64327135D01*
X77372400Y-64044465D01*
X77345429Y-63908871D01*
X80219752Y-63908871D01*
X80275127Y-64424959D01*
X80430121Y-64920326D01*
X80653142Y-65337572D01*
X81019901Y-65553694D01*
X82687795Y-63885800D01*
X81019901Y-62217906D01*
X80653142Y-62434028D01*
X80412462Y-62893905D01*
X80266125Y-63391898D01*
X80219752Y-63908871D01*
X77345429Y-63908871D01*
X77317253Y-63767226D01*
X77209080Y-63506073D01*
X77052037Y-63271041D01*
X76852159Y-63071163D01*
X76617127Y-62914120D01*
X76355974Y-62805947D01*
X76078735Y-62750800D01*
X75796065Y-62750800D01*
X75518826Y-62805947D01*
X75257673Y-62914120D01*
X75022641Y-63071163D01*
X74822763Y-63271041D01*
X74665720Y-63506073D01*
X74557547Y-63767226D01*
X74552400Y-63793101D01*
X74547253Y-63767226D01*
X74439080Y-63506073D01*
X74282037Y-63271041D01*
X74082159Y-63071163D01*
X73847127Y-62914120D01*
X73585974Y-62805947D01*
X73308735Y-62750800D01*
X73026065Y-62750800D01*
X72748826Y-62805947D01*
X72487673Y-62914120D01*
X72252641Y-63071163D01*
X72052763Y-63271041D01*
X71895720Y-63506073D01*
X71787547Y-63767226D01*
X71782400Y-63793101D01*
X71777253Y-63767226D01*
X71669080Y-63506073D01*
X71512037Y-63271041D01*
X71312159Y-63071163D01*
X71077127Y-62914120D01*
X70815974Y-62805947D01*
X70538735Y-62750800D01*
X70256065Y-62750800D01*
X69978826Y-62805947D01*
X69717673Y-62914120D01*
X69482641Y-63071163D01*
X69282763Y-63271041D01*
X69125720Y-63506073D01*
X69017547Y-63767226D01*
X69012400Y-63793101D01*
X69007253Y-63767226D01*
X68899080Y-63506073D01*
X68742037Y-63271041D01*
X68542159Y-63071163D01*
X68307127Y-62914120D01*
X68045974Y-62805947D01*
X67768735Y-62750800D01*
X67486065Y-62750800D01*
X67208826Y-62805947D01*
X66947673Y-62914120D01*
X66712641Y-63071163D01*
X66512763Y-63271041D01*
X66355720Y-63506073D01*
X66247547Y-63767226D01*
X66242400Y-63793101D01*
X66237253Y-63767226D01*
X66129080Y-63506073D01*
X65972037Y-63271041D01*
X65772159Y-63071163D01*
X65537127Y-62914120D01*
X65275974Y-62805947D01*
X64998735Y-62750800D01*
X64716065Y-62750800D01*
X64438826Y-62805947D01*
X64177673Y-62914120D01*
X63942641Y-63071163D01*
X63742763Y-63271041D01*
X63585720Y-63506073D01*
X63477547Y-63767226D01*
X63472400Y-63793101D01*
X63467253Y-63767226D01*
X63359080Y-63506073D01*
X63202037Y-63271041D01*
X63002159Y-63071163D01*
X62767127Y-62914120D01*
X62505974Y-62805947D01*
X62228735Y-62750800D01*
X61946065Y-62750800D01*
X61668826Y-62805947D01*
X61407673Y-62914120D01*
X61172641Y-63071163D01*
X60972763Y-63271041D01*
X60815720Y-63506073D01*
X60707547Y-63767226D01*
X60701887Y-63795682D01*
X60621003Y-63569508D01*
X60554071Y-63444286D01*
X60310102Y-63372703D01*
X59497005Y-64185800D01*
X59511148Y-64199943D01*
X59331543Y-64379548D01*
X59317400Y-64365405D01*
X59303258Y-64379548D01*
X59123653Y-64199943D01*
X59137795Y-64185800D01*
X58324698Y-63372703D01*
X58080729Y-63444286D01*
X57959829Y-63699796D01*
X57934188Y-63802089D01*
X57927253Y-63767226D01*
X57819080Y-63506073D01*
X57662037Y-63271041D01*
X57584094Y-63193098D01*
X58504303Y-63193098D01*
X59317400Y-64006195D01*
X60130497Y-63193098D01*
X60058914Y-62949129D01*
X59803404Y-62828229D01*
X59529216Y-62759500D01*
X59246888Y-62745583D01*
X58967270Y-62787013D01*
X58701108Y-62882197D01*
X58575886Y-62949129D01*
X58504303Y-63193098D01*
X57584094Y-63193098D01*
X57462159Y-63071163D01*
X57227127Y-62914120D01*
X56965974Y-62805947D01*
X56688735Y-62750800D01*
X56406065Y-62750800D01*
X56128826Y-62805947D01*
X55867673Y-62914120D01*
X55632641Y-63071163D01*
X55432763Y-63271041D01*
X55275720Y-63506073D01*
X55167547Y-63767226D01*
X55162400Y-63793101D01*
X55157253Y-63767226D01*
X55049080Y-63506073D01*
X54892037Y-63271041D01*
X54692159Y-63071163D01*
X54457127Y-62914120D01*
X54195974Y-62805947D01*
X53918735Y-62750800D01*
X53636065Y-62750800D01*
X53358826Y-62805947D01*
X53097673Y-62914120D01*
X52862641Y-63071163D01*
X52662763Y-63271041D01*
X52505720Y-63506073D01*
X52397547Y-63767226D01*
X52392400Y-63793101D01*
X52387253Y-63767226D01*
X52279080Y-63506073D01*
X52122037Y-63271041D01*
X51922159Y-63071163D01*
X51687127Y-62914120D01*
X51425974Y-62805947D01*
X51148735Y-62750800D01*
X50866065Y-62750800D01*
X50588826Y-62805947D01*
X50327673Y-62914120D01*
X50092641Y-63071163D01*
X49892763Y-63271041D01*
X49735720Y-63506073D01*
X49627547Y-63767226D01*
X49622400Y-63793101D01*
X49617253Y-63767226D01*
X49509080Y-63506073D01*
X49352037Y-63271041D01*
X49152159Y-63071163D01*
X48917127Y-62914120D01*
X48655974Y-62805947D01*
X48378735Y-62750800D01*
X48096065Y-62750800D01*
X47818826Y-62805947D01*
X47557673Y-62914120D01*
X47322641Y-63071163D01*
X47122763Y-63271041D01*
X46965720Y-63506073D01*
X46960935Y-63517626D01*
X46891017Y-63480254D01*
X46747756Y-63436797D01*
X46688919Y-63431002D01*
X46582037Y-63271041D01*
X46382159Y-63071163D01*
X46147127Y-62914120D01*
X45885974Y-62805947D01*
X45608735Y-62750800D01*
X45326065Y-62750800D01*
X45048826Y-62805947D01*
X44787673Y-62914120D01*
X44552641Y-63071163D01*
X44352763Y-63271041D01*
X44195720Y-63506073D01*
X44133861Y-63655413D01*
X44135472Y-63385800D01*
X44123212Y-63261318D01*
X44086902Y-63141620D01*
X44027937Y-63031306D01*
X43948585Y-62934615D01*
X43851894Y-62855263D01*
X43741580Y-62796298D01*
X43621882Y-62759988D01*
X43497400Y-62747728D01*
X42983150Y-62750800D01*
X42824400Y-62909550D01*
X42824400Y-64058800D01*
X42844400Y-64058800D01*
X42844400Y-64312800D01*
X42824400Y-64312800D01*
X42824400Y-65462050D01*
X42983150Y-65620800D01*
X43497400Y-65623872D01*
X43621882Y-65611612D01*
X43741580Y-65575302D01*
X43851894Y-65516337D01*
X43948585Y-65436985D01*
X44027937Y-65340294D01*
X44086902Y-65229980D01*
X44123212Y-65110282D01*
X44135472Y-64985800D01*
X44133861Y-64716187D01*
X44195720Y-64865527D01*
X44352763Y-65100559D01*
X44552641Y-65300437D01*
X44787673Y-65457480D01*
X45048826Y-65565653D01*
X45326065Y-65620800D01*
X45608735Y-65620800D01*
X45885974Y-65565653D01*
X46147127Y-65457480D01*
X46382159Y-65300437D01*
X46510382Y-65172214D01*
X50030883Y-68692716D01*
X49795342Y-68739568D01*
X49525089Y-68851510D01*
X49281868Y-69014025D01*
X49075025Y-69220868D01*
X48958500Y-69395260D01*
X48841975Y-69220868D01*
X48635132Y-69014025D01*
X48391911Y-68851510D01*
X48121658Y-68739568D01*
X47834760Y-68682500D01*
X47542240Y-68682500D01*
X47255342Y-68739568D01*
X46985089Y-68851510D01*
X46741868Y-69014025D01*
X46535025Y-69220868D01*
X46413305Y-69403034D01*
X46343678Y-69286145D01*
X46148769Y-69069912D01*
X45915420Y-68895859D01*
X45652599Y-68770675D01*
X45505390Y-68726024D01*
X45275500Y-68847345D01*
X45275500Y-70040500D01*
X45295500Y-70040500D01*
X45295500Y-70294500D01*
X45275500Y-70294500D01*
X45275500Y-70314500D01*
X45021500Y-70314500D01*
X45021500Y-70294500D01*
X45001500Y-70294500D01*
X45001500Y-70040500D01*
X45021500Y-70040500D01*
X45021500Y-68847345D01*
X44791610Y-68726024D01*
X44644401Y-68770675D01*
X44381580Y-68895859D01*
X44148231Y-69069912D01*
X43953322Y-69286145D01*
X43883695Y-69403034D01*
X43761975Y-69220868D01*
X43555132Y-69014025D01*
X43311911Y-68851510D01*
X43041658Y-68739568D01*
X42754760Y-68682500D01*
X42462240Y-68682500D01*
X42175342Y-68739568D01*
X41905089Y-68851510D01*
X41661868Y-69014025D01*
X41455025Y-69220868D01*
X41338500Y-69395260D01*
X41221975Y-69220868D01*
X41015132Y-69014025D01*
X40771911Y-68851510D01*
X40501658Y-68739568D01*
X40214760Y-68682500D01*
X39922240Y-68682500D01*
X39635342Y-68739568D01*
X39365089Y-68851510D01*
X39121868Y-69014025D01*
X38915025Y-69220868D01*
X38798500Y-69395260D01*
X38681975Y-69220868D01*
X38475132Y-69014025D01*
X38231911Y-68851510D01*
X37961658Y-68739568D01*
X37674760Y-68682500D01*
X37382240Y-68682500D01*
X37095342Y-68739568D01*
X36825089Y-68851510D01*
X36581868Y-69014025D01*
X36450013Y-69145880D01*
X36428002Y-69073320D01*
X36369037Y-68963006D01*
X36289685Y-68866315D01*
X36192994Y-68786963D01*
X36082680Y-68727998D01*
X35962982Y-68691688D01*
X35838500Y-68679428D01*
X34138500Y-68679428D01*
X34014018Y-68691688D01*
X33894320Y-68727998D01*
X33784006Y-68786963D01*
X33687315Y-68866315D01*
X33607963Y-68963006D01*
X33548998Y-69073320D01*
X33512688Y-69193018D01*
X33500428Y-69317500D01*
X31284164Y-69317500D01*
X31240846Y-69288556D01*
X30802146Y-69106840D01*
X30336423Y-69014202D01*
X29861577Y-69014202D01*
X29395854Y-69106840D01*
X28957154Y-69288556D01*
X28562333Y-69552366D01*
X28226566Y-69888133D01*
X27962756Y-70282954D01*
X27781040Y-70721654D01*
X27688402Y-71187377D01*
X27233969Y-71187377D01*
X27229559Y-68579200D01*
X32173553Y-68579200D01*
X32207200Y-68582514D01*
X32240847Y-68579200D01*
X32341483Y-68569288D01*
X32470606Y-68530119D01*
X32589607Y-68466512D01*
X32693911Y-68380911D01*
X32779512Y-68276607D01*
X32843119Y-68157606D01*
X32882288Y-68028483D01*
X32895514Y-67894200D01*
X32892200Y-67860553D01*
X32892200Y-65733299D01*
X34099506Y-65733299D01*
X34315628Y-66100058D01*
X34775505Y-66340738D01*
X35273498Y-66487075D01*
X35790471Y-66533448D01*
X36306559Y-66478073D01*
X36801926Y-66323079D01*
X37219172Y-66100058D01*
X37435294Y-65733299D01*
X35767400Y-64065405D01*
X34099506Y-65733299D01*
X32892200Y-65733299D01*
X32892200Y-63908871D01*
X33119752Y-63908871D01*
X33175127Y-64424959D01*
X33330121Y-64920326D01*
X33553142Y-65337572D01*
X33919901Y-65553694D01*
X35587795Y-63885800D01*
X35947005Y-63885800D01*
X37614899Y-65553694D01*
X37981658Y-65337572D01*
X38165760Y-64985800D01*
X41259328Y-64985800D01*
X41271588Y-65110282D01*
X41307898Y-65229980D01*
X41366863Y-65340294D01*
X41446215Y-65436985D01*
X41542906Y-65516337D01*
X41653220Y-65575302D01*
X41772918Y-65611612D01*
X41897400Y-65623872D01*
X42411650Y-65620800D01*
X42570400Y-65462050D01*
X42570400Y-64312800D01*
X41421150Y-64312800D01*
X41262400Y-64471550D01*
X41259328Y-64985800D01*
X38165760Y-64985800D01*
X38222338Y-64877695D01*
X38368675Y-64379702D01*
X38415048Y-63862729D01*
X38363875Y-63385800D01*
X41259328Y-63385800D01*
X41262400Y-63900050D01*
X41421150Y-64058800D01*
X42570400Y-64058800D01*
X42570400Y-62909550D01*
X42411650Y-62750800D01*
X41897400Y-62747728D01*
X41772918Y-62759988D01*
X41653220Y-62796298D01*
X41542906Y-62855263D01*
X41446215Y-62934615D01*
X41366863Y-63031306D01*
X41307898Y-63141620D01*
X41271588Y-63261318D01*
X41259328Y-63385800D01*
X38363875Y-63385800D01*
X38359673Y-63346641D01*
X38204679Y-62851274D01*
X37981658Y-62434028D01*
X37614899Y-62217906D01*
X35947005Y-63885800D01*
X35587795Y-63885800D01*
X33919901Y-62217906D01*
X33553142Y-62434028D01*
X33312462Y-62893905D01*
X33166125Y-63391898D01*
X33119752Y-63908871D01*
X32892200Y-63908871D01*
X32892200Y-62038301D01*
X34099506Y-62038301D01*
X35767400Y-63706195D01*
X37435294Y-62038301D01*
X37219172Y-61671542D01*
X36759295Y-61430862D01*
X36261302Y-61284525D01*
X35744329Y-61238152D01*
X35228241Y-61293527D01*
X34732874Y-61448521D01*
X34315628Y-61671542D01*
X34099506Y-62038301D01*
X32892200Y-62038301D01*
X32892200Y-61204465D01*
X42647400Y-61204465D01*
X42647400Y-61487135D01*
X42702547Y-61764374D01*
X42810720Y-62025527D01*
X42967763Y-62260559D01*
X43167641Y-62460437D01*
X43402673Y-62617480D01*
X43663826Y-62725653D01*
X43941065Y-62780800D01*
X44223735Y-62780800D01*
X44500974Y-62725653D01*
X44762127Y-62617480D01*
X44997159Y-62460437D01*
X45197037Y-62260559D01*
X45354080Y-62025527D01*
X45462253Y-61764374D01*
X45467400Y-61738499D01*
X45472547Y-61764374D01*
X45580720Y-62025527D01*
X45737763Y-62260559D01*
X45937641Y-62460437D01*
X46172673Y-62617480D01*
X46433826Y-62725653D01*
X46711065Y-62780800D01*
X46993735Y-62780800D01*
X47270974Y-62725653D01*
X47532127Y-62617480D01*
X47767159Y-62460437D01*
X47967037Y-62260559D01*
X48124080Y-62025527D01*
X48232253Y-61764374D01*
X48237400Y-61738499D01*
X48242547Y-61764374D01*
X48350720Y-62025527D01*
X48507763Y-62260559D01*
X48707641Y-62460437D01*
X48942673Y-62617480D01*
X49203826Y-62725653D01*
X49481065Y-62780800D01*
X49763735Y-62780800D01*
X50040974Y-62725653D01*
X50302127Y-62617480D01*
X50537159Y-62460437D01*
X50737037Y-62260559D01*
X50894080Y-62025527D01*
X51002253Y-61764374D01*
X51007400Y-61738499D01*
X51012547Y-61764374D01*
X51120720Y-62025527D01*
X51277763Y-62260559D01*
X51477641Y-62460437D01*
X51712673Y-62617480D01*
X51973826Y-62725653D01*
X52251065Y-62780800D01*
X52533735Y-62780800D01*
X52810974Y-62725653D01*
X53072127Y-62617480D01*
X53307159Y-62460437D01*
X53507037Y-62260559D01*
X53664080Y-62025527D01*
X53772253Y-61764374D01*
X53777400Y-61738499D01*
X53782547Y-61764374D01*
X53890720Y-62025527D01*
X54047763Y-62260559D01*
X54247641Y-62460437D01*
X54482673Y-62617480D01*
X54743826Y-62725653D01*
X55021065Y-62780800D01*
X55303735Y-62780800D01*
X55580974Y-62725653D01*
X55842127Y-62617480D01*
X56077159Y-62460437D01*
X56277037Y-62260559D01*
X56434080Y-62025527D01*
X56542253Y-61764374D01*
X56547400Y-61738499D01*
X56552547Y-61764374D01*
X56660720Y-62025527D01*
X56817763Y-62260559D01*
X57017641Y-62460437D01*
X57252673Y-62617480D01*
X57513826Y-62725653D01*
X57791065Y-62780800D01*
X58073735Y-62780800D01*
X58350974Y-62725653D01*
X58612127Y-62617480D01*
X58847159Y-62460437D01*
X59047037Y-62260559D01*
X59204080Y-62025527D01*
X59312253Y-61764374D01*
X59317400Y-61738499D01*
X59322547Y-61764374D01*
X59430720Y-62025527D01*
X59587763Y-62260559D01*
X59787641Y-62460437D01*
X60022673Y-62617480D01*
X60283826Y-62725653D01*
X60561065Y-62780800D01*
X60843735Y-62780800D01*
X61120974Y-62725653D01*
X61382127Y-62617480D01*
X61617159Y-62460437D01*
X61817037Y-62260559D01*
X61974080Y-62025527D01*
X62082253Y-61764374D01*
X62087400Y-61738499D01*
X62092547Y-61764374D01*
X62200720Y-62025527D01*
X62357763Y-62260559D01*
X62557641Y-62460437D01*
X62792673Y-62617480D01*
X63053826Y-62725653D01*
X63331065Y-62780800D01*
X63613735Y-62780800D01*
X63890974Y-62725653D01*
X64152127Y-62617480D01*
X64387159Y-62460437D01*
X64587037Y-62260559D01*
X64744080Y-62025527D01*
X64852253Y-61764374D01*
X64857400Y-61738499D01*
X64862547Y-61764374D01*
X64970720Y-62025527D01*
X65127763Y-62260559D01*
X65327641Y-62460437D01*
X65562673Y-62617480D01*
X65823826Y-62725653D01*
X66101065Y-62780800D01*
X66383735Y-62780800D01*
X66660974Y-62725653D01*
X66922127Y-62617480D01*
X67157159Y-62460437D01*
X67357037Y-62260559D01*
X67514080Y-62025527D01*
X67622253Y-61764374D01*
X67627400Y-61738499D01*
X67632547Y-61764374D01*
X67740720Y-62025527D01*
X67897763Y-62260559D01*
X68097641Y-62460437D01*
X68332673Y-62617480D01*
X68593826Y-62725653D01*
X68871065Y-62780800D01*
X69153735Y-62780800D01*
X69430974Y-62725653D01*
X69692127Y-62617480D01*
X69927159Y-62460437D01*
X70127037Y-62260559D01*
X70284080Y-62025527D01*
X70392253Y-61764374D01*
X70397400Y-61738499D01*
X70402547Y-61764374D01*
X70510720Y-62025527D01*
X70667763Y-62260559D01*
X70867641Y-62460437D01*
X71102673Y-62617480D01*
X71363826Y-62725653D01*
X71641065Y-62780800D01*
X71923735Y-62780800D01*
X72200974Y-62725653D01*
X72462127Y-62617480D01*
X72697159Y-62460437D01*
X72897037Y-62260559D01*
X73054080Y-62025527D01*
X73162253Y-61764374D01*
X73167400Y-61738499D01*
X73172547Y-61764374D01*
X73280720Y-62025527D01*
X73437763Y-62260559D01*
X73637641Y-62460437D01*
X73872673Y-62617480D01*
X74133826Y-62725653D01*
X74411065Y-62780800D01*
X74693735Y-62780800D01*
X74970974Y-62725653D01*
X75232127Y-62617480D01*
X75467159Y-62460437D01*
X75667037Y-62260559D01*
X75815544Y-62038301D01*
X81199506Y-62038301D01*
X82867400Y-63706195D01*
X84535294Y-62038301D01*
X84319172Y-61671542D01*
X83859295Y-61430862D01*
X83361302Y-61284525D01*
X82844329Y-61238152D01*
X82328241Y-61293527D01*
X81832874Y-61448521D01*
X81415628Y-61671542D01*
X81199506Y-62038301D01*
X75815544Y-62038301D01*
X75824080Y-62025527D01*
X75932253Y-61764374D01*
X75987400Y-61487135D01*
X75987400Y-61204465D01*
X75932253Y-60927226D01*
X75824080Y-60666073D01*
X75667037Y-60431041D01*
X75467159Y-60231163D01*
X75232127Y-60074120D01*
X74970974Y-59965947D01*
X74693735Y-59910800D01*
X74411065Y-59910800D01*
X74133826Y-59965947D01*
X73872673Y-60074120D01*
X73637641Y-60231163D01*
X73437763Y-60431041D01*
X73280720Y-60666073D01*
X73172547Y-60927226D01*
X73167400Y-60953101D01*
X73162253Y-60927226D01*
X73054080Y-60666073D01*
X72897037Y-60431041D01*
X72697159Y-60231163D01*
X72462127Y-60074120D01*
X72200974Y-59965947D01*
X71923735Y-59910800D01*
X71641065Y-59910800D01*
X71363826Y-59965947D01*
X71102673Y-60074120D01*
X70867641Y-60231163D01*
X70667763Y-60431041D01*
X70510720Y-60666073D01*
X70402547Y-60927226D01*
X70397400Y-60953101D01*
X70392253Y-60927226D01*
X70284080Y-60666073D01*
X70127037Y-60431041D01*
X69927159Y-60231163D01*
X69692127Y-60074120D01*
X69430974Y-59965947D01*
X69153735Y-59910800D01*
X68871065Y-59910800D01*
X68593826Y-59965947D01*
X68332673Y-60074120D01*
X68097641Y-60231163D01*
X67897763Y-60431041D01*
X67740720Y-60666073D01*
X67632547Y-60927226D01*
X67627400Y-60953101D01*
X67622253Y-60927226D01*
X67514080Y-60666073D01*
X67357037Y-60431041D01*
X67157159Y-60231163D01*
X66922127Y-60074120D01*
X66660974Y-59965947D01*
X66383735Y-59910800D01*
X66101065Y-59910800D01*
X65823826Y-59965947D01*
X65562673Y-60074120D01*
X65327641Y-60231163D01*
X65127763Y-60431041D01*
X64970720Y-60666073D01*
X64862547Y-60927226D01*
X64857400Y-60953101D01*
X64852253Y-60927226D01*
X64744080Y-60666073D01*
X64587037Y-60431041D01*
X64387159Y-60231163D01*
X64152127Y-60074120D01*
X63890974Y-59965947D01*
X63613735Y-59910800D01*
X63331065Y-59910800D01*
X63053826Y-59965947D01*
X62792673Y-60074120D01*
X62557641Y-60231163D01*
X62357763Y-60431041D01*
X62200720Y-60666073D01*
X62092547Y-60927226D01*
X62087400Y-60953101D01*
X62082253Y-60927226D01*
X61974080Y-60666073D01*
X61817037Y-60431041D01*
X61617159Y-60231163D01*
X61382127Y-60074120D01*
X61120974Y-59965947D01*
X60843735Y-59910800D01*
X60561065Y-59910800D01*
X60283826Y-59965947D01*
X60022673Y-60074120D01*
X59787641Y-60231163D01*
X59587763Y-60431041D01*
X59430720Y-60666073D01*
X59322547Y-60927226D01*
X59317400Y-60953101D01*
X59312253Y-60927226D01*
X59204080Y-60666073D01*
X59047037Y-60431041D01*
X58847159Y-60231163D01*
X58612127Y-60074120D01*
X58350974Y-59965947D01*
X58073735Y-59910800D01*
X57791065Y-59910800D01*
X57513826Y-59965947D01*
X57252673Y-60074120D01*
X57017641Y-60231163D01*
X56817763Y-60431041D01*
X56660720Y-60666073D01*
X56552547Y-60927226D01*
X56547400Y-60953101D01*
X56542253Y-60927226D01*
X56434080Y-60666073D01*
X56277037Y-60431041D01*
X56077159Y-60231163D01*
X55842127Y-60074120D01*
X55580974Y-59965947D01*
X55303735Y-59910800D01*
X55021065Y-59910800D01*
X54743826Y-59965947D01*
X54482673Y-60074120D01*
X54247641Y-60231163D01*
X54047763Y-60431041D01*
X53890720Y-60666073D01*
X53782547Y-60927226D01*
X53777400Y-60953101D01*
X53772253Y-60927226D01*
X53664080Y-60666073D01*
X53507037Y-60431041D01*
X53307159Y-60231163D01*
X53072127Y-60074120D01*
X52810974Y-59965947D01*
X52533735Y-59910800D01*
X52251065Y-59910800D01*
X51973826Y-59965947D01*
X51712673Y-60074120D01*
X51477641Y-60231163D01*
X51277763Y-60431041D01*
X51120720Y-60666073D01*
X51012547Y-60927226D01*
X51007400Y-60953101D01*
X51002253Y-60927226D01*
X50894080Y-60666073D01*
X50737037Y-60431041D01*
X50537159Y-60231163D01*
X50302127Y-60074120D01*
X50040974Y-59965947D01*
X49763735Y-59910800D01*
X49481065Y-59910800D01*
X49203826Y-59965947D01*
X48942673Y-60074120D01*
X48707641Y-60231163D01*
X48507763Y-60431041D01*
X48350720Y-60666073D01*
X48242547Y-60927226D01*
X48237400Y-60953101D01*
X48232253Y-60927226D01*
X48124080Y-60666073D01*
X47967037Y-60431041D01*
X47767159Y-60231163D01*
X47532127Y-60074120D01*
X47270974Y-59965947D01*
X46993735Y-59910800D01*
X46711065Y-59910800D01*
X46433826Y-59965947D01*
X46172673Y-60074120D01*
X45937641Y-60231163D01*
X45737763Y-60431041D01*
X45580720Y-60666073D01*
X45472547Y-60927226D01*
X45467400Y-60953101D01*
X45462253Y-60927226D01*
X45354080Y-60666073D01*
X45197037Y-60431041D01*
X44997159Y-60231163D01*
X44762127Y-60074120D01*
X44500974Y-59965947D01*
X44223735Y-59910800D01*
X43941065Y-59910800D01*
X43663826Y-59965947D01*
X43402673Y-60074120D01*
X43167641Y-60231163D01*
X42967763Y-60431041D01*
X42810720Y-60666073D01*
X42702547Y-60927226D01*
X42647400Y-61204465D01*
X32892200Y-61204465D01*
X32892200Y-56665951D01*
X85192400Y-56616448D01*
X85192401Y-62641214D01*
M02*
