M48
; DRILL file {KiCad (5.1.5-0-10_14)} date Saturday, 03 April 2021 at 11:55:33 am
; FORMAT={-:-/ absolute / metric / decimal}
; #@! TF.CreationDate,2021-04-03T11:55:33+11:00
; #@! TF.GenerationSoftware,Kicad,Pcbnew,(5.1.5-0-10_14)
; #@! TF.FileFunction,Plated,1,2,PTH
FMAT,2
METRIC
T1C0.400
T2C1.000
T3C3.200
%
G90
G05
T1
X66.116Y-85.293
X66.548Y-81.342
X67.564Y-79.096
X70.053Y-92.227
X70.688Y-85.878
X70.917Y-91.037
X71.653Y-82.194
X72.009Y-88.24
X75.413Y-80.696
X76.175Y-75.997
X76.175Y-87.122
X76.937Y-89.383
X77.267Y-84.938
X81.61Y-84.861
T2
X42.697Y-64.186
X44.082Y-61.346
X45.467Y-64.186
X46.852Y-61.346
X48.237Y-64.186
X49.622Y-61.346
X51.007Y-64.186
X52.392Y-61.346
X53.777Y-64.186
X55.162Y-61.346
X56.547Y-64.186
X57.932Y-61.346
X59.317Y-64.186
X60.702Y-61.346
X62.087Y-64.186
X63.472Y-61.346
X64.857Y-64.186
X66.242Y-61.346
X67.627Y-64.186
X69.012Y-61.346
X70.397Y-64.186
X71.782Y-61.346
X73.167Y-64.186
X74.552Y-61.346
X75.937Y-64.186
X34.989Y-70.167
X34.989Y-72.707
X37.529Y-70.167
X37.529Y-72.707
X40.069Y-70.167
X40.069Y-72.707
X42.608Y-70.167
X42.608Y-72.707
X45.148Y-70.167
X45.148Y-72.707
X47.688Y-70.167
X47.688Y-72.707
X50.228Y-70.167
X50.228Y-72.707
X52.768Y-70.167
X52.768Y-72.707
X55.308Y-70.167
X55.308Y-72.707
X57.848Y-70.167
X57.848Y-72.707
X60.389Y-70.167
X60.389Y-72.707
X62.928Y-70.167
X62.928Y-72.707
X65.468Y-70.167
X65.468Y-72.707
X68.008Y-70.167
X68.008Y-72.707
X70.548Y-70.167
X70.548Y-72.707
X73.088Y-70.167
X73.088Y-72.707
X75.629Y-70.167
X75.629Y-72.707
X78.168Y-70.167
X78.168Y-72.707
X80.709Y-70.167
X80.709Y-72.707
X83.248Y-70.167
X83.248Y-72.707
T3
X88.138Y-71.45
X30.099Y-71.425
X30.099Y-94.437
X88.138Y-94.437
X35.767Y-63.886
X82.867Y-63.886
T0
M30
