G04 #@! TF.GenerationSoftware,KiCad,Pcbnew,(5.1.5-0-10_14)*
G04 #@! TF.CreationDate,2021-04-02T15:52:58+11:00*
G04 #@! TF.ProjectId,Pi_Zero_RS232_DB25_Hat,50695f5a-6572-46f5-9f52-533233325f44,rev?*
G04 #@! TF.SameCoordinates,Original*
G04 #@! TF.FileFunction,Paste,Top*
G04 #@! TF.FilePolarity,Positive*
%FSLAX46Y46*%
G04 Gerber Fmt 4.6, Leading zero omitted, Abs format (unit mm)*
G04 Created by KiCad (PCBNEW (5.1.5-0-10_14)) date 2021-04-02 15:52:58*
%MOMM*%
%LPD*%
G04 APERTURE LIST*
%ADD10C,0.100000*%
G04 APERTURE END LIST*
D10*
G36*
X63510305Y-76517204D02*
G01*
X63534573Y-76520804D01*
X63558372Y-76526765D01*
X63581471Y-76535030D01*
X63603650Y-76545520D01*
X63624693Y-76558132D01*
X63644399Y-76572747D01*
X63662577Y-76589223D01*
X63679053Y-76607401D01*
X63693668Y-76627107D01*
X63706280Y-76648150D01*
X63716770Y-76670329D01*
X63725035Y-76693428D01*
X63730996Y-76717227D01*
X63734596Y-76741495D01*
X63735800Y-76765999D01*
X63735800Y-77666001D01*
X63734596Y-77690505D01*
X63730996Y-77714773D01*
X63725035Y-77738572D01*
X63716770Y-77761671D01*
X63706280Y-77783850D01*
X63693668Y-77804893D01*
X63679053Y-77824599D01*
X63662577Y-77842777D01*
X63644399Y-77859253D01*
X63624693Y-77873868D01*
X63603650Y-77886480D01*
X63581471Y-77896970D01*
X63558372Y-77905235D01*
X63534573Y-77911196D01*
X63510305Y-77914796D01*
X63485801Y-77916000D01*
X62835799Y-77916000D01*
X62811295Y-77914796D01*
X62787027Y-77911196D01*
X62763228Y-77905235D01*
X62740129Y-77896970D01*
X62717950Y-77886480D01*
X62696907Y-77873868D01*
X62677201Y-77859253D01*
X62659023Y-77842777D01*
X62642547Y-77824599D01*
X62627932Y-77804893D01*
X62615320Y-77783850D01*
X62604830Y-77761671D01*
X62596565Y-77738572D01*
X62590604Y-77714773D01*
X62587004Y-77690505D01*
X62585800Y-77666001D01*
X62585800Y-76765999D01*
X62587004Y-76741495D01*
X62590604Y-76717227D01*
X62596565Y-76693428D01*
X62604830Y-76670329D01*
X62615320Y-76648150D01*
X62627932Y-76627107D01*
X62642547Y-76607401D01*
X62659023Y-76589223D01*
X62677201Y-76572747D01*
X62696907Y-76558132D01*
X62717950Y-76545520D01*
X62740129Y-76535030D01*
X62763228Y-76526765D01*
X62787027Y-76520804D01*
X62811295Y-76517204D01*
X62835799Y-76516000D01*
X63485801Y-76516000D01*
X63510305Y-76517204D01*
G37*
G36*
X65560305Y-76517204D02*
G01*
X65584573Y-76520804D01*
X65608372Y-76526765D01*
X65631471Y-76535030D01*
X65653650Y-76545520D01*
X65674693Y-76558132D01*
X65694399Y-76572747D01*
X65712577Y-76589223D01*
X65729053Y-76607401D01*
X65743668Y-76627107D01*
X65756280Y-76648150D01*
X65766770Y-76670329D01*
X65775035Y-76693428D01*
X65780996Y-76717227D01*
X65784596Y-76741495D01*
X65785800Y-76765999D01*
X65785800Y-77666001D01*
X65784596Y-77690505D01*
X65780996Y-77714773D01*
X65775035Y-77738572D01*
X65766770Y-77761671D01*
X65756280Y-77783850D01*
X65743668Y-77804893D01*
X65729053Y-77824599D01*
X65712577Y-77842777D01*
X65694399Y-77859253D01*
X65674693Y-77873868D01*
X65653650Y-77886480D01*
X65631471Y-77896970D01*
X65608372Y-77905235D01*
X65584573Y-77911196D01*
X65560305Y-77914796D01*
X65535801Y-77916000D01*
X64885799Y-77916000D01*
X64861295Y-77914796D01*
X64837027Y-77911196D01*
X64813228Y-77905235D01*
X64790129Y-77896970D01*
X64767950Y-77886480D01*
X64746907Y-77873868D01*
X64727201Y-77859253D01*
X64709023Y-77842777D01*
X64692547Y-77824599D01*
X64677932Y-77804893D01*
X64665320Y-77783850D01*
X64654830Y-77761671D01*
X64646565Y-77738572D01*
X64640604Y-77714773D01*
X64637004Y-77690505D01*
X64635800Y-77666001D01*
X64635800Y-76765999D01*
X64637004Y-76741495D01*
X64640604Y-76717227D01*
X64646565Y-76693428D01*
X64654830Y-76670329D01*
X64665320Y-76648150D01*
X64677932Y-76627107D01*
X64692547Y-76607401D01*
X64709023Y-76589223D01*
X64727201Y-76572747D01*
X64746907Y-76558132D01*
X64767950Y-76545520D01*
X64790129Y-76535030D01*
X64813228Y-76526765D01*
X64837027Y-76520804D01*
X64861295Y-76517204D01*
X64885799Y-76516000D01*
X65535801Y-76516000D01*
X65560305Y-76517204D01*
G37*
G36*
X70520705Y-76568004D02*
G01*
X70544973Y-76571604D01*
X70568772Y-76577565D01*
X70591871Y-76585830D01*
X70614050Y-76596320D01*
X70635093Y-76608932D01*
X70654799Y-76623547D01*
X70672977Y-76640023D01*
X70689453Y-76658201D01*
X70704068Y-76677907D01*
X70716680Y-76698950D01*
X70727170Y-76721129D01*
X70735435Y-76744228D01*
X70741396Y-76768027D01*
X70744996Y-76792295D01*
X70746200Y-76816799D01*
X70746200Y-77716801D01*
X70744996Y-77741305D01*
X70741396Y-77765573D01*
X70735435Y-77789372D01*
X70727170Y-77812471D01*
X70716680Y-77834650D01*
X70704068Y-77855693D01*
X70689453Y-77875399D01*
X70672977Y-77893577D01*
X70654799Y-77910053D01*
X70635093Y-77924668D01*
X70614050Y-77937280D01*
X70591871Y-77947770D01*
X70568772Y-77956035D01*
X70544973Y-77961996D01*
X70520705Y-77965596D01*
X70496201Y-77966800D01*
X69846199Y-77966800D01*
X69821695Y-77965596D01*
X69797427Y-77961996D01*
X69773628Y-77956035D01*
X69750529Y-77947770D01*
X69728350Y-77937280D01*
X69707307Y-77924668D01*
X69687601Y-77910053D01*
X69669423Y-77893577D01*
X69652947Y-77875399D01*
X69638332Y-77855693D01*
X69625720Y-77834650D01*
X69615230Y-77812471D01*
X69606965Y-77789372D01*
X69601004Y-77765573D01*
X69597404Y-77741305D01*
X69596200Y-77716801D01*
X69596200Y-76816799D01*
X69597404Y-76792295D01*
X69601004Y-76768027D01*
X69606965Y-76744228D01*
X69615230Y-76721129D01*
X69625720Y-76698950D01*
X69638332Y-76677907D01*
X69652947Y-76658201D01*
X69669423Y-76640023D01*
X69687601Y-76623547D01*
X69707307Y-76608932D01*
X69728350Y-76596320D01*
X69750529Y-76585830D01*
X69773628Y-76577565D01*
X69797427Y-76571604D01*
X69821695Y-76568004D01*
X69846199Y-76566800D01*
X70496201Y-76566800D01*
X70520705Y-76568004D01*
G37*
G36*
X72570705Y-76568004D02*
G01*
X72594973Y-76571604D01*
X72618772Y-76577565D01*
X72641871Y-76585830D01*
X72664050Y-76596320D01*
X72685093Y-76608932D01*
X72704799Y-76623547D01*
X72722977Y-76640023D01*
X72739453Y-76658201D01*
X72754068Y-76677907D01*
X72766680Y-76698950D01*
X72777170Y-76721129D01*
X72785435Y-76744228D01*
X72791396Y-76768027D01*
X72794996Y-76792295D01*
X72796200Y-76816799D01*
X72796200Y-77716801D01*
X72794996Y-77741305D01*
X72791396Y-77765573D01*
X72785435Y-77789372D01*
X72777170Y-77812471D01*
X72766680Y-77834650D01*
X72754068Y-77855693D01*
X72739453Y-77875399D01*
X72722977Y-77893577D01*
X72704799Y-77910053D01*
X72685093Y-77924668D01*
X72664050Y-77937280D01*
X72641871Y-77947770D01*
X72618772Y-77956035D01*
X72594973Y-77961996D01*
X72570705Y-77965596D01*
X72546201Y-77966800D01*
X71896199Y-77966800D01*
X71871695Y-77965596D01*
X71847427Y-77961996D01*
X71823628Y-77956035D01*
X71800529Y-77947770D01*
X71778350Y-77937280D01*
X71757307Y-77924668D01*
X71737601Y-77910053D01*
X71719423Y-77893577D01*
X71702947Y-77875399D01*
X71688332Y-77855693D01*
X71675720Y-77834650D01*
X71665230Y-77812471D01*
X71656965Y-77789372D01*
X71651004Y-77765573D01*
X71647404Y-77741305D01*
X71646200Y-77716801D01*
X71646200Y-76816799D01*
X71647404Y-76792295D01*
X71651004Y-76768027D01*
X71656965Y-76744228D01*
X71665230Y-76721129D01*
X71675720Y-76698950D01*
X71688332Y-76677907D01*
X71702947Y-76658201D01*
X71719423Y-76640023D01*
X71737601Y-76623547D01*
X71757307Y-76608932D01*
X71778350Y-76596320D01*
X71800529Y-76585830D01*
X71823628Y-76577565D01*
X71847427Y-76571604D01*
X71871695Y-76568004D01*
X71896199Y-76566800D01*
X72546201Y-76566800D01*
X72570705Y-76568004D01*
G37*
G36*
X80571705Y-76441004D02*
G01*
X80595973Y-76444604D01*
X80619772Y-76450565D01*
X80642871Y-76458830D01*
X80665050Y-76469320D01*
X80686093Y-76481932D01*
X80705799Y-76496547D01*
X80723977Y-76513023D01*
X80740453Y-76531201D01*
X80755068Y-76550907D01*
X80767680Y-76571950D01*
X80778170Y-76594129D01*
X80786435Y-76617228D01*
X80792396Y-76641027D01*
X80795996Y-76665295D01*
X80797200Y-76689799D01*
X80797200Y-77589801D01*
X80795996Y-77614305D01*
X80792396Y-77638573D01*
X80786435Y-77662372D01*
X80778170Y-77685471D01*
X80767680Y-77707650D01*
X80755068Y-77728693D01*
X80740453Y-77748399D01*
X80723977Y-77766577D01*
X80705799Y-77783053D01*
X80686093Y-77797668D01*
X80665050Y-77810280D01*
X80642871Y-77820770D01*
X80619772Y-77829035D01*
X80595973Y-77834996D01*
X80571705Y-77838596D01*
X80547201Y-77839800D01*
X79897199Y-77839800D01*
X79872695Y-77838596D01*
X79848427Y-77834996D01*
X79824628Y-77829035D01*
X79801529Y-77820770D01*
X79779350Y-77810280D01*
X79758307Y-77797668D01*
X79738601Y-77783053D01*
X79720423Y-77766577D01*
X79703947Y-77748399D01*
X79689332Y-77728693D01*
X79676720Y-77707650D01*
X79666230Y-77685471D01*
X79657965Y-77662372D01*
X79652004Y-77638573D01*
X79648404Y-77614305D01*
X79647200Y-77589801D01*
X79647200Y-76689799D01*
X79648404Y-76665295D01*
X79652004Y-76641027D01*
X79657965Y-76617228D01*
X79666230Y-76594129D01*
X79676720Y-76571950D01*
X79689332Y-76550907D01*
X79703947Y-76531201D01*
X79720423Y-76513023D01*
X79738601Y-76496547D01*
X79758307Y-76481932D01*
X79779350Y-76469320D01*
X79801529Y-76458830D01*
X79824628Y-76450565D01*
X79848427Y-76444604D01*
X79872695Y-76441004D01*
X79897199Y-76439800D01*
X80547201Y-76439800D01*
X80571705Y-76441004D01*
G37*
G36*
X78521705Y-76441004D02*
G01*
X78545973Y-76444604D01*
X78569772Y-76450565D01*
X78592871Y-76458830D01*
X78615050Y-76469320D01*
X78636093Y-76481932D01*
X78655799Y-76496547D01*
X78673977Y-76513023D01*
X78690453Y-76531201D01*
X78705068Y-76550907D01*
X78717680Y-76571950D01*
X78728170Y-76594129D01*
X78736435Y-76617228D01*
X78742396Y-76641027D01*
X78745996Y-76665295D01*
X78747200Y-76689799D01*
X78747200Y-77589801D01*
X78745996Y-77614305D01*
X78742396Y-77638573D01*
X78736435Y-77662372D01*
X78728170Y-77685471D01*
X78717680Y-77707650D01*
X78705068Y-77728693D01*
X78690453Y-77748399D01*
X78673977Y-77766577D01*
X78655799Y-77783053D01*
X78636093Y-77797668D01*
X78615050Y-77810280D01*
X78592871Y-77820770D01*
X78569772Y-77829035D01*
X78545973Y-77834996D01*
X78521705Y-77838596D01*
X78497201Y-77839800D01*
X77847199Y-77839800D01*
X77822695Y-77838596D01*
X77798427Y-77834996D01*
X77774628Y-77829035D01*
X77751529Y-77820770D01*
X77729350Y-77810280D01*
X77708307Y-77797668D01*
X77688601Y-77783053D01*
X77670423Y-77766577D01*
X77653947Y-77748399D01*
X77639332Y-77728693D01*
X77626720Y-77707650D01*
X77616230Y-77685471D01*
X77607965Y-77662372D01*
X77602004Y-77638573D01*
X77598404Y-77614305D01*
X77597200Y-77589801D01*
X77597200Y-76689799D01*
X77598404Y-76665295D01*
X77602004Y-76641027D01*
X77607965Y-76617228D01*
X77616230Y-76594129D01*
X77626720Y-76571950D01*
X77639332Y-76550907D01*
X77653947Y-76531201D01*
X77670423Y-76513023D01*
X77688601Y-76496547D01*
X77708307Y-76481932D01*
X77729350Y-76469320D01*
X77751529Y-76458830D01*
X77774628Y-76450565D01*
X77798427Y-76444604D01*
X77822695Y-76441004D01*
X77847199Y-76439800D01*
X78497201Y-76439800D01*
X78521705Y-76441004D01*
G37*
G36*
X80571705Y-81216204D02*
G01*
X80595973Y-81219804D01*
X80619772Y-81225765D01*
X80642871Y-81234030D01*
X80665050Y-81244520D01*
X80686093Y-81257132D01*
X80705799Y-81271747D01*
X80723977Y-81288223D01*
X80740453Y-81306401D01*
X80755068Y-81326107D01*
X80767680Y-81347150D01*
X80778170Y-81369329D01*
X80786435Y-81392428D01*
X80792396Y-81416227D01*
X80795996Y-81440495D01*
X80797200Y-81464999D01*
X80797200Y-82365001D01*
X80795996Y-82389505D01*
X80792396Y-82413773D01*
X80786435Y-82437572D01*
X80778170Y-82460671D01*
X80767680Y-82482850D01*
X80755068Y-82503893D01*
X80740453Y-82523599D01*
X80723977Y-82541777D01*
X80705799Y-82558253D01*
X80686093Y-82572868D01*
X80665050Y-82585480D01*
X80642871Y-82595970D01*
X80619772Y-82604235D01*
X80595973Y-82610196D01*
X80571705Y-82613796D01*
X80547201Y-82615000D01*
X79897199Y-82615000D01*
X79872695Y-82613796D01*
X79848427Y-82610196D01*
X79824628Y-82604235D01*
X79801529Y-82595970D01*
X79779350Y-82585480D01*
X79758307Y-82572868D01*
X79738601Y-82558253D01*
X79720423Y-82541777D01*
X79703947Y-82523599D01*
X79689332Y-82503893D01*
X79676720Y-82482850D01*
X79666230Y-82460671D01*
X79657965Y-82437572D01*
X79652004Y-82413773D01*
X79648404Y-82389505D01*
X79647200Y-82365001D01*
X79647200Y-81464999D01*
X79648404Y-81440495D01*
X79652004Y-81416227D01*
X79657965Y-81392428D01*
X79666230Y-81369329D01*
X79676720Y-81347150D01*
X79689332Y-81326107D01*
X79703947Y-81306401D01*
X79720423Y-81288223D01*
X79738601Y-81271747D01*
X79758307Y-81257132D01*
X79779350Y-81244520D01*
X79801529Y-81234030D01*
X79824628Y-81225765D01*
X79848427Y-81219804D01*
X79872695Y-81216204D01*
X79897199Y-81215000D01*
X80547201Y-81215000D01*
X80571705Y-81216204D01*
G37*
G36*
X78521705Y-81216204D02*
G01*
X78545973Y-81219804D01*
X78569772Y-81225765D01*
X78592871Y-81234030D01*
X78615050Y-81244520D01*
X78636093Y-81257132D01*
X78655799Y-81271747D01*
X78673977Y-81288223D01*
X78690453Y-81306401D01*
X78705068Y-81326107D01*
X78717680Y-81347150D01*
X78728170Y-81369329D01*
X78736435Y-81392428D01*
X78742396Y-81416227D01*
X78745996Y-81440495D01*
X78747200Y-81464999D01*
X78747200Y-82365001D01*
X78745996Y-82389505D01*
X78742396Y-82413773D01*
X78736435Y-82437572D01*
X78728170Y-82460671D01*
X78717680Y-82482850D01*
X78705068Y-82503893D01*
X78690453Y-82523599D01*
X78673977Y-82541777D01*
X78655799Y-82558253D01*
X78636093Y-82572868D01*
X78615050Y-82585480D01*
X78592871Y-82595970D01*
X78569772Y-82604235D01*
X78545973Y-82610196D01*
X78521705Y-82613796D01*
X78497201Y-82615000D01*
X77847199Y-82615000D01*
X77822695Y-82613796D01*
X77798427Y-82610196D01*
X77774628Y-82604235D01*
X77751529Y-82595970D01*
X77729350Y-82585480D01*
X77708307Y-82572868D01*
X77688601Y-82558253D01*
X77670423Y-82541777D01*
X77653947Y-82523599D01*
X77639332Y-82503893D01*
X77626720Y-82482850D01*
X77616230Y-82460671D01*
X77607965Y-82437572D01*
X77602004Y-82413773D01*
X77598404Y-82389505D01*
X77597200Y-82365001D01*
X77597200Y-81464999D01*
X77598404Y-81440495D01*
X77602004Y-81416227D01*
X77607965Y-81392428D01*
X77616230Y-81369329D01*
X77626720Y-81347150D01*
X77639332Y-81326107D01*
X77653947Y-81306401D01*
X77670423Y-81288223D01*
X77688601Y-81271747D01*
X77708307Y-81257132D01*
X77729350Y-81244520D01*
X77751529Y-81234030D01*
X77774628Y-81225765D01*
X77798427Y-81219804D01*
X77822695Y-81216204D01*
X77847199Y-81215000D01*
X78497201Y-81215000D01*
X78521705Y-81216204D01*
G37*
G36*
X78521705Y-85940604D02*
G01*
X78545973Y-85944204D01*
X78569772Y-85950165D01*
X78592871Y-85958430D01*
X78615050Y-85968920D01*
X78636093Y-85981532D01*
X78655799Y-85996147D01*
X78673977Y-86012623D01*
X78690453Y-86030801D01*
X78705068Y-86050507D01*
X78717680Y-86071550D01*
X78728170Y-86093729D01*
X78736435Y-86116828D01*
X78742396Y-86140627D01*
X78745996Y-86164895D01*
X78747200Y-86189399D01*
X78747200Y-87089401D01*
X78745996Y-87113905D01*
X78742396Y-87138173D01*
X78736435Y-87161972D01*
X78728170Y-87185071D01*
X78717680Y-87207250D01*
X78705068Y-87228293D01*
X78690453Y-87247999D01*
X78673977Y-87266177D01*
X78655799Y-87282653D01*
X78636093Y-87297268D01*
X78615050Y-87309880D01*
X78592871Y-87320370D01*
X78569772Y-87328635D01*
X78545973Y-87334596D01*
X78521705Y-87338196D01*
X78497201Y-87339400D01*
X77847199Y-87339400D01*
X77822695Y-87338196D01*
X77798427Y-87334596D01*
X77774628Y-87328635D01*
X77751529Y-87320370D01*
X77729350Y-87309880D01*
X77708307Y-87297268D01*
X77688601Y-87282653D01*
X77670423Y-87266177D01*
X77653947Y-87247999D01*
X77639332Y-87228293D01*
X77626720Y-87207250D01*
X77616230Y-87185071D01*
X77607965Y-87161972D01*
X77602004Y-87138173D01*
X77598404Y-87113905D01*
X77597200Y-87089401D01*
X77597200Y-86189399D01*
X77598404Y-86164895D01*
X77602004Y-86140627D01*
X77607965Y-86116828D01*
X77616230Y-86093729D01*
X77626720Y-86071550D01*
X77639332Y-86050507D01*
X77653947Y-86030801D01*
X77670423Y-86012623D01*
X77688601Y-85996147D01*
X77708307Y-85981532D01*
X77729350Y-85968920D01*
X77751529Y-85958430D01*
X77774628Y-85950165D01*
X77798427Y-85944204D01*
X77822695Y-85940604D01*
X77847199Y-85939400D01*
X78497201Y-85939400D01*
X78521705Y-85940604D01*
G37*
G36*
X80571705Y-85940604D02*
G01*
X80595973Y-85944204D01*
X80619772Y-85950165D01*
X80642871Y-85958430D01*
X80665050Y-85968920D01*
X80686093Y-85981532D01*
X80705799Y-85996147D01*
X80723977Y-86012623D01*
X80740453Y-86030801D01*
X80755068Y-86050507D01*
X80767680Y-86071550D01*
X80778170Y-86093729D01*
X80786435Y-86116828D01*
X80792396Y-86140627D01*
X80795996Y-86164895D01*
X80797200Y-86189399D01*
X80797200Y-87089401D01*
X80795996Y-87113905D01*
X80792396Y-87138173D01*
X80786435Y-87161972D01*
X80778170Y-87185071D01*
X80767680Y-87207250D01*
X80755068Y-87228293D01*
X80740453Y-87247999D01*
X80723977Y-87266177D01*
X80705799Y-87282653D01*
X80686093Y-87297268D01*
X80665050Y-87309880D01*
X80642871Y-87320370D01*
X80619772Y-87328635D01*
X80595973Y-87334596D01*
X80571705Y-87338196D01*
X80547201Y-87339400D01*
X79897199Y-87339400D01*
X79872695Y-87338196D01*
X79848427Y-87334596D01*
X79824628Y-87328635D01*
X79801529Y-87320370D01*
X79779350Y-87309880D01*
X79758307Y-87297268D01*
X79738601Y-87282653D01*
X79720423Y-87266177D01*
X79703947Y-87247999D01*
X79689332Y-87228293D01*
X79676720Y-87207250D01*
X79666230Y-87185071D01*
X79657965Y-87161972D01*
X79652004Y-87138173D01*
X79648404Y-87113905D01*
X79647200Y-87089401D01*
X79647200Y-86189399D01*
X79648404Y-86164895D01*
X79652004Y-86140627D01*
X79657965Y-86116828D01*
X79666230Y-86093729D01*
X79676720Y-86071550D01*
X79689332Y-86050507D01*
X79703947Y-86030801D01*
X79720423Y-86012623D01*
X79738601Y-85996147D01*
X79758307Y-85981532D01*
X79779350Y-85968920D01*
X79801529Y-85958430D01*
X79824628Y-85950165D01*
X79848427Y-85944204D01*
X79872695Y-85940604D01*
X79897199Y-85939400D01*
X80547201Y-85939400D01*
X80571705Y-85940604D01*
G37*
G36*
X74739503Y-90658122D02*
G01*
X74754064Y-90660282D01*
X74768343Y-90663859D01*
X74782203Y-90668818D01*
X74795510Y-90675112D01*
X74808136Y-90682680D01*
X74819959Y-90691448D01*
X74830866Y-90701334D01*
X74840752Y-90712241D01*
X74849520Y-90724064D01*
X74857088Y-90736690D01*
X74863382Y-90749997D01*
X74868341Y-90763857D01*
X74871918Y-90778136D01*
X74874078Y-90792697D01*
X74874800Y-90807400D01*
X74874800Y-91107400D01*
X74874078Y-91122103D01*
X74871918Y-91136664D01*
X74868341Y-91150943D01*
X74863382Y-91164803D01*
X74857088Y-91178110D01*
X74849520Y-91190736D01*
X74840752Y-91202559D01*
X74830866Y-91213466D01*
X74819959Y-91223352D01*
X74808136Y-91232120D01*
X74795510Y-91239688D01*
X74782203Y-91245982D01*
X74768343Y-91250941D01*
X74754064Y-91254518D01*
X74739503Y-91256678D01*
X74724800Y-91257400D01*
X73074800Y-91257400D01*
X73060097Y-91256678D01*
X73045536Y-91254518D01*
X73031257Y-91250941D01*
X73017397Y-91245982D01*
X73004090Y-91239688D01*
X72991464Y-91232120D01*
X72979641Y-91223352D01*
X72968734Y-91213466D01*
X72958848Y-91202559D01*
X72950080Y-91190736D01*
X72942512Y-91178110D01*
X72936218Y-91164803D01*
X72931259Y-91150943D01*
X72927682Y-91136664D01*
X72925522Y-91122103D01*
X72924800Y-91107400D01*
X72924800Y-90807400D01*
X72925522Y-90792697D01*
X72927682Y-90778136D01*
X72931259Y-90763857D01*
X72936218Y-90749997D01*
X72942512Y-90736690D01*
X72950080Y-90724064D01*
X72958848Y-90712241D01*
X72968734Y-90701334D01*
X72979641Y-90691448D01*
X72991464Y-90682680D01*
X73004090Y-90675112D01*
X73017397Y-90668818D01*
X73031257Y-90663859D01*
X73045536Y-90660282D01*
X73060097Y-90658122D01*
X73074800Y-90657400D01*
X74724800Y-90657400D01*
X74739503Y-90658122D01*
G37*
G36*
X74739503Y-89388122D02*
G01*
X74754064Y-89390282D01*
X74768343Y-89393859D01*
X74782203Y-89398818D01*
X74795510Y-89405112D01*
X74808136Y-89412680D01*
X74819959Y-89421448D01*
X74830866Y-89431334D01*
X74840752Y-89442241D01*
X74849520Y-89454064D01*
X74857088Y-89466690D01*
X74863382Y-89479997D01*
X74868341Y-89493857D01*
X74871918Y-89508136D01*
X74874078Y-89522697D01*
X74874800Y-89537400D01*
X74874800Y-89837400D01*
X74874078Y-89852103D01*
X74871918Y-89866664D01*
X74868341Y-89880943D01*
X74863382Y-89894803D01*
X74857088Y-89908110D01*
X74849520Y-89920736D01*
X74840752Y-89932559D01*
X74830866Y-89943466D01*
X74819959Y-89953352D01*
X74808136Y-89962120D01*
X74795510Y-89969688D01*
X74782203Y-89975982D01*
X74768343Y-89980941D01*
X74754064Y-89984518D01*
X74739503Y-89986678D01*
X74724800Y-89987400D01*
X73074800Y-89987400D01*
X73060097Y-89986678D01*
X73045536Y-89984518D01*
X73031257Y-89980941D01*
X73017397Y-89975982D01*
X73004090Y-89969688D01*
X72991464Y-89962120D01*
X72979641Y-89953352D01*
X72968734Y-89943466D01*
X72958848Y-89932559D01*
X72950080Y-89920736D01*
X72942512Y-89908110D01*
X72936218Y-89894803D01*
X72931259Y-89880943D01*
X72927682Y-89866664D01*
X72925522Y-89852103D01*
X72924800Y-89837400D01*
X72924800Y-89537400D01*
X72925522Y-89522697D01*
X72927682Y-89508136D01*
X72931259Y-89493857D01*
X72936218Y-89479997D01*
X72942512Y-89466690D01*
X72950080Y-89454064D01*
X72958848Y-89442241D01*
X72968734Y-89431334D01*
X72979641Y-89421448D01*
X72991464Y-89412680D01*
X73004090Y-89405112D01*
X73017397Y-89398818D01*
X73031257Y-89393859D01*
X73045536Y-89390282D01*
X73060097Y-89388122D01*
X73074800Y-89387400D01*
X74724800Y-89387400D01*
X74739503Y-89388122D01*
G37*
G36*
X74739503Y-88118122D02*
G01*
X74754064Y-88120282D01*
X74768343Y-88123859D01*
X74782203Y-88128818D01*
X74795510Y-88135112D01*
X74808136Y-88142680D01*
X74819959Y-88151448D01*
X74830866Y-88161334D01*
X74840752Y-88172241D01*
X74849520Y-88184064D01*
X74857088Y-88196690D01*
X74863382Y-88209997D01*
X74868341Y-88223857D01*
X74871918Y-88238136D01*
X74874078Y-88252697D01*
X74874800Y-88267400D01*
X74874800Y-88567400D01*
X74874078Y-88582103D01*
X74871918Y-88596664D01*
X74868341Y-88610943D01*
X74863382Y-88624803D01*
X74857088Y-88638110D01*
X74849520Y-88650736D01*
X74840752Y-88662559D01*
X74830866Y-88673466D01*
X74819959Y-88683352D01*
X74808136Y-88692120D01*
X74795510Y-88699688D01*
X74782203Y-88705982D01*
X74768343Y-88710941D01*
X74754064Y-88714518D01*
X74739503Y-88716678D01*
X74724800Y-88717400D01*
X73074800Y-88717400D01*
X73060097Y-88716678D01*
X73045536Y-88714518D01*
X73031257Y-88710941D01*
X73017397Y-88705982D01*
X73004090Y-88699688D01*
X72991464Y-88692120D01*
X72979641Y-88683352D01*
X72968734Y-88673466D01*
X72958848Y-88662559D01*
X72950080Y-88650736D01*
X72942512Y-88638110D01*
X72936218Y-88624803D01*
X72931259Y-88610943D01*
X72927682Y-88596664D01*
X72925522Y-88582103D01*
X72924800Y-88567400D01*
X72924800Y-88267400D01*
X72925522Y-88252697D01*
X72927682Y-88238136D01*
X72931259Y-88223857D01*
X72936218Y-88209997D01*
X72942512Y-88196690D01*
X72950080Y-88184064D01*
X72958848Y-88172241D01*
X72968734Y-88161334D01*
X72979641Y-88151448D01*
X72991464Y-88142680D01*
X73004090Y-88135112D01*
X73017397Y-88128818D01*
X73031257Y-88123859D01*
X73045536Y-88120282D01*
X73060097Y-88118122D01*
X73074800Y-88117400D01*
X74724800Y-88117400D01*
X74739503Y-88118122D01*
G37*
G36*
X74739503Y-86848122D02*
G01*
X74754064Y-86850282D01*
X74768343Y-86853859D01*
X74782203Y-86858818D01*
X74795510Y-86865112D01*
X74808136Y-86872680D01*
X74819959Y-86881448D01*
X74830866Y-86891334D01*
X74840752Y-86902241D01*
X74849520Y-86914064D01*
X74857088Y-86926690D01*
X74863382Y-86939997D01*
X74868341Y-86953857D01*
X74871918Y-86968136D01*
X74874078Y-86982697D01*
X74874800Y-86997400D01*
X74874800Y-87297400D01*
X74874078Y-87312103D01*
X74871918Y-87326664D01*
X74868341Y-87340943D01*
X74863382Y-87354803D01*
X74857088Y-87368110D01*
X74849520Y-87380736D01*
X74840752Y-87392559D01*
X74830866Y-87403466D01*
X74819959Y-87413352D01*
X74808136Y-87422120D01*
X74795510Y-87429688D01*
X74782203Y-87435982D01*
X74768343Y-87440941D01*
X74754064Y-87444518D01*
X74739503Y-87446678D01*
X74724800Y-87447400D01*
X73074800Y-87447400D01*
X73060097Y-87446678D01*
X73045536Y-87444518D01*
X73031257Y-87440941D01*
X73017397Y-87435982D01*
X73004090Y-87429688D01*
X72991464Y-87422120D01*
X72979641Y-87413352D01*
X72968734Y-87403466D01*
X72958848Y-87392559D01*
X72950080Y-87380736D01*
X72942512Y-87368110D01*
X72936218Y-87354803D01*
X72931259Y-87340943D01*
X72927682Y-87326664D01*
X72925522Y-87312103D01*
X72924800Y-87297400D01*
X72924800Y-86997400D01*
X72925522Y-86982697D01*
X72927682Y-86968136D01*
X72931259Y-86953857D01*
X72936218Y-86939997D01*
X72942512Y-86926690D01*
X72950080Y-86914064D01*
X72958848Y-86902241D01*
X72968734Y-86891334D01*
X72979641Y-86881448D01*
X72991464Y-86872680D01*
X73004090Y-86865112D01*
X73017397Y-86858818D01*
X73031257Y-86853859D01*
X73045536Y-86850282D01*
X73060097Y-86848122D01*
X73074800Y-86847400D01*
X74724800Y-86847400D01*
X74739503Y-86848122D01*
G37*
G36*
X74739503Y-85578122D02*
G01*
X74754064Y-85580282D01*
X74768343Y-85583859D01*
X74782203Y-85588818D01*
X74795510Y-85595112D01*
X74808136Y-85602680D01*
X74819959Y-85611448D01*
X74830866Y-85621334D01*
X74840752Y-85632241D01*
X74849520Y-85644064D01*
X74857088Y-85656690D01*
X74863382Y-85669997D01*
X74868341Y-85683857D01*
X74871918Y-85698136D01*
X74874078Y-85712697D01*
X74874800Y-85727400D01*
X74874800Y-86027400D01*
X74874078Y-86042103D01*
X74871918Y-86056664D01*
X74868341Y-86070943D01*
X74863382Y-86084803D01*
X74857088Y-86098110D01*
X74849520Y-86110736D01*
X74840752Y-86122559D01*
X74830866Y-86133466D01*
X74819959Y-86143352D01*
X74808136Y-86152120D01*
X74795510Y-86159688D01*
X74782203Y-86165982D01*
X74768343Y-86170941D01*
X74754064Y-86174518D01*
X74739503Y-86176678D01*
X74724800Y-86177400D01*
X73074800Y-86177400D01*
X73060097Y-86176678D01*
X73045536Y-86174518D01*
X73031257Y-86170941D01*
X73017397Y-86165982D01*
X73004090Y-86159688D01*
X72991464Y-86152120D01*
X72979641Y-86143352D01*
X72968734Y-86133466D01*
X72958848Y-86122559D01*
X72950080Y-86110736D01*
X72942512Y-86098110D01*
X72936218Y-86084803D01*
X72931259Y-86070943D01*
X72927682Y-86056664D01*
X72925522Y-86042103D01*
X72924800Y-86027400D01*
X72924800Y-85727400D01*
X72925522Y-85712697D01*
X72927682Y-85698136D01*
X72931259Y-85683857D01*
X72936218Y-85669997D01*
X72942512Y-85656690D01*
X72950080Y-85644064D01*
X72958848Y-85632241D01*
X72968734Y-85621334D01*
X72979641Y-85611448D01*
X72991464Y-85602680D01*
X73004090Y-85595112D01*
X73017397Y-85588818D01*
X73031257Y-85583859D01*
X73045536Y-85580282D01*
X73060097Y-85578122D01*
X73074800Y-85577400D01*
X74724800Y-85577400D01*
X74739503Y-85578122D01*
G37*
G36*
X74739503Y-84308122D02*
G01*
X74754064Y-84310282D01*
X74768343Y-84313859D01*
X74782203Y-84318818D01*
X74795510Y-84325112D01*
X74808136Y-84332680D01*
X74819959Y-84341448D01*
X74830866Y-84351334D01*
X74840752Y-84362241D01*
X74849520Y-84374064D01*
X74857088Y-84386690D01*
X74863382Y-84399997D01*
X74868341Y-84413857D01*
X74871918Y-84428136D01*
X74874078Y-84442697D01*
X74874800Y-84457400D01*
X74874800Y-84757400D01*
X74874078Y-84772103D01*
X74871918Y-84786664D01*
X74868341Y-84800943D01*
X74863382Y-84814803D01*
X74857088Y-84828110D01*
X74849520Y-84840736D01*
X74840752Y-84852559D01*
X74830866Y-84863466D01*
X74819959Y-84873352D01*
X74808136Y-84882120D01*
X74795510Y-84889688D01*
X74782203Y-84895982D01*
X74768343Y-84900941D01*
X74754064Y-84904518D01*
X74739503Y-84906678D01*
X74724800Y-84907400D01*
X73074800Y-84907400D01*
X73060097Y-84906678D01*
X73045536Y-84904518D01*
X73031257Y-84900941D01*
X73017397Y-84895982D01*
X73004090Y-84889688D01*
X72991464Y-84882120D01*
X72979641Y-84873352D01*
X72968734Y-84863466D01*
X72958848Y-84852559D01*
X72950080Y-84840736D01*
X72942512Y-84828110D01*
X72936218Y-84814803D01*
X72931259Y-84800943D01*
X72927682Y-84786664D01*
X72925522Y-84772103D01*
X72924800Y-84757400D01*
X72924800Y-84457400D01*
X72925522Y-84442697D01*
X72927682Y-84428136D01*
X72931259Y-84413857D01*
X72936218Y-84399997D01*
X72942512Y-84386690D01*
X72950080Y-84374064D01*
X72958848Y-84362241D01*
X72968734Y-84351334D01*
X72979641Y-84341448D01*
X72991464Y-84332680D01*
X73004090Y-84325112D01*
X73017397Y-84318818D01*
X73031257Y-84313859D01*
X73045536Y-84310282D01*
X73060097Y-84308122D01*
X73074800Y-84307400D01*
X74724800Y-84307400D01*
X74739503Y-84308122D01*
G37*
G36*
X74739503Y-83038122D02*
G01*
X74754064Y-83040282D01*
X74768343Y-83043859D01*
X74782203Y-83048818D01*
X74795510Y-83055112D01*
X74808136Y-83062680D01*
X74819959Y-83071448D01*
X74830866Y-83081334D01*
X74840752Y-83092241D01*
X74849520Y-83104064D01*
X74857088Y-83116690D01*
X74863382Y-83129997D01*
X74868341Y-83143857D01*
X74871918Y-83158136D01*
X74874078Y-83172697D01*
X74874800Y-83187400D01*
X74874800Y-83487400D01*
X74874078Y-83502103D01*
X74871918Y-83516664D01*
X74868341Y-83530943D01*
X74863382Y-83544803D01*
X74857088Y-83558110D01*
X74849520Y-83570736D01*
X74840752Y-83582559D01*
X74830866Y-83593466D01*
X74819959Y-83603352D01*
X74808136Y-83612120D01*
X74795510Y-83619688D01*
X74782203Y-83625982D01*
X74768343Y-83630941D01*
X74754064Y-83634518D01*
X74739503Y-83636678D01*
X74724800Y-83637400D01*
X73074800Y-83637400D01*
X73060097Y-83636678D01*
X73045536Y-83634518D01*
X73031257Y-83630941D01*
X73017397Y-83625982D01*
X73004090Y-83619688D01*
X72991464Y-83612120D01*
X72979641Y-83603352D01*
X72968734Y-83593466D01*
X72958848Y-83582559D01*
X72950080Y-83570736D01*
X72942512Y-83558110D01*
X72936218Y-83544803D01*
X72931259Y-83530943D01*
X72927682Y-83516664D01*
X72925522Y-83502103D01*
X72924800Y-83487400D01*
X72924800Y-83187400D01*
X72925522Y-83172697D01*
X72927682Y-83158136D01*
X72931259Y-83143857D01*
X72936218Y-83129997D01*
X72942512Y-83116690D01*
X72950080Y-83104064D01*
X72958848Y-83092241D01*
X72968734Y-83081334D01*
X72979641Y-83071448D01*
X72991464Y-83062680D01*
X73004090Y-83055112D01*
X73017397Y-83048818D01*
X73031257Y-83043859D01*
X73045536Y-83040282D01*
X73060097Y-83038122D01*
X73074800Y-83037400D01*
X74724800Y-83037400D01*
X74739503Y-83038122D01*
G37*
G36*
X74739503Y-81768122D02*
G01*
X74754064Y-81770282D01*
X74768343Y-81773859D01*
X74782203Y-81778818D01*
X74795510Y-81785112D01*
X74808136Y-81792680D01*
X74819959Y-81801448D01*
X74830866Y-81811334D01*
X74840752Y-81822241D01*
X74849520Y-81834064D01*
X74857088Y-81846690D01*
X74863382Y-81859997D01*
X74868341Y-81873857D01*
X74871918Y-81888136D01*
X74874078Y-81902697D01*
X74874800Y-81917400D01*
X74874800Y-82217400D01*
X74874078Y-82232103D01*
X74871918Y-82246664D01*
X74868341Y-82260943D01*
X74863382Y-82274803D01*
X74857088Y-82288110D01*
X74849520Y-82300736D01*
X74840752Y-82312559D01*
X74830866Y-82323466D01*
X74819959Y-82333352D01*
X74808136Y-82342120D01*
X74795510Y-82349688D01*
X74782203Y-82355982D01*
X74768343Y-82360941D01*
X74754064Y-82364518D01*
X74739503Y-82366678D01*
X74724800Y-82367400D01*
X73074800Y-82367400D01*
X73060097Y-82366678D01*
X73045536Y-82364518D01*
X73031257Y-82360941D01*
X73017397Y-82355982D01*
X73004090Y-82349688D01*
X72991464Y-82342120D01*
X72979641Y-82333352D01*
X72968734Y-82323466D01*
X72958848Y-82312559D01*
X72950080Y-82300736D01*
X72942512Y-82288110D01*
X72936218Y-82274803D01*
X72931259Y-82260943D01*
X72927682Y-82246664D01*
X72925522Y-82232103D01*
X72924800Y-82217400D01*
X72924800Y-81917400D01*
X72925522Y-81902697D01*
X72927682Y-81888136D01*
X72931259Y-81873857D01*
X72936218Y-81859997D01*
X72942512Y-81846690D01*
X72950080Y-81834064D01*
X72958848Y-81822241D01*
X72968734Y-81811334D01*
X72979641Y-81801448D01*
X72991464Y-81792680D01*
X73004090Y-81785112D01*
X73017397Y-81778818D01*
X73031257Y-81773859D01*
X73045536Y-81770282D01*
X73060097Y-81768122D01*
X73074800Y-81767400D01*
X74724800Y-81767400D01*
X74739503Y-81768122D01*
G37*
G36*
X69789503Y-81768122D02*
G01*
X69804064Y-81770282D01*
X69818343Y-81773859D01*
X69832203Y-81778818D01*
X69845510Y-81785112D01*
X69858136Y-81792680D01*
X69869959Y-81801448D01*
X69880866Y-81811334D01*
X69890752Y-81822241D01*
X69899520Y-81834064D01*
X69907088Y-81846690D01*
X69913382Y-81859997D01*
X69918341Y-81873857D01*
X69921918Y-81888136D01*
X69924078Y-81902697D01*
X69924800Y-81917400D01*
X69924800Y-82217400D01*
X69924078Y-82232103D01*
X69921918Y-82246664D01*
X69918341Y-82260943D01*
X69913382Y-82274803D01*
X69907088Y-82288110D01*
X69899520Y-82300736D01*
X69890752Y-82312559D01*
X69880866Y-82323466D01*
X69869959Y-82333352D01*
X69858136Y-82342120D01*
X69845510Y-82349688D01*
X69832203Y-82355982D01*
X69818343Y-82360941D01*
X69804064Y-82364518D01*
X69789503Y-82366678D01*
X69774800Y-82367400D01*
X68124800Y-82367400D01*
X68110097Y-82366678D01*
X68095536Y-82364518D01*
X68081257Y-82360941D01*
X68067397Y-82355982D01*
X68054090Y-82349688D01*
X68041464Y-82342120D01*
X68029641Y-82333352D01*
X68018734Y-82323466D01*
X68008848Y-82312559D01*
X68000080Y-82300736D01*
X67992512Y-82288110D01*
X67986218Y-82274803D01*
X67981259Y-82260943D01*
X67977682Y-82246664D01*
X67975522Y-82232103D01*
X67974800Y-82217400D01*
X67974800Y-81917400D01*
X67975522Y-81902697D01*
X67977682Y-81888136D01*
X67981259Y-81873857D01*
X67986218Y-81859997D01*
X67992512Y-81846690D01*
X68000080Y-81834064D01*
X68008848Y-81822241D01*
X68018734Y-81811334D01*
X68029641Y-81801448D01*
X68041464Y-81792680D01*
X68054090Y-81785112D01*
X68067397Y-81778818D01*
X68081257Y-81773859D01*
X68095536Y-81770282D01*
X68110097Y-81768122D01*
X68124800Y-81767400D01*
X69774800Y-81767400D01*
X69789503Y-81768122D01*
G37*
G36*
X69789503Y-83038122D02*
G01*
X69804064Y-83040282D01*
X69818343Y-83043859D01*
X69832203Y-83048818D01*
X69845510Y-83055112D01*
X69858136Y-83062680D01*
X69869959Y-83071448D01*
X69880866Y-83081334D01*
X69890752Y-83092241D01*
X69899520Y-83104064D01*
X69907088Y-83116690D01*
X69913382Y-83129997D01*
X69918341Y-83143857D01*
X69921918Y-83158136D01*
X69924078Y-83172697D01*
X69924800Y-83187400D01*
X69924800Y-83487400D01*
X69924078Y-83502103D01*
X69921918Y-83516664D01*
X69918341Y-83530943D01*
X69913382Y-83544803D01*
X69907088Y-83558110D01*
X69899520Y-83570736D01*
X69890752Y-83582559D01*
X69880866Y-83593466D01*
X69869959Y-83603352D01*
X69858136Y-83612120D01*
X69845510Y-83619688D01*
X69832203Y-83625982D01*
X69818343Y-83630941D01*
X69804064Y-83634518D01*
X69789503Y-83636678D01*
X69774800Y-83637400D01*
X68124800Y-83637400D01*
X68110097Y-83636678D01*
X68095536Y-83634518D01*
X68081257Y-83630941D01*
X68067397Y-83625982D01*
X68054090Y-83619688D01*
X68041464Y-83612120D01*
X68029641Y-83603352D01*
X68018734Y-83593466D01*
X68008848Y-83582559D01*
X68000080Y-83570736D01*
X67992512Y-83558110D01*
X67986218Y-83544803D01*
X67981259Y-83530943D01*
X67977682Y-83516664D01*
X67975522Y-83502103D01*
X67974800Y-83487400D01*
X67974800Y-83187400D01*
X67975522Y-83172697D01*
X67977682Y-83158136D01*
X67981259Y-83143857D01*
X67986218Y-83129997D01*
X67992512Y-83116690D01*
X68000080Y-83104064D01*
X68008848Y-83092241D01*
X68018734Y-83081334D01*
X68029641Y-83071448D01*
X68041464Y-83062680D01*
X68054090Y-83055112D01*
X68067397Y-83048818D01*
X68081257Y-83043859D01*
X68095536Y-83040282D01*
X68110097Y-83038122D01*
X68124800Y-83037400D01*
X69774800Y-83037400D01*
X69789503Y-83038122D01*
G37*
G36*
X69789503Y-84308122D02*
G01*
X69804064Y-84310282D01*
X69818343Y-84313859D01*
X69832203Y-84318818D01*
X69845510Y-84325112D01*
X69858136Y-84332680D01*
X69869959Y-84341448D01*
X69880866Y-84351334D01*
X69890752Y-84362241D01*
X69899520Y-84374064D01*
X69907088Y-84386690D01*
X69913382Y-84399997D01*
X69918341Y-84413857D01*
X69921918Y-84428136D01*
X69924078Y-84442697D01*
X69924800Y-84457400D01*
X69924800Y-84757400D01*
X69924078Y-84772103D01*
X69921918Y-84786664D01*
X69918341Y-84800943D01*
X69913382Y-84814803D01*
X69907088Y-84828110D01*
X69899520Y-84840736D01*
X69890752Y-84852559D01*
X69880866Y-84863466D01*
X69869959Y-84873352D01*
X69858136Y-84882120D01*
X69845510Y-84889688D01*
X69832203Y-84895982D01*
X69818343Y-84900941D01*
X69804064Y-84904518D01*
X69789503Y-84906678D01*
X69774800Y-84907400D01*
X68124800Y-84907400D01*
X68110097Y-84906678D01*
X68095536Y-84904518D01*
X68081257Y-84900941D01*
X68067397Y-84895982D01*
X68054090Y-84889688D01*
X68041464Y-84882120D01*
X68029641Y-84873352D01*
X68018734Y-84863466D01*
X68008848Y-84852559D01*
X68000080Y-84840736D01*
X67992512Y-84828110D01*
X67986218Y-84814803D01*
X67981259Y-84800943D01*
X67977682Y-84786664D01*
X67975522Y-84772103D01*
X67974800Y-84757400D01*
X67974800Y-84457400D01*
X67975522Y-84442697D01*
X67977682Y-84428136D01*
X67981259Y-84413857D01*
X67986218Y-84399997D01*
X67992512Y-84386690D01*
X68000080Y-84374064D01*
X68008848Y-84362241D01*
X68018734Y-84351334D01*
X68029641Y-84341448D01*
X68041464Y-84332680D01*
X68054090Y-84325112D01*
X68067397Y-84318818D01*
X68081257Y-84313859D01*
X68095536Y-84310282D01*
X68110097Y-84308122D01*
X68124800Y-84307400D01*
X69774800Y-84307400D01*
X69789503Y-84308122D01*
G37*
G36*
X69789503Y-85578122D02*
G01*
X69804064Y-85580282D01*
X69818343Y-85583859D01*
X69832203Y-85588818D01*
X69845510Y-85595112D01*
X69858136Y-85602680D01*
X69869959Y-85611448D01*
X69880866Y-85621334D01*
X69890752Y-85632241D01*
X69899520Y-85644064D01*
X69907088Y-85656690D01*
X69913382Y-85669997D01*
X69918341Y-85683857D01*
X69921918Y-85698136D01*
X69924078Y-85712697D01*
X69924800Y-85727400D01*
X69924800Y-86027400D01*
X69924078Y-86042103D01*
X69921918Y-86056664D01*
X69918341Y-86070943D01*
X69913382Y-86084803D01*
X69907088Y-86098110D01*
X69899520Y-86110736D01*
X69890752Y-86122559D01*
X69880866Y-86133466D01*
X69869959Y-86143352D01*
X69858136Y-86152120D01*
X69845510Y-86159688D01*
X69832203Y-86165982D01*
X69818343Y-86170941D01*
X69804064Y-86174518D01*
X69789503Y-86176678D01*
X69774800Y-86177400D01*
X68124800Y-86177400D01*
X68110097Y-86176678D01*
X68095536Y-86174518D01*
X68081257Y-86170941D01*
X68067397Y-86165982D01*
X68054090Y-86159688D01*
X68041464Y-86152120D01*
X68029641Y-86143352D01*
X68018734Y-86133466D01*
X68008848Y-86122559D01*
X68000080Y-86110736D01*
X67992512Y-86098110D01*
X67986218Y-86084803D01*
X67981259Y-86070943D01*
X67977682Y-86056664D01*
X67975522Y-86042103D01*
X67974800Y-86027400D01*
X67974800Y-85727400D01*
X67975522Y-85712697D01*
X67977682Y-85698136D01*
X67981259Y-85683857D01*
X67986218Y-85669997D01*
X67992512Y-85656690D01*
X68000080Y-85644064D01*
X68008848Y-85632241D01*
X68018734Y-85621334D01*
X68029641Y-85611448D01*
X68041464Y-85602680D01*
X68054090Y-85595112D01*
X68067397Y-85588818D01*
X68081257Y-85583859D01*
X68095536Y-85580282D01*
X68110097Y-85578122D01*
X68124800Y-85577400D01*
X69774800Y-85577400D01*
X69789503Y-85578122D01*
G37*
G36*
X69789503Y-86848122D02*
G01*
X69804064Y-86850282D01*
X69818343Y-86853859D01*
X69832203Y-86858818D01*
X69845510Y-86865112D01*
X69858136Y-86872680D01*
X69869959Y-86881448D01*
X69880866Y-86891334D01*
X69890752Y-86902241D01*
X69899520Y-86914064D01*
X69907088Y-86926690D01*
X69913382Y-86939997D01*
X69918341Y-86953857D01*
X69921918Y-86968136D01*
X69924078Y-86982697D01*
X69924800Y-86997400D01*
X69924800Y-87297400D01*
X69924078Y-87312103D01*
X69921918Y-87326664D01*
X69918341Y-87340943D01*
X69913382Y-87354803D01*
X69907088Y-87368110D01*
X69899520Y-87380736D01*
X69890752Y-87392559D01*
X69880866Y-87403466D01*
X69869959Y-87413352D01*
X69858136Y-87422120D01*
X69845510Y-87429688D01*
X69832203Y-87435982D01*
X69818343Y-87440941D01*
X69804064Y-87444518D01*
X69789503Y-87446678D01*
X69774800Y-87447400D01*
X68124800Y-87447400D01*
X68110097Y-87446678D01*
X68095536Y-87444518D01*
X68081257Y-87440941D01*
X68067397Y-87435982D01*
X68054090Y-87429688D01*
X68041464Y-87422120D01*
X68029641Y-87413352D01*
X68018734Y-87403466D01*
X68008848Y-87392559D01*
X68000080Y-87380736D01*
X67992512Y-87368110D01*
X67986218Y-87354803D01*
X67981259Y-87340943D01*
X67977682Y-87326664D01*
X67975522Y-87312103D01*
X67974800Y-87297400D01*
X67974800Y-86997400D01*
X67975522Y-86982697D01*
X67977682Y-86968136D01*
X67981259Y-86953857D01*
X67986218Y-86939997D01*
X67992512Y-86926690D01*
X68000080Y-86914064D01*
X68008848Y-86902241D01*
X68018734Y-86891334D01*
X68029641Y-86881448D01*
X68041464Y-86872680D01*
X68054090Y-86865112D01*
X68067397Y-86858818D01*
X68081257Y-86853859D01*
X68095536Y-86850282D01*
X68110097Y-86848122D01*
X68124800Y-86847400D01*
X69774800Y-86847400D01*
X69789503Y-86848122D01*
G37*
G36*
X69789503Y-88118122D02*
G01*
X69804064Y-88120282D01*
X69818343Y-88123859D01*
X69832203Y-88128818D01*
X69845510Y-88135112D01*
X69858136Y-88142680D01*
X69869959Y-88151448D01*
X69880866Y-88161334D01*
X69890752Y-88172241D01*
X69899520Y-88184064D01*
X69907088Y-88196690D01*
X69913382Y-88209997D01*
X69918341Y-88223857D01*
X69921918Y-88238136D01*
X69924078Y-88252697D01*
X69924800Y-88267400D01*
X69924800Y-88567400D01*
X69924078Y-88582103D01*
X69921918Y-88596664D01*
X69918341Y-88610943D01*
X69913382Y-88624803D01*
X69907088Y-88638110D01*
X69899520Y-88650736D01*
X69890752Y-88662559D01*
X69880866Y-88673466D01*
X69869959Y-88683352D01*
X69858136Y-88692120D01*
X69845510Y-88699688D01*
X69832203Y-88705982D01*
X69818343Y-88710941D01*
X69804064Y-88714518D01*
X69789503Y-88716678D01*
X69774800Y-88717400D01*
X68124800Y-88717400D01*
X68110097Y-88716678D01*
X68095536Y-88714518D01*
X68081257Y-88710941D01*
X68067397Y-88705982D01*
X68054090Y-88699688D01*
X68041464Y-88692120D01*
X68029641Y-88683352D01*
X68018734Y-88673466D01*
X68008848Y-88662559D01*
X68000080Y-88650736D01*
X67992512Y-88638110D01*
X67986218Y-88624803D01*
X67981259Y-88610943D01*
X67977682Y-88596664D01*
X67975522Y-88582103D01*
X67974800Y-88567400D01*
X67974800Y-88267400D01*
X67975522Y-88252697D01*
X67977682Y-88238136D01*
X67981259Y-88223857D01*
X67986218Y-88209997D01*
X67992512Y-88196690D01*
X68000080Y-88184064D01*
X68008848Y-88172241D01*
X68018734Y-88161334D01*
X68029641Y-88151448D01*
X68041464Y-88142680D01*
X68054090Y-88135112D01*
X68067397Y-88128818D01*
X68081257Y-88123859D01*
X68095536Y-88120282D01*
X68110097Y-88118122D01*
X68124800Y-88117400D01*
X69774800Y-88117400D01*
X69789503Y-88118122D01*
G37*
G36*
X69789503Y-89388122D02*
G01*
X69804064Y-89390282D01*
X69818343Y-89393859D01*
X69832203Y-89398818D01*
X69845510Y-89405112D01*
X69858136Y-89412680D01*
X69869959Y-89421448D01*
X69880866Y-89431334D01*
X69890752Y-89442241D01*
X69899520Y-89454064D01*
X69907088Y-89466690D01*
X69913382Y-89479997D01*
X69918341Y-89493857D01*
X69921918Y-89508136D01*
X69924078Y-89522697D01*
X69924800Y-89537400D01*
X69924800Y-89837400D01*
X69924078Y-89852103D01*
X69921918Y-89866664D01*
X69918341Y-89880943D01*
X69913382Y-89894803D01*
X69907088Y-89908110D01*
X69899520Y-89920736D01*
X69890752Y-89932559D01*
X69880866Y-89943466D01*
X69869959Y-89953352D01*
X69858136Y-89962120D01*
X69845510Y-89969688D01*
X69832203Y-89975982D01*
X69818343Y-89980941D01*
X69804064Y-89984518D01*
X69789503Y-89986678D01*
X69774800Y-89987400D01*
X68124800Y-89987400D01*
X68110097Y-89986678D01*
X68095536Y-89984518D01*
X68081257Y-89980941D01*
X68067397Y-89975982D01*
X68054090Y-89969688D01*
X68041464Y-89962120D01*
X68029641Y-89953352D01*
X68018734Y-89943466D01*
X68008848Y-89932559D01*
X68000080Y-89920736D01*
X67992512Y-89908110D01*
X67986218Y-89894803D01*
X67981259Y-89880943D01*
X67977682Y-89866664D01*
X67975522Y-89852103D01*
X67974800Y-89837400D01*
X67974800Y-89537400D01*
X67975522Y-89522697D01*
X67977682Y-89508136D01*
X67981259Y-89493857D01*
X67986218Y-89479997D01*
X67992512Y-89466690D01*
X68000080Y-89454064D01*
X68008848Y-89442241D01*
X68018734Y-89431334D01*
X68029641Y-89421448D01*
X68041464Y-89412680D01*
X68054090Y-89405112D01*
X68067397Y-89398818D01*
X68081257Y-89393859D01*
X68095536Y-89390282D01*
X68110097Y-89388122D01*
X68124800Y-89387400D01*
X69774800Y-89387400D01*
X69789503Y-89388122D01*
G37*
G36*
X69789503Y-90658122D02*
G01*
X69804064Y-90660282D01*
X69818343Y-90663859D01*
X69832203Y-90668818D01*
X69845510Y-90675112D01*
X69858136Y-90682680D01*
X69869959Y-90691448D01*
X69880866Y-90701334D01*
X69890752Y-90712241D01*
X69899520Y-90724064D01*
X69907088Y-90736690D01*
X69913382Y-90749997D01*
X69918341Y-90763857D01*
X69921918Y-90778136D01*
X69924078Y-90792697D01*
X69924800Y-90807400D01*
X69924800Y-91107400D01*
X69924078Y-91122103D01*
X69921918Y-91136664D01*
X69918341Y-91150943D01*
X69913382Y-91164803D01*
X69907088Y-91178110D01*
X69899520Y-91190736D01*
X69890752Y-91202559D01*
X69880866Y-91213466D01*
X69869959Y-91223352D01*
X69858136Y-91232120D01*
X69845510Y-91239688D01*
X69832203Y-91245982D01*
X69818343Y-91250941D01*
X69804064Y-91254518D01*
X69789503Y-91256678D01*
X69774800Y-91257400D01*
X68124800Y-91257400D01*
X68110097Y-91256678D01*
X68095536Y-91254518D01*
X68081257Y-91250941D01*
X68067397Y-91245982D01*
X68054090Y-91239688D01*
X68041464Y-91232120D01*
X68029641Y-91223352D01*
X68018734Y-91213466D01*
X68008848Y-91202559D01*
X68000080Y-91190736D01*
X67992512Y-91178110D01*
X67986218Y-91164803D01*
X67981259Y-91150943D01*
X67977682Y-91136664D01*
X67975522Y-91122103D01*
X67974800Y-91107400D01*
X67974800Y-90807400D01*
X67975522Y-90792697D01*
X67977682Y-90778136D01*
X67981259Y-90763857D01*
X67986218Y-90749997D01*
X67992512Y-90736690D01*
X68000080Y-90724064D01*
X68008848Y-90712241D01*
X68018734Y-90701334D01*
X68029641Y-90691448D01*
X68041464Y-90682680D01*
X68054090Y-90675112D01*
X68067397Y-90668818D01*
X68081257Y-90663859D01*
X68095536Y-90660282D01*
X68110097Y-90658122D01*
X68124800Y-90657400D01*
X69774800Y-90657400D01*
X69789503Y-90658122D01*
G37*
M02*
